<svg width="26" height="22" viewBox="0 0 26 22" fill="none" xmlns="http://www.w3.org/2000/svg">
    <path fill-rule="evenodd" clip-rule="evenodd" d="M25.8558 3.99699C25.7664 3.90762 25.6455 3.85328 25.512 3.85328H20.1444C20.0855 3.85328 20.0362 3.80453 20.0362 3.74512V1.7677C20.0362 1.23348 19.6864 0.768828 19.1222 0.448906C18.6311 0.171133 17.9649 0 17.2423 0H8.75773C8.03512 0 7.36988 0.171133 6.87934 0.448906L6.87781 0.45043V0.448906C6.31363 0.76832 5.96375 1.23348 5.96375 1.7677V3.74562C5.96375 3.80453 5.915 3.85379 5.85559 3.85379H0.488008C0.353945 3.85379 0.231562 3.90863 0.144219 3.9975C0.0548437 4.08637 0 4.20723 0 4.34129V6.32176C0 6.61121 0.0660156 6.8773 0.192969 7.10785C0.316875 7.33383 0.496641 7.52832 0.728203 7.67914L0.746992 7.69082L6.27758 11.1338C6.41418 11.2171 6.54977 11.279 6.68941 11.3196C6.82906 11.3598 6.97582 11.3786 7.1373 11.3786H8.91922C8.9766 11.3786 9.02434 11.3339 9.02738 11.2765C9.04617 10.9611 9.28941 10.7123 9.67383 10.561C9.9516 10.4528 10.3243 10.3853 10.726 10.3853H15.275C15.6767 10.3853 16.0494 10.4528 16.3272 10.561C16.7116 10.7123 16.9548 10.9611 16.9736 11.2765C16.9767 11.3339 17.0239 11.3786 17.0818 11.3786H18.8637C19.0247 11.3786 19.172 11.3598 19.3116 11.3196C19.4513 11.2795 19.5863 11.2176 19.7234 11.1338L25.254 7.69082C25.4957 7.54102 25.6816 7.34398 25.808 7.11496C25.9345 6.8834 26.001 6.61426 26.001 6.32328V4.34129C26 4.20723 25.9452 4.08637 25.8558 3.99699ZM14.2005 8.35453C14.1715 8.56172 14.075 8.75773 13.9268 8.91008C13.8734 8.9634 13.8161 9.01215 13.7556 9.05277C13.6967 9.09035 13.6332 9.12336 13.5642 9.1523C13.5225 9.17109 13.4779 9.18531 13.4332 9.19852V9.33816C13.4332 9.57836 13.2387 9.77133 13 9.77133C12.7608 9.77133 12.5668 9.57836 12.5668 9.33816V9.15078C12.3363 9.05582 12.1205 8.89027 11.958 8.64145C11.9092 8.5668 11.863 8.48148 11.8239 8.38652C11.732 8.16613 11.8366 7.91273 12.057 7.82234C12.1377 7.78781 12.2241 7.7807 12.3033 7.79645C12.2545 7.76039 12.2068 7.71875 12.1606 7.67102C12.0611 7.56895 11.9895 7.44809 11.9448 7.31809C11.8874 7.14695 11.8757 6.96109 11.9148 6.78387C11.9549 6.6041 12.0458 6.42992 12.1895 6.29027C12.2901 6.19074 12.4155 6.11051 12.5668 6.05871V5.89316C12.5668 5.65398 12.7613 5.46 13 5.46C13.2392 5.46 13.4332 5.65449 13.4332 5.89316V6.04297C13.452 6.04855 13.4723 6.05617 13.4905 6.06328C13.78 6.16992 14.0232 6.37863 14.1339 6.70668C14.1426 6.7341 14.1512 6.76305 14.1598 6.79453C14.2162 7.02609 14.075 7.2607 13.843 7.31859C13.6114 7.37496 13.3768 7.23379 13.3204 7.00172L13.3148 6.98445C13.2976 6.93266 13.2498 6.8966 13.1925 6.87527C13.1005 6.84074 12.9909 6.83922 12.8918 6.86359C12.8802 6.86664 12.869 6.86918 12.8543 6.87375C12.8268 6.88391 12.8055 6.89508 12.7908 6.9098C12.7766 6.92555 12.7664 6.94586 12.7603 6.96719C12.7547 6.99309 12.7562 7.01898 12.7634 7.04082C12.7674 7.0525 12.7735 7.06215 12.7791 7.06977C12.8568 7.14898 13.0381 7.19215 13.2082 7.23227C13.4672 7.2927 13.712 7.35008 13.9136 7.54762C13.9709 7.60246 14.0171 7.65984 14.0547 7.71773C14.1862 7.91527 14.2294 8.13973 14.2005 8.35453ZM19.1694 3.74512C19.1694 3.80402 19.1207 3.85328 19.0602 3.85328H6.93977C6.87934 3.85328 6.83059 3.80453 6.83059 3.74512V1.7677C6.83059 1.56914 7.01187 1.36602 7.30437 1.20047C7.66848 0.994805 8.18391 0.866328 8.75824 0.866328H17.2423C17.8166 0.866328 18.3305 0.994297 18.6961 1.20047C18.9881 1.36602 19.1699 1.56914 19.1699 1.7677V3.74512H19.1694Z" fill="#1B2A57"/>
    <path fill-rule="evenodd" clip-rule="evenodd" d="M25.9695 8.27913C25.9507 8.27049 25.9294 8.27202 25.9121 8.28471C25.8487 8.33499 25.7796 8.3812 25.709 8.42588L20.1784 11.8678C19.9728 11.9958 19.7656 12.0898 19.5477 12.1512C19.3289 12.2147 19.1029 12.2446 18.8627 12.2446H17.0808C17.0234 12.2446 16.9757 12.2893 16.9726 12.3467C16.9538 12.6621 16.7106 12.9109 16.3262 13.0607C16.0484 13.1699 15.6757 13.2379 15.274 13.2379H10.725C10.3233 13.2379 9.95059 13.1704 9.67281 13.0607C9.2884 12.9109 9.04516 12.6621 9.02637 12.3467C9.02332 12.2893 8.97609 12.2446 8.9182 12.2446H7.13629C6.89609 12.2446 6.67012 12.2142 6.45125 12.1512C6.23391 12.0892 6.02672 11.9958 5.82055 11.8678L0.290977 8.42639C0.279297 8.41928 0.269648 8.41217 0.259492 8.40456C0.200586 8.36545 0.142695 8.32381 0.0883594 8.28217C0.0710938 8.26948 0.0492578 8.26643 0.0309766 8.27659C0.0116797 8.28522 0 8.30401 0 8.32534V20.9348C0 21.0689 0.0548437 21.1913 0.143711 21.2801C0.231562 21.368 0.353945 21.4239 0.4875 21.4239H25.5115C25.6455 21.4239 25.7664 21.3675 25.8553 21.2801C25.9446 21.1908 25.999 21.0684 25.999 20.9348V8.32838C26 8.30807 25.9883 8.28928 25.9695 8.27913Z" fill="#1B2A57"/>
    <path fill-rule="evenodd" clip-rule="evenodd" d="M9.9902 12.2559C10.202 12.3392 10.4752 12.3712 10.7027 12.3727C12.2256 12.3844 13.7516 12.3727 15.2745 12.3727C15.5137 12.3727 15.7884 12.3438 16.0103 12.2559C16.0189 12.2529 16.0306 12.2473 16.0433 12.2417C16.0834 12.2244 16.1083 12.1868 16.1083 12.1421V11.4815C16.1083 11.4383 16.0839 11.4007 16.0433 11.382C16.0306 11.3774 16.0189 11.3718 16.0103 11.3688C15.7986 11.2855 15.5254 11.2535 15.2963 11.252H10.726C10.4868 11.252 10.2121 11.2809 9.99071 11.3688C9.98208 11.3718 9.9704 11.3774 9.9577 11.382C9.91758 11.4007 9.8927 11.4383 9.8927 11.4815V12.1421C9.8927 12.1868 9.91708 12.2244 9.9577 12.2417C9.96989 12.2473 9.98157 12.2529 9.9902 12.2559Z" fill="#1B2A57"/>
    <path fill-rule="evenodd" clip-rule="evenodd" d="M13.3123 8.16613C13.2818 8.13871 13.1513 8.10723 13.0127 8.07422C12.8588 8.03816 12.7004 8.00059 12.5475 7.93457C12.578 7.9691 12.6039 8.00922 12.6222 8.05543C12.6395 8.09555 12.6598 8.13312 12.6826 8.16766C12.7547 8.27836 12.8512 8.34184 12.9487 8.36926C13.0483 8.39668 13.1503 8.38805 13.2321 8.35352C13.2478 8.34641 13.2636 8.33777 13.2798 8.32762C13.2915 8.32051 13.3001 8.3134 13.3072 8.3073C13.3275 8.28699 13.3387 8.26262 13.3433 8.23977C13.3448 8.22402 13.3402 8.20676 13.3306 8.19102C13.3255 8.18188 13.3179 8.17324 13.3123 8.16613Z" fill="#1B2A57"/>
</svg>
