<svg width="24" height="24" viewBox="0 0 24 24" fill="none" xmlns="http://www.w3.org/2000/svg">
    <g clip-path="url(#clip0_530_2927)">
        <path d="M18.6864 12.625C18.8214 13.9069 18.6473 15.2332 18.1139 16.4862V16.4867L19.9656 18.8782C20.1314 19.0923 20.4421 19.1217 20.6473 18.9451C22.3101 17.5142 23.4103 15.4487 23.5733 13.1244C23.5923 12.8539 23.3746 12.625 23.1034 12.625H18.6864V12.625Z" fill="white"/>
        <path d="M14.0371 0.471001V6.31882C15.6059 6.99774 16.9082 8.17997 17.7396 9.66023H23.1156C23.3814 9.66023 23.5965 9.44022 23.5862 9.17458C23.3948 4.20338 19.4313 0.249292 14.5279 0.000605083C14.2604 -0.0129545 14.0371 0.203152 14.0371 0.471001Z" fill="white"/>
        <path d="M11.0414 21.2241C6.76133 21.2683 3.22429 17.7982 3.18969 13.518C3.1548 9.20433 6.65408 5.68363 10.9599 5.68363V3.39022C10.9599 3.12185 10.7358 2.90716 10.4677 2.91945C4.87207 3.17652 0.413499 7.79455 0.413452 13.4541C0.413452 19.2899 5.1934 24.0378 11.0291 24.0003C13.2298 23.9861 15.2699 23.2982 16.9541 22.1325C17.1756 21.9792 17.2222 21.6706 17.0573 21.4575L15.6529 19.6435C14.368 20.6197 12.7718 21.2062 11.0414 21.2241Z" fill="white"/>
        <path d="M4.60181 13.4537C4.60181 16.9594 7.45403 19.8116 10.9598 19.8116C14.4651 19.8116 17.3177 16.9599 17.3177 13.4537C17.3177 9.94802 14.4651 7.0957 10.9598 7.0957C7.45403 7.0957 4.60181 9.94793 4.60181 13.4537ZM11.666 9.22993V9.90367C12.39 9.90367 13.0309 10.2116 13.4829 10.6937C13.7494 10.9781 13.7348 11.4254 13.4504 11.6918C13.1678 11.9566 12.7226 11.9465 12.4523 11.6594C12.2498 11.4437 11.9739 11.3185 11.6947 11.3161C11.1232 11.3161 10.7369 11.3161 10.1678 11.3161C9.77202 11.3161 9.45219 11.6368 9.45219 12.0318C9.45219 12.4263 9.77329 12.7474 10.1683 12.7474H11.7517C12.925 12.7474 13.8798 13.7022 13.8798 14.8755C13.8798 15.9719 13.0365 17.0041 11.666 17.0041V17.6774C11.666 18.0672 11.3501 18.3836 10.9598 18.3836C10.5699 18.3836 10.2535 18.0672 10.2535 17.6774V17.0041C9.75606 17.0041 9.26594 16.9502 8.69182 16.5521C8.37166 16.3299 8.29209 15.8897 8.51432 15.5695C8.73655 15.2489 9.17676 15.1693 9.49692 15.3916C9.66642 15.5102 9.87692 15.5889 10.0864 15.5916H11.7517C12.145 15.5916 12.4673 15.2741 12.4673 14.8755C12.4673 14.481 12.1462 14.1599 11.7517 14.1599C11.051 14.1599 10.9066 14.1599 10.1683 14.1599C8.99456 14.1599 8.03973 13.2051 8.03973 12.0318C8.03973 10.932 8.88603 9.90367 10.2535 9.90367V9.22993C10.2535 8.84009 10.5699 8.5237 10.9598 8.5237C11.3501 8.5237 11.666 8.84009 11.666 9.22993Z" fill="white"/>
    </g>
    <defs>
        <clipPath id="clip0_530_2927">
            <rect width="24" height="24" fill="white"/>
        </clipPath>
    </defs>
</svg>
