<svg width="16" height="16" viewBox="0 0 16 16" fill="none" xmlns="http://www.w3.org/2000/svg">
    <path d="M10.6667 10.1333V11.2583L11.2667 11.9333M13.3334 6V4.66667C13.3334 3.93029 12.7364 3.33333 12 3.33333H10M6.00002 14H4.00002C3.26364 14 2.66669 13.403 2.66669 12.6667V7.33333M10 2V3.33333M10 4.66667V3.33333M6.00002 2V3.33333M6.00002 4.66667V3.33333M10 3.33333H6.00002M6.00002 3.33333H4.00002C3.26364 3.33333 2.66669 3.93029 2.66669 4.66667V7.33333M6.00002 7.33333H2.66669M13.6667 11.3333C13.6667 12.9902 12.3235 14.3333 10.6667 14.3333C9.00983 14.3333 7.66669 12.9902 7.66669 11.3333C7.66669 9.67648 9.00983 8.33333 10.6667 8.33333C12.3235 8.33333 13.6667 9.67648 13.6667 11.3333Z" stroke="#082567" stroke-linecap="round" stroke-linejoin="round"/>
</svg>
