<svg width="36" height="28" viewBox="0 0 36 28" fill="none" xmlns="http://www.w3.org/2000/svg">
    <path d="M20.3226 0.583333V3.08C19.5677 2.96917 18.7897 2.91667 18 2.91667C17.2103 2.91667 16.4323 2.96917 15.6774 3.08V0.583333C15.6774 0.2625 15.9387 0 16.2581 0H19.7419C20.0613 0 20.3226 0.2625 20.3226 0.583333ZM34.211 27.6465L35.953 23.5632C35.9843 23.4908 36 23.4127 36 23.3333V22.75C36 22.4274 35.7405 22.1667 35.4194 22.1667H0.580645C0.259548 22.1667 0 22.4274 0 22.75V23.3333C0 23.4127 0.0156774 23.4908 0.0470322 23.5632L1.78897 27.6465C1.88013 27.8612 2.09032 28 2.32258 28H33.6774C33.9097 28 34.1199 27.8612 34.211 27.6465ZM33.6774 19.8333V21H2.32258V19.8333C2.32258 11.1475 9.35419 4.08333 18 4.08333C26.6458 4.08333 33.6774 11.1475 33.6774 19.8333ZM16.8329 7.62825C16.787 7.30975 16.4979 7.0875 16.175 7.13358C11.4666 7.81317 7.55013 11.0396 5.95568 15.5552C5.84826 15.8591 6.00677 16.1922 6.30871 16.2995C6.37374 16.3223 6.43877 16.3333 6.50323 16.3333C6.74187 16.3333 6.966 16.184 7.05019 15.9448C8.50006 11.8399 12.06 8.90692 16.3405 8.28917C16.6575 8.24308 16.8782 7.94733 16.8329 7.62825Z" fill="#3C9C5F"/>
</svg>
