<svg width="27" height="34" viewBox="0 0 27 34" fill="none" xmlns="http://www.w3.org/2000/svg">
    <path d="M6.51068 1.54114C8.87021 4.19516 10.17 7.2098 10.17 10.7623V11.7188H12.1231V10.7623C12.1231 6.72991 10.6479 3.25573 7.96993 0.244141L6.51068 1.54114Z" fill="#1B2A57"/>
    <path d="M16.0294 11.7188V10.7623C16.0294 7.2098 17.3292 4.19516 19.6887 1.54114L18.2295 0.244141C15.5516 3.25573 14.0763 6.72991 14.0763 10.7623V11.7188H16.0294Z" fill="#1B2A57"/>
    <path d="M23.595 5.04309L22.1357 3.74609L21.474 4.49072C19.2223 7.02191 17.9825 10.2825 17.9825 13.672H19.9357C19.9357 10.7624 21 7.96211 22.933 5.78773L23.595 5.04309Z" fill="#1B2A57"/>
    <path d="M6.26375 13.672H8.21688C8.21688 10.2825 6.9771 7.02191 4.72541 4.49072L4.06368 3.74609L2.60443 5.04309L3.26641 5.78773C5.19945 7.96211 6.26375 10.7624 6.26375 13.672Z" fill="#1B2A57"/>
    <path d="M13.0997 2.76185L11.7188 1.38092L13.0997 0L14.4806 1.38092L13.0997 2.76185Z" fill="#1B2A57"/>
    <path d="M24.8182 7.4082L26.1992 8.78913L24.8182 10.1701L23.4373 8.78913L24.8182 7.4082Z" fill="#1B2A57"/>
    <path d="M1.38092 10.1701L0 8.78913L1.38092 7.4082L2.76185 8.78913L1.38092 10.1701Z" fill="#1B2A57"/>
    <path d="M22.5401 15.625H3.6593L6.26348 20.5729H19.9359L22.5401 15.625Z" fill="#1B2A57"/>
    <path d="M18.8943 22.5264H7.30518L8.86768 25.4561H17.3315L18.8943 22.5264Z" fill="#1B2A57"/>
    <path d="M16.2898 27.4092H9.90961L13.0997 33.3337L16.2898 27.4092Z" fill="#1B2A57"/>
</svg>
