<svg width="20" height="20" viewBox="0 0 20 20" fill="none" xmlns="http://www.w3.org/2000/svg">
    <g clip-path="url(#clip0_392_1947)">
        <path d="M4.00002 5.33366H10C10.0884 5.33366 10.1732 5.29854 10.2357 5.23603C10.2982 5.17352 10.3334 5.08873 10.3334 5.00033C10.3334 4.91192 10.2982 4.82714 10.2357 4.76462C10.1732 4.70211 10.0884 4.66699 10 4.66699H4.00002C3.91161 4.66699 3.82683 4.70211 3.76432 4.76462C3.70181 4.82714 3.66669 4.91192 3.66669 5.00033C3.66669 5.08873 3.70181 5.17352 3.76432 5.23603C3.82683 5.29854 3.91161 5.33366 4.00002 5.33366Z" fill="#22C75E"/>
        <path d="M7.99998 14.0002C7.99913 13.7941 7.93462 13.5933 7.81528 13.4253C7.69595 13.2573 7.52762 13.1302 7.33331 13.0615V14.9389C7.52762 14.8702 7.69595 14.7431 7.81528 14.5751C7.93462 14.4071 7.99913 14.2063 7.99998 14.0002Z" fill="#22C75E"/>
        <path d="M7.00002 19.3333C8.44106 19.332 9.83832 18.838 10.96 17.9333C10.5247 17.3379 10.227 16.6533 10.0885 15.9288C9.95 15.2044 9.97411 14.4582 10.1591 13.7442C10.3441 13.0302 10.6853 12.3662 11.1582 11.8002C11.631 11.2341 12.2237 10.7801 12.8934 10.471C12.3436 8.70196 11.268 7.14238 9.80969 6H4.19035C2.14335 7.49233 0.666687 10.4167 0.666687 13C0.66854 14.6791 1.33639 16.289 2.52372 17.4763C3.71105 18.6636 5.32088 19.3315 7.00002 19.3333ZM7.00002 9.33333C7.08843 9.33333 7.17321 9.36845 7.23572 9.43096C7.29823 9.49348 7.33335 9.57826 7.33335 9.66667V9.7C7.70955 9.77737 8.04757 9.98206 8.29045 10.2796C8.53332 10.5771 8.6662 10.9493 8.66669 11.3333C8.66669 11.4217 8.63157 11.5065 8.56906 11.569C8.50654 11.6315 8.42176 11.6667 8.33335 11.6667C8.24495 11.6667 8.16016 11.6315 8.09765 11.569C8.03514 11.5065 8.00002 11.4217 8.00002 11.3333C7.99917 11.1272 7.93466 10.9265 7.81532 10.7584C7.69599 10.5904 7.52766 10.4634 7.33335 10.3947V12.3667C7.71012 12.4432 8.04884 12.6476 8.29215 12.9452C8.53545 13.2429 8.66836 13.6155 8.66836 14C8.66836 14.3845 8.53545 14.7571 8.29215 15.0548C8.04884 15.3524 7.71012 15.5568 7.33335 15.6333V15.6667C7.33335 15.7551 7.29823 15.8399 7.23572 15.9024C7.17321 15.9649 7.08843 16 7.00002 16C6.91161 16 6.82683 15.9649 6.76432 15.9024C6.70181 15.8399 6.66669 15.7551 6.66669 15.6667V15.6333C6.29049 15.556 5.95247 15.3513 5.70959 15.0538C5.46672 14.7562 5.33384 14.3841 5.33335 14C5.33335 13.9116 5.36847 13.8268 5.43098 13.7643C5.4935 13.7018 5.57828 13.6667 5.66669 13.6667C5.75509 13.6667 5.83988 13.7018 5.90239 13.7643C5.9649 13.8268 6.00002 13.9116 6.00002 14C6.00087 14.2061 6.06538 14.4069 6.18472 14.5749C6.30405 14.7429 6.47238 14.87 6.66669 14.9387V12.9667C6.28992 12.8902 5.9512 12.6858 5.70789 12.3881C5.46459 12.0904 5.33168 11.7178 5.33168 11.3333C5.33168 10.9489 5.46459 10.5763 5.70789 10.2786C5.9512 9.98091 6.28992 9.7765 6.66669 9.7V9.66667C6.66669 9.57826 6.70181 9.49348 6.76432 9.43096C6.82683 9.36845 6.91161 9.33333 7.00002 9.33333ZM2.20869 11.4147C2.18169 11.5213 2.15769 11.6283 2.13535 11.7347C2.12001 11.8098 2.0792 11.8774 2.01981 11.926C1.96041 11.9746 1.88608 12.0012 1.80935 12.0013C1.7864 12.0013 1.76351 11.999 1.74102 11.9943C1.69816 11.9854 1.65749 11.9681 1.62131 11.9435C1.58514 11.9188 1.55417 11.8873 1.53018 11.8507C1.50619 11.8141 1.48965 11.7731 1.4815 11.7301C1.47335 11.687 1.47376 11.6429 1.48269 11.6C1.50669 11.4842 1.53324 11.3687 1.56235 11.2533C1.5722 11.21 1.5906 11.1691 1.61648 11.133C1.64236 11.0969 1.6752 11.0663 1.71306 11.0431C1.75092 11.0199 1.79304 11.0044 1.83695 10.9977C1.88086 10.991 1.92568 10.9931 1.96875 11.0039C2.01183 11.0148 2.05231 11.0341 2.08781 11.0608C2.1233 11.0875 2.1531 11.1211 2.17546 11.1595C2.19781 11.1979 2.21227 11.2403 2.21797 11.2844C2.22368 11.3284 2.22052 11.3732 2.20869 11.416V11.4147ZM2.20869 10.3057C2.12777 10.2701 2.06427 10.204 2.03214 10.1216C2.00001 10.0393 2.00189 9.94761 2.03735 9.86667C2.40525 9.01546 2.9022 8.22607 3.51069 7.52633C3.75807 7.25221 4.0609 7.03381 4.3991 6.8856C4.73729 6.73739 5.10313 6.66277 5.47235 6.66667H6.33335C6.42176 6.66667 6.50654 6.70179 6.56906 6.7643C6.63157 6.82681 6.66669 6.91159 6.66669 7C6.66669 7.08841 6.63157 7.17319 6.56906 7.2357C6.50654 7.29821 6.42176 7.33333 6.33335 7.33333H5.47235C5.19776 7.32939 4.92547 7.38381 4.67349 7.493C4.42151 7.60218 4.19559 7.76363 4.01069 7.96667C3.44813 8.61467 2.98875 9.34546 2.64869 10.1333C2.63122 10.1735 2.60602 10.2098 2.57453 10.2402C2.54303 10.2706 2.50585 10.2945 2.46512 10.3105C2.42438 10.3266 2.38089 10.3344 2.33712 10.3336C2.29335 10.3329 2.25016 10.3235 2.21002 10.306L2.20869 10.3057Z" fill="#22C75E"/>
        <path d="M6 11.3332C6.00085 11.5393 6.06536 11.7401 6.1847 11.9081C6.30403 12.0761 6.47236 12.2032 6.66667 12.2719V10.3945C6.47236 10.4632 6.30403 10.5903 6.1847 10.7583C6.06536 10.9263 6.00085 11.1271 6 11.3332Z" fill="#22C75E"/>
        <path d="M15 10.667C14.143 10.667 13.3052 10.9211 12.5926 11.3973C11.8799 11.8734 11.3245 12.5502 10.9965 13.342C10.6686 14.1338 10.5827 15.0051 10.75 15.8457C10.9172 16.6863 11.3299 17.4584 11.9359 18.0645C12.5419 18.6705 13.314 19.0832 14.1546 19.2504C14.9952 19.4176 15.8665 19.3318 16.6583 19.0038C17.4501 18.6758 18.1269 18.1204 18.6031 17.4078C19.0792 16.6952 19.3334 15.8574 19.3334 15.0003C19.332 13.8515 18.8751 12.75 18.0627 11.9377C17.2503 11.1253 16.1489 10.6683 15 10.667ZM16.9547 13.167L14.6214 17.167C14.5956 17.2111 14.5602 17.2487 14.5176 17.2769C14.4751 17.3051 14.4266 17.3231 14.376 17.3297C14.3619 17.3318 14.3476 17.3332 14.3334 17.3337C14.245 17.3336 14.1602 17.2985 14.0977 17.236L13.0977 16.236C13.037 16.1731 13.0034 16.0889 13.0041 16.0015C13.0049 15.9141 13.0399 15.8305 13.1017 15.7687C13.1636 15.7069 13.2472 15.6719 13.3346 15.6711C13.422 15.6703 13.5062 15.7039 13.569 15.7647L14.2634 16.459L16.3787 12.8337C16.3991 12.7931 16.4276 12.757 16.4624 12.7279C16.4972 12.6987 16.5376 12.6769 16.5811 12.6639C16.6247 12.6509 16.6704 12.6469 16.7155 12.6522C16.7606 12.6575 16.8042 12.672 16.8435 12.6947C16.8829 12.7175 16.9171 12.7481 16.9442 12.7845C16.9713 12.821 16.9906 12.8626 17.001 12.9069C17.0114 12.9511 17.0127 12.997 17.0047 13.0417C16.9968 13.0865 16.9797 13.1291 16.9547 13.167Z" fill="#22C75E"/>
        <path d="M9.42468 4.00033L10.335 1.20033C9.25481 0.862984 8.13156 0.683354 7.00002 0.666992C5.86932 0.680429 4.747 0.863007 3.67035 1.20866L4.57568 4.00033H9.42468Z" fill="#22C75E"/>
    </g>
    <defs>
        <clipPath id="clip0_392_1947">
            <rect width="20" height="20" fill="white"/>
        </clipPath>
    </defs>
</svg>
