<svg width="18" height="19" viewBox="0 0 18 19" fill="none" xmlns="http://www.w3.org/2000/svg">
    <path d="M17.7497 10.04C17.9191 10.3022 17.9999 10.5959 17.9999 10.8866C17.9999 11.4126 17.7347 11.9281 17.2507 12.2232C16.7817 12.5095 16.5029 13.0175 16.5029 13.5569C16.5029 13.6213 16.5074 13.6858 16.5149 13.7517C16.5239 13.8176 16.5269 13.8836 16.5269 13.948C16.5269 14.7392 15.9275 15.4211 15.1183 15.502C14.8126 15.532 14.5294 15.6518 14.2986 15.8362C14.0678 16.0205 13.8895 16.2692 13.7921 16.5614C13.5719 17.2163 12.962 17.6269 12.3101 17.6269C12.1318 17.6269 11.9505 17.5969 11.7737 17.5325C11.6867 17.501 11.5983 17.477 11.5084 17.462C11.4185 17.4456 11.3286 17.4381 11.2387 17.4381C10.8251 17.4381 10.419 17.6029 10.1193 17.9101C9.81363 18.2248 9.40606 18.3821 8.99995 18.3821C8.59386 18.3821 8.18624 18.2248 7.88058 17.9101C7.58089 17.6029 7.17478 17.4381 6.76119 17.4381C6.5814 17.4381 6.40007 17.4695 6.22622 17.5325C6.0494 17.5969 5.86807 17.6269 5.68979 17.6269C5.03793 17.6269 4.42805 17.2163 4.20777 16.5614C4.11036 16.2692 3.93205 16.0205 3.70128 15.8362C3.4705 15.6518 3.18729 15.532 2.88161 15.502C2.0724 15.4211 1.47301 14.7393 1.47301 13.948C1.47301 13.8836 1.47601 13.8176 1.48499 13.7517C1.49249 13.6858 1.49699 13.6213 1.49699 13.5569C1.49699 13.0175 1.21826 12.5095 0.749239 12.2232C0.265222 11.9281 0 11.4126 0 10.8866C0 10.5959 0.0809253 10.3022 0.250224 10.04C0.418064 9.78072 0.500474 9.48701 0.500474 9.19031C0.500474 8.8966 0.418064 8.5999 0.250224 8.34218C0.0809002 8.07993 0 7.78622 0 7.49553C0 6.96957 0.265222 6.45558 0.749239 6.16037C1.21826 5.87413 1.49699 5.36465 1.49699 4.8252C1.49699 4.76078 1.49249 4.69634 1.48499 4.63041C1.47601 4.56446 1.47301 4.49853 1.47301 4.43411C1.47301 3.6429 2.0724 2.96107 2.88161 2.88015C3.18729 2.84867 3.4705 2.7303 3.70128 2.54598C3.93205 2.36314 4.11038 2.11443 4.20777 1.8222C4.42805 1.16735 5.03944 0.755278 5.6913 0.755278C5.8696 0.755278 6.04942 0.785248 6.22624 0.849666C6.40007 0.914084 6.5814 0.944078 6.76122 0.944078C7.1748 0.944078 7.58091 0.779234 7.88061 0.472039C8.18629 0.157347 8.59389 0 8.99997 0C9.40609 0 9.81366 0.157347 10.1194 0.472039C10.5494 0.912599 11.1968 1.06096 11.7737 0.849666C11.9505 0.785248 12.1303 0.755278 12.3087 0.755278C12.9605 0.755278 13.5719 1.16735 13.7922 1.8222C13.8896 2.11443 14.0679 2.36314 14.2987 2.54598C14.5294 2.73027 14.8127 2.84867 15.1184 2.88015C15.9276 2.96107 16.527 3.6429 16.527 4.43411C16.527 4.49853 16.524 4.56446 16.515 4.63041C16.5075 4.69634 16.503 4.76078 16.503 4.8252C16.503 5.36468 16.7817 5.87413 17.2507 6.16037C17.7348 6.45556 18 6.96954 18 7.49553C18 7.78622 17.9191 8.07995 17.7498 8.34218C17.5819 8.5999 17.4995 8.89663 17.4995 9.19031C17.4995 9.35365 17.525 9.51698 17.5759 9.67433C17.6164 9.80168 17.6748 9.92458 17.7497 10.04Z" fill="#1B2A57"/>
    <path d="M18 10.887C18 11.4129 17.7347 11.9284 17.2507 12.2236C16.7817 12.5098 16.5029 13.0178 16.5029 13.5573C16.5029 13.6217 16.5074 13.6861 16.5149 13.7521C16.524 13.818 16.5269 13.884 16.5269 13.9484C16.5269 14.7396 15.9275 15.4214 15.1183 15.5023C14.8126 15.5323 14.5294 15.6522 14.2986 15.8365C14.0679 16.0208 13.8896 16.2696 13.7921 16.5618C13.5719 17.2166 12.962 17.6272 12.3101 17.6272C12.1318 17.6272 11.9505 17.5973 11.7737 17.5328C11.6868 17.5013 11.5984 17.4774 11.5084 17.4624L4.14932 10.1048C3.77021 9.72413 3.77021 9.10675 4.14932 8.72764C4.1733 8.70365 4.19728 8.68118 4.22275 8.6602C4.60488 8.3485 5.16982 8.36949 5.52792 8.72764L7.38908 10.5888L12.2502 5.72763C12.2742 5.70516 12.2982 5.68269 12.3237 5.66171C12.7058 5.3485 13.2707 5.37099 13.6289 5.72763L17.5759 9.67468C17.6164 9.80206 17.6748 9.92493 17.7498 10.0403C17.9191 10.3025 18 10.5962 18 10.887Z" fill="white" fill-opacity="0.08"/>
    <path d="M13.6282 5.72764C13.2478 5.3473 12.6311 5.3473 12.2507 5.72764L7.38943 10.5889L5.52725 8.72678C5.14685 8.34647 4.5301 8.34647 4.14978 8.72678C3.76941 9.10718 3.76941 9.72386 4.14978 10.1043L6.70069 12.6551C6.8909 12.8453 7.14014 12.9404 7.38943 12.9404C7.63873 12.9404 7.88797 12.8453 8.07818 12.6551L13.6282 7.10513C14.0085 6.72471 14.0085 6.10806 13.6282 5.72764Z" fill="white"/>
</svg>
