<svg width="30" height="30" viewBox="0 0 30 30" fill="none" xmlns="http://www.w3.org/2000/svg">
    <g clip-path="url(#clip0_392_3088)">
        <path d="M14.4404 16.8447H15.9641V24.0327H14.4404V16.8447Z" fill="#5B5476"/>
        <path d="M15.2024 16.8447H15.9644V24.0327H15.2024V16.8447Z" fill="#3F3B5B"/>
        <path d="M15.9643 24.2473H14.4406C14.3223 24.2473 14.2263 24.1514 14.2263 24.0331V16.8451C14.2263 16.7268 14.3223 16.6309 14.4406 16.6309H15.9643C16.0826 16.6309 16.1786 16.7268 16.1786 16.8451V24.0331C16.1786 24.1514 16.0826 24.2473 15.9643 24.2473ZM14.6549 23.8188H15.75V17.0594H14.6549V23.8188Z" fill="#0F0F0F"/>
        <path d="M2.84937 7.42285H7.63508V23.9786H2.84937V7.42285Z" fill="#FFD9B0"/>
        <path d="M7.6349 7.42285V23.9771H4.80922C5.26639 22.0286 5.55211 19.3372 5.55211 16.3629C5.55211 12.6399 5.10638 9.35714 4.4292 7.42285H7.6349Z" fill="#EDB57E"/>
        <path d="M23.0405 7.42285H27.8262V23.9786H23.0405V7.42285Z" fill="#FFD9B0"/>
        <path d="M29.0521 24.8157V28.5199C29.0521 28.98 28.6778 29.3571 28.2178 29.3571H2.46066C1.99777 29.3571 1.62354 28.98 1.62354 28.5199V24.8157C1.62354 24.3528 1.99777 23.9785 2.46066 23.9785H28.2178C28.6778 23.9785 29.0521 24.3528 29.0521 24.8157Z" fill="#C3C9FB"/>
        <path d="M29.0521 25.5566V28.5195C29.0521 28.9796 28.6778 29.3567 28.2178 29.3567H2.46066C1.99777 29.3567 1.62354 28.9796 1.62354 28.5195V26.0539C4.48347 27.1853 9.3178 27.9282 14.7978 27.9282C21.0435 27.9282 26.4521 26.9625 29.0521 25.5566Z" fill="#8693E2"/>
        <path d="M29.052 6.10031V6.91169C29.052 7.19461 28.8234 7.42313 28.5405 7.42313H2.35763C2.07478 7.42313 1.84619 7.19461 1.84619 6.91169V6.10031C1.84619 5.82031 2.07478 5.58887 2.35763 5.58887H28.5405C28.8234 5.58887 29.052 5.82031 29.052 6.10031Z" fill="#C3C9FB"/>
        <path d="M29.052 6.49763V6.91197C29.052 7.19489 28.8234 7.42341 28.5405 7.42341H2.35763C2.07478 7.42341 1.84619 7.19489 1.84619 6.91197V6.10059C1.84619 5.84919 2.03195 5.63491 2.27476 5.59766V5.99484C2.27476 6.27776 2.50335 6.50628 2.7862 6.50628H28.9691C28.9976 6.50628 29.0262 6.50349 29.052 6.49763Z" fill="#8693E2"/>
        <path d="M28.0358 5.58914C27.1544 3.51792 21.9699 1.92578 15.6873 1.92578C9.4048 1.92578 4.22025 3.51792 3.33887 5.58914H28.0358Z" fill="#C3C9FB"/>
        <path d="M28.0348 5.58873H3.33765C3.55765 5.07157 4.04621 4.5858 4.74906 4.14872C7.03191 4.643 10.4576 4.95731 14.2862 4.95731C19.3347 4.95731 23.6805 4.40876 25.6319 3.62305C26.8748 4.18583 27.7233 4.85728 28.0348 5.58873Z" fill="#8693E2"/>
        <path d="M28.2176 29.5719H2.46052C1.88086 29.5719 1.40918 29.1002 1.40918 28.5204V24.8161C1.40918 24.2363 1.88086 23.7646 2.46052 23.7646H28.2176C28.7959 23.7646 29.2663 24.2363 29.2663 24.8161V28.5204C29.2663 29.1002 28.7959 29.5719 28.2176 29.5719ZM2.46052 24.1932C2.11719 24.1932 1.83775 24.4727 1.83775 24.8161V28.5204C1.83775 28.8638 2.11719 29.1433 2.46052 29.1433H28.2176C28.5596 29.1433 28.8378 28.8638 28.8378 28.5204V24.8161C28.8378 24.4727 28.5596 24.1932 28.2176 24.1932H2.46052Z" fill="#0F0F0F"/>
        <path d="M28.5407 7.63686H2.35781C1.95769 7.63686 1.63208 7.31131 1.63208 6.91113V6.09975C1.63208 5.69957 1.95769 5.37402 2.35781 5.37402H28.5407C28.9408 5.37402 29.2664 5.69957 29.2664 6.09975V6.91113C29.2664 7.31131 28.9408 7.63686 28.5407 7.63686ZM2.35781 5.80259C2.19402 5.80259 2.06065 5.9359 2.06065 6.09975V6.91113C2.06065 7.07499 2.19402 7.20829 2.35781 7.20829H28.5407C28.7045 7.20829 28.8378 7.07499 28.8378 6.91113V6.09975C28.8378 5.9359 28.7045 5.80259 28.5407 5.80259H2.35781Z" fill="#0F0F0F"/>
        <path d="M28.0356 5.80385H3.33879C3.2668 5.80385 3.1997 5.76779 3.16008 5.70773C3.12032 5.64774 3.11348 5.57185 3.14166 5.50565C4.07707 3.30741 9.35329 1.71191 15.6871 1.71191C22.0213 1.71191 27.2975 3.30741 28.2328 5.50565C28.2609 5.57185 28.2541 5.64774 28.2143 5.70773C28.1747 5.76779 28.1076 5.80385 28.0356 5.80385ZM3.69677 5.37528H27.6776C26.4571 3.5113 21.4542 2.14049 15.6871 2.14049C9.9204 2.14049 4.91747 3.5113 3.69677 5.37528Z" fill="#0F0F0F"/>
        <path d="M7.63501 24.1932H2.8493C2.73099 24.1932 2.63501 24.0973 2.63501 23.9789V7.42327C2.63501 7.3049 2.73099 7.20898 2.8493 7.20898H7.63501C7.75331 7.20898 7.8493 7.3049 7.8493 7.42327V23.9789C7.8493 24.0973 7.75331 24.1932 7.63501 24.1932ZM3.06358 23.7646H7.42072V7.63756H3.06358V23.7646Z" fill="#0F0F0F"/>
        <path d="M2.84951 24.1695C2.77516 24.1695 2.70275 24.1306 2.66327 24.0613C2.60454 23.9586 2.64039 23.8276 2.74321 23.769L7.18978 21.2323L2.74949 18.8906C2.68168 18.855 2.6383 18.7859 2.63523 18.7095C2.6323 18.633 2.67024 18.5608 2.73498 18.5199L7.19926 15.6992L2.74321 13.1571C2.67527 13.1184 2.63383 13.0456 2.63509 12.9674C2.63648 12.8892 2.68029 12.8179 2.74935 12.7815L7.2075 10.4304L2.73498 7.60449C2.63481 7.54129 2.60495 7.4089 2.66815 7.30887C2.73163 7.20863 2.86416 7.17899 2.96377 7.24218L7.74949 10.266C7.81422 10.3068 7.85217 10.379 7.84924 10.4555C7.84617 10.5319 7.80278 10.601 7.73512 10.6366L3.29469 12.9784L7.65113 15.4637C7.68127 15.4659 7.71112 15.4745 7.73847 15.4896C7.80697 15.5273 7.84938 15.5993 7.84938 15.6773C7.84938 15.7537 7.80878 15.8362 7.74265 15.8745C7.72382 15.8855 7.70373 15.8943 7.68308 15.9005L3.27697 18.6844L7.73498 21.0354C7.80418 21.0718 7.84798 21.1431 7.84938 21.2213C7.85063 21.2995 7.8092 21.3723 7.74126 21.411L2.95554 24.1413C2.92206 24.1604 2.88551 24.1695 2.84951 24.1695Z" fill="#0F0F0F"/>
        <path d="M7.6349 24.1695C7.59891 24.1695 7.56236 24.1604 7.52887 24.1413L2.74316 21.411C2.67522 21.3723 2.63378 21.2995 2.63504 21.2213C2.63643 21.1431 2.68024 21.0718 2.74943 21.0354L7.20745 18.6844L2.8224 15.9138C2.79436 15.9102 2.76687 15.9011 2.74176 15.8864C2.67563 15.8481 2.63504 15.7776 2.63504 15.7012C2.63504 15.6231 2.67745 15.5393 2.74595 15.5015C2.76701 15.49 2.78961 15.481 2.81263 15.4754L7.18973 12.9784L2.7493 10.6366C2.68163 10.601 2.63825 10.5319 2.63518 10.4555C2.63225 10.379 2.67019 10.3068 2.73493 10.266L7.52064 7.24218C7.62025 7.17899 7.75293 7.20863 7.81626 7.30887C7.87946 7.4089 7.84961 7.54129 7.74944 7.60449L3.27692 10.4304L7.73507 12.7815C7.80413 12.8179 7.84793 12.8892 7.84933 12.9674C7.85058 13.0456 7.80915 13.1184 7.74121 13.1571L3.28515 15.6992L7.74944 18.5199C7.81417 18.5608 7.85212 18.633 7.84919 18.7095C7.84612 18.7859 7.80273 18.855 7.73493 18.8906L3.29464 21.2323L7.74121 23.769C7.84402 23.8276 7.87988 23.9586 7.82115 24.0613C7.78166 24.1306 7.70926 24.1695 7.6349 24.1695Z" fill="#0F0F0F"/>
        <path d="M27.8261 7.42285V23.9771H25.0004C25.4576 22.0286 25.7433 19.3372 25.7433 16.3629C25.7433 12.6399 25.2975 9.35714 24.6204 7.42285H27.8261Z" fill="#EDB57E"/>
        <path d="M27.8262 24.1932H23.0405C22.9222 24.1932 22.8262 24.0973 22.8262 23.9789V7.42327C22.8262 7.3049 22.9222 7.20898 23.0405 7.20898H27.8262C27.9445 7.20898 28.0405 7.3049 28.0405 7.42327V23.9789C28.0405 24.0973 27.9445 24.1932 27.8262 24.1932ZM23.2547 23.7646H27.6119V7.63756H23.2547V23.7646Z" fill="#0F0F0F"/>
        <path d="M23.0407 24.1695C22.9663 24.1695 22.8939 24.1306 22.8544 24.0613C22.7957 23.9586 22.8316 23.8276 22.9344 23.769L27.3809 21.2323L22.9406 18.8906C22.8728 18.855 22.8295 18.7859 22.8264 18.7095C22.8235 18.633 22.8614 18.5608 22.9261 18.5199L27.3904 15.6992L22.9344 13.1571C22.8664 13.1184 22.825 13.0456 22.8263 12.9674C22.8276 12.8892 22.8715 12.8179 22.9405 12.7815L27.3987 10.4304L22.9261 7.60449C22.826 7.54129 22.7961 7.4089 22.8593 7.30887C22.9228 7.20863 23.0553 7.17899 23.1549 7.24218L27.9407 10.266C28.0054 10.3068 28.0433 10.379 28.0404 10.4555C28.0373 10.5319 27.9939 10.601 27.9263 10.6366L23.4858 12.9784L27.8423 15.4637C27.8724 15.4659 27.9023 15.4745 27.9296 15.4896C27.9981 15.5273 28.0405 15.5993 28.0405 15.6773C28.0405 15.7537 27.9999 15.8362 27.9338 15.8745C27.915 15.8855 27.8949 15.8943 27.8742 15.9005L23.4681 18.6844L27.9261 21.0354C27.9953 21.0718 28.0391 21.1431 28.0405 21.2213C28.0418 21.2995 28.0004 21.3723 27.9324 21.411L23.1467 24.1413C23.1132 24.1604 23.0767 24.1695 23.0407 24.1695Z" fill="#0F0F0F"/>
        <path d="M27.8261 24.1695C27.7901 24.1695 27.7535 24.1604 27.72 24.1413L22.9343 21.411C22.8664 21.3723 22.8249 21.2995 22.8262 21.2213C22.8276 21.1431 22.8714 21.0718 22.9406 21.0354L27.3986 18.6844L23.0136 15.9138C22.9855 15.9102 22.958 15.9011 22.9329 15.8864C22.8668 15.8481 22.8262 15.7776 22.8262 15.7012C22.8262 15.6231 22.8686 15.5393 22.9371 15.5015C22.9582 15.49 22.9808 15.481 23.0038 15.4754L27.3809 12.9784L22.9405 10.6366C22.8728 10.601 22.8294 10.5319 22.8263 10.4555C22.8234 10.379 22.8614 10.3068 22.9261 10.266L27.7118 7.24218C27.8114 7.17899 27.9441 7.20863 28.0074 7.30887C28.0706 7.4089 28.0408 7.54129 27.9406 7.60449L23.4681 10.4304L27.9262 12.7815C27.9953 12.8179 28.0391 12.8892 28.0405 12.9674C28.0417 13.0456 28.0003 13.1184 27.9324 13.1571L23.4763 15.6992L27.9406 18.5199C28.0053 18.5608 28.0433 18.633 28.0403 18.7095C28.0373 18.7859 27.9939 18.855 27.9261 18.8906L23.4858 21.2323L27.9324 23.769C28.0352 23.8276 28.071 23.9586 28.0123 24.0613C27.9728 24.1306 27.9004 24.1695 27.8261 24.1695Z" fill="#0F0F0F"/>
        <path d="M8.29778 19.868V28.1938C8.29778 28.8366 7.77776 29.3566 7.13777 29.3566H2.78348C2.14349 29.3566 1.62354 28.8366 1.62354 28.1938V19.868C1.62354 19.228 2.14349 18.708 2.78348 18.708H7.13777C7.77776 18.708 8.29778 19.228 8.29778 19.868Z" fill="#FF84A0"/>
        <path d="M8.29778 19.868V28.1938C8.29778 28.8366 7.77776 29.3566 7.13777 29.3566H2.78348C2.14349 29.3566 1.62354 28.8366 1.62354 28.1938V26.2337C2.12633 27.4594 2.88923 28.2423 3.74351 28.2423C5.25209 28.2423 6.47775 25.8051 6.47775 22.7966C6.47775 21.168 6.11782 19.7052 5.54918 18.708H7.13777C7.77776 18.708 8.29778 19.228 8.29778 19.868Z" fill="#F76189"/>
        <path d="M4.96038 22.7499C5.68198 22.7499 6.26695 22.1649 6.26695 21.4433C6.26695 20.7217 5.68198 20.1367 4.96038 20.1367C4.23878 20.1367 3.65381 20.7217 3.65381 21.4433C3.65381 22.1649 4.23878 22.7499 4.96038 22.7499Z" fill="white"/>
        <path d="M6.26625 21.4431C6.26625 22.166 5.68338 22.7517 4.96052 22.7517C4.42906 22.7517 3.97189 22.4346 3.76904 21.9774C3.96338 22.0917 4.1891 22.1574 4.43192 22.1574C5.15192 22.1574 5.73765 21.5746 5.73765 20.8517C5.73765 20.6603 5.69761 20.4803 5.6234 20.3174C6.00907 20.546 6.26625 20.966 6.26625 21.4431Z" fill="#DDDDDD"/>
        <path d="M4.96045 22.0361C5.28756 22.0361 5.55274 21.771 5.55274 21.4439C5.55274 21.1167 5.28756 20.8516 4.96045 20.8516C4.63334 20.8516 4.36816 21.1167 4.36816 21.4439C4.36816 21.771 4.63334 22.0361 4.96045 22.0361Z" fill="#5B5476"/>
        <path d="M4.96038 27.9286C5.92845 27.9286 6.71323 27.1438 6.71323 26.1757C6.71323 25.2076 5.92845 24.4229 4.96038 24.4229C3.9923 24.4229 3.20752 25.2076 3.20752 26.1757C3.20752 27.1438 3.9923 27.9286 4.96038 27.9286Z" fill="white"/>
        <path d="M6.71488 26.177C6.71488 27.1427 5.92917 27.9284 4.96062 27.9284C4.30633 27.9284 3.73776 27.5713 3.43774 27.0399C3.64631 27.1198 3.87204 27.1599 4.10634 27.1512C5.07488 27.1141 5.83207 26.3027 5.79489 25.3341C5.78345 25.0427 5.70344 24.7712 5.5663 24.5342C6.23776 24.7771 6.71488 25.4227 6.71488 26.177Z" fill="#DDDDDD"/>
        <path d="M4.96041 26.9526C5.3893 26.9526 5.73698 26.6049 5.73698 26.176C5.73698 25.7471 5.3893 25.3994 4.96041 25.3994C4.53152 25.3994 4.18384 25.7471 4.18384 26.176C4.18384 26.6049 4.53152 26.9526 4.96041 26.9526Z" fill="#5B5476"/>
        <path d="M5.73776 26.1766C5.73776 26.6052 5.38919 26.9509 4.96062 26.9509C4.62057 26.9509 4.32914 26.7337 4.22632 26.428C4.30347 26.4509 4.38348 26.4651 4.46634 26.4651C4.89491 26.4651 5.24348 26.1166 5.24348 25.6881C5.24348 25.5995 5.22918 25.5166 5.20344 25.4365C5.51203 25.5395 5.73776 25.8309 5.73776 26.1766Z" fill="#3F3B5B"/>
        <path d="M7.13769 29.5713H2.78334C2.02567 29.5713 1.40918 28.9535 1.40918 28.1942V19.8684C1.40918 19.1106 2.02567 18.4941 2.78334 18.4941H7.13769C7.89551 18.4941 8.512 19.1106 8.512 19.8684V28.1942C8.512 28.9535 7.89551 29.5713 7.13769 29.5713ZM2.78334 18.9227C2.262 18.9227 1.83775 19.347 1.83775 19.8684V28.1942C1.83775 28.7172 2.262 29.1427 2.78334 29.1427H7.13769C7.65918 29.1427 8.08343 28.7172 8.08343 28.1942V19.8684C8.08343 19.347 7.65918 18.9227 7.13769 18.9227H2.78334Z" fill="#0F0F0F"/>
        <path d="M4.96048 22.9644C4.1219 22.9644 3.4397 22.2822 3.4397 21.4436C3.4397 20.6051 4.1219 19.9229 4.96048 19.9229C5.79907 19.9229 6.48127 20.6051 6.48127 21.4436C6.48127 22.2822 5.79907 22.9644 4.96048 22.9644ZM4.96048 20.3514C4.35822 20.3514 3.86827 20.8414 3.86827 21.4436C3.86827 22.0459 4.35822 22.5359 4.96048 22.5359C5.56274 22.5359 6.0527 22.0459 6.0527 21.4436C6.0527 20.8414 5.56274 20.3514 4.96048 20.3514Z" fill="#0F0F0F"/>
        <path d="M4.96055 22.2497C4.5158 22.2497 4.15405 21.8879 4.15405 21.4432C4.15405 20.9985 4.5158 20.6367 4.96055 20.6367C5.40531 20.6367 5.76706 20.9985 5.76706 21.4432C5.76706 21.8879 5.40531 22.2497 4.96055 22.2497ZM4.96055 21.0653C4.75213 21.0653 4.58262 21.2349 4.58262 21.4432C4.58262 21.6516 4.75213 21.8211 4.96055 21.8211C5.16898 21.8211 5.33848 21.6516 5.33848 21.4432C5.33848 21.2349 5.16898 21.0653 4.96055 21.0653Z" fill="#0F0F0F"/>
        <path d="M4.96048 28.1423C3.8758 28.1423 2.99341 27.2598 2.99341 26.1752C2.99341 25.0905 3.8758 24.208 4.96048 24.208C6.04517 24.208 6.9277 25.0905 6.9277 26.1752C6.9277 27.2598 6.04517 28.1423 4.96048 28.1423ZM4.96048 24.6366C4.11213 24.6366 3.42198 25.3268 3.42198 26.1752C3.42198 27.0235 4.11213 27.7137 4.96048 27.7137C5.80884 27.7137 6.49913 27.0235 6.49913 26.1752C6.49913 25.3268 5.80884 24.6366 4.96048 24.6366Z" fill="#0F0F0F"/>
        <path d="M4.96041 27.1664C4.41396 27.1664 3.96948 26.7219 3.96948 26.1755C3.96948 25.6291 4.41396 25.1846 4.96041 25.1846C5.50687 25.1846 5.95135 25.6291 5.95135 26.1755C5.95135 26.7219 5.50687 27.1664 4.96041 27.1664ZM4.96041 25.6131C4.65029 25.6131 4.39805 25.8654 4.39805 26.1755C4.39805 26.4856 4.65029 26.7379 4.96041 26.7379C5.27054 26.7379 5.52277 26.4856 5.52277 26.1755C5.52277 25.8654 5.27054 25.6131 4.96041 25.6131Z" fill="#0F0F0F"/>
        <path d="M29.0532 19.868V28.1938C29.0532 28.8366 28.5331 29.3566 27.8931 29.3566H23.5389C22.8989 29.3566 22.3789 28.8366 22.3789 28.1938V19.868C22.3789 19.228 22.8989 18.708 23.5389 18.708H27.8931C28.5331 18.708 29.0532 19.228 29.0532 19.868Z" fill="#FF84A0"/>
        <path d="M29.0532 19.868V28.1938C29.0532 28.8366 28.5331 29.3566 27.8931 29.3566H23.5389C22.8989 29.3566 22.3789 28.8366 22.3789 28.1938V26.2337C22.8817 27.4594 23.6446 28.2423 24.4989 28.2423C26.0075 28.2423 27.2331 25.8051 27.2331 22.7966C27.2331 21.168 26.8732 19.7052 26.3045 18.708H27.8931C28.5331 18.708 29.0532 19.228 29.0532 19.868Z" fill="#F76189"/>
        <path d="M25.7158 22.7499C26.4374 22.7499 27.0223 22.1649 27.0223 21.4433C27.0223 20.7217 26.4374 20.1367 25.7158 20.1367C24.9942 20.1367 24.4092 20.7217 24.4092 21.4433C24.4092 22.1649 24.9942 22.7499 25.7158 22.7499Z" fill="white"/>
        <path d="M27.0216 21.4431C27.0216 22.166 26.4388 22.7517 25.7159 22.7517C25.1844 22.7517 24.7273 22.4346 24.5244 21.9774C24.7187 22.0917 24.9445 22.1574 25.1873 22.1574C25.9073 22.1574 26.493 21.5746 26.493 20.8517C26.493 20.6603 26.453 20.4803 26.3788 20.3174C26.7644 20.546 27.0216 20.966 27.0216 21.4431Z" fill="#DDDDDD"/>
        <path d="M25.7158 22.0361C26.0429 22.0361 26.3081 21.771 26.3081 21.4439C26.3081 21.1167 26.0429 20.8516 25.7158 20.8516C25.3887 20.8516 25.1235 21.1167 25.1235 21.4439C25.1235 21.771 25.3887 22.0361 25.7158 22.0361Z" fill="#5B5476"/>
        <path d="M25.7157 27.9286C26.6838 27.9286 27.4686 27.1438 27.4686 26.1757C27.4686 25.2076 26.6838 24.4229 25.7157 24.4229C24.7477 24.4229 23.9629 25.2076 23.9629 26.1757C23.9629 27.1438 24.7477 27.9286 25.7157 27.9286Z" fill="white"/>
        <path d="M27.4703 26.177C27.4703 27.1427 26.6845 27.9284 25.716 27.9284C25.0617 27.9284 24.4931 27.5713 24.1931 27.0399C24.4017 27.1198 24.6274 27.1599 24.8617 27.1512C25.8303 27.1141 26.5874 26.3027 26.5503 25.3341C26.5388 25.0427 26.4588 24.7712 26.3217 24.5342C26.9931 24.7771 27.4703 25.4227 27.4703 26.177Z" fill="#DDDDDD"/>
        <path d="M25.7158 26.9526C26.1447 26.9526 26.4924 26.6049 26.4924 26.176C26.4924 25.7471 26.1447 25.3994 25.7158 25.3994C25.2869 25.3994 24.9392 25.7471 24.9392 26.176C24.9392 26.6049 25.2869 26.9526 25.7158 26.9526Z" fill="#5B5476"/>
        <path d="M26.4931 26.1766C26.4931 26.6052 26.1446 26.9509 25.716 26.9509C25.3759 26.9509 25.0845 26.7337 24.9817 26.428C25.0588 26.4509 25.1388 26.4651 25.2217 26.4651C25.6503 26.4651 25.9988 26.1166 25.9988 25.6881C25.9988 25.5995 25.9845 25.5166 25.9588 25.4365C26.2674 25.5395 26.4931 25.8309 26.4931 26.1766Z" fill="#3F3B5B"/>
        <path d="M27.8931 29.5713H23.5387C22.781 29.5713 22.1646 28.9535 22.1646 28.1942V19.8684C22.1646 19.1106 22.781 18.4941 23.5387 18.4941H27.8931C28.6509 18.4941 29.2674 19.1106 29.2674 19.8684V28.1942C29.2674 28.9535 28.6509 29.5713 27.8931 29.5713ZM23.5387 18.9227C23.0174 18.9227 22.5931 19.347 22.5931 19.8684V28.1942C22.5931 28.7172 23.0174 29.1427 23.5387 29.1427H27.8931C28.4146 29.1427 28.8388 28.7172 28.8388 28.1942V19.8684C28.8388 19.347 28.4146 18.9227 27.8931 18.9227H23.5387Z" fill="#0F0F0F"/>
        <path d="M25.7159 22.9644C24.8773 22.9644 24.1951 22.2822 24.1951 21.4436C24.1951 20.6051 24.8773 19.9229 25.7159 19.9229C26.5544 19.9229 27.2366 20.6051 27.2366 21.4436C27.2366 22.2822 26.5544 22.9644 25.7159 22.9644ZM25.7159 20.3514C25.1136 20.3514 24.6236 20.8414 24.6236 21.4436C24.6236 22.0459 25.1136 22.5359 25.7159 22.5359C26.3181 22.5359 26.8081 22.0459 26.8081 21.4436C26.8081 20.8414 26.3181 20.3514 25.7159 20.3514Z" fill="#0F0F0F"/>
        <path d="M25.7159 22.2497C25.2712 22.2497 24.9094 21.8879 24.9094 21.4432C24.9094 20.9985 25.2712 20.6367 25.7159 20.6367C26.1607 20.6367 26.5224 20.9985 26.5224 21.4432C26.5224 21.8879 26.1607 22.2497 25.7159 22.2497ZM25.7159 21.0653C25.5075 21.0653 25.338 21.2349 25.338 21.4432C25.338 21.6516 25.5075 21.8211 25.7159 21.8211C25.9244 21.8211 26.0939 21.6516 26.0939 21.4432C26.0939 21.2349 25.9244 21.0653 25.7159 21.0653Z" fill="#0F0F0F"/>
        <path d="M25.7159 28.1423C24.6312 28.1423 23.7488 27.2598 23.7488 26.1752C23.7488 25.0905 24.6312 24.208 25.7159 24.208C26.8005 24.208 27.6831 25.0905 27.6831 26.1752C27.6831 27.2598 26.8005 28.1423 25.7159 28.1423ZM25.7159 24.6366C24.8675 24.6366 24.1774 25.3268 24.1774 26.1752C24.1774 27.0235 24.8675 27.7137 25.7159 27.7137C26.5642 27.7137 27.2545 27.0235 27.2545 26.1752C27.2545 25.3268 26.5642 24.6366 25.7159 24.6366Z" fill="#0F0F0F"/>
        <path d="M25.7158 27.1664C25.1693 27.1664 24.7249 26.7219 24.7249 26.1755C24.7249 25.6291 25.1693 25.1846 25.7158 25.1846C26.2622 25.1846 26.7067 25.6291 26.7067 26.1755C26.7067 26.7219 26.2622 27.1664 25.7158 27.1664ZM25.7158 25.6131C25.4057 25.6131 25.1534 25.8654 25.1534 26.1755C25.1534 26.4856 25.4057 26.7379 25.7158 26.7379C26.0259 26.7379 26.2781 26.4856 26.2781 26.1755C26.2781 25.8654 26.0259 25.6131 25.7158 25.6131Z" fill="#0F0F0F"/>
        <path d="M15.5904 14.7197L12.265 17.5607C11.9288 17.8487 11.8746 18.3505 12.1426 18.702C12.4124 19.056 12.9087 19.1342 13.2754 18.8863L16.8962 16.4328L15.5904 14.7197Z" fill="#AFF2B6"/>
        <path d="M16.8949 16.4335L13.2753 18.8868C12.9086 19.1347 12.4123 19.0564 12.1425 18.7025C11.9454 18.4439 11.9238 18.103 12.0598 17.8287C12.065 17.8406 12.0746 17.8531 12.0823 17.8632C12.3521 18.2172 12.8484 18.2954 13.2151 18.0476L16.4528 15.8535L16.8949 16.4335Z" fill="#7FD685"/>
        <path d="M12.807 19.2448C12.4898 19.2448 12.1774 19.1018 11.9721 18.8324C11.6354 18.3904 11.7028 17.7606 12.1257 17.3985L15.4511 14.5573C15.4959 14.519 15.5538 14.5007 15.6131 14.5071C15.6717 14.5134 15.7251 14.5435 15.7609 14.5903L17.0667 16.3034C17.1024 16.3502 17.1172 16.4097 17.1077 16.4678C17.0982 16.526 17.0651 16.5776 17.0164 16.6106L13.3956 19.0642C13.2154 19.186 13.0102 19.2448 12.807 19.2448ZM15.5573 15.0303L12.4043 17.7242C12.154 17.9385 12.1138 18.3112 12.313 18.5726C12.5121 18.8341 12.882 18.894 13.1554 18.7093L16.5884 16.383L15.5573 15.0303Z" fill="#0F0F0F"/>
        <path d="M17.4231 16.8453C18.6382 16.8453 19.6231 15.8603 19.6231 14.6453C19.6231 13.4303 18.6382 12.4453 17.4231 12.4453C16.2081 12.4453 15.2231 13.4303 15.2231 14.6453C15.2231 15.8603 16.2081 16.8453 17.4231 16.8453Z" fill="#E8FAFC"/>
        <path d="M18.756 16.3962C17.7919 17.131 16.4116 16.9448 15.6748 15.9782C15.2404 15.4083 15.1274 14.6926 15.3062 14.0522C15.3712 14.2051 15.4595 14.3522 15.5647 14.4903C16.3015 15.4569 17.6819 15.6431 18.6485 14.9063C19.0451 14.604 19.3097 14.1959 19.4325 13.7529C19.8392 14.6615 19.5846 15.7646 18.756 16.3962Z" fill="#ABECEF"/>
        <path d="M17.4282 17.0598C17.3194 17.0598 17.21 17.0524 17.1003 17.0377C16.4612 16.9514 15.894 16.6214 15.5031 16.1086C14.6963 15.0499 14.9011 13.5321 15.9597 12.7251C16.4725 12.3341 17.1073 12.1664 17.746 12.2526C18.3851 12.3388 18.9523 12.6687 19.3432 13.1816C19.7341 13.6945 19.902 14.3288 19.8157 14.9679C19.7295 15.607 19.3996 16.1742 18.8866 16.5651C18.4618 16.889 17.9534 17.0598 17.4282 17.0598ZM17.4191 12.6591C16.9871 12.6591 16.5689 12.7995 16.2195 13.0659C15.3488 13.7296 15.1804 14.978 15.8441 15.8488C16.1655 16.2706 16.632 16.542 17.1577 16.6129C17.6836 16.6838 18.2051 16.5458 18.6268 16.2243C19.0487 15.9028 19.3201 15.4362 19.3909 14.9106C19.4619 14.385 19.3238 13.8632 19.0023 13.4414C18.6808 13.0196 18.2143 12.7482 17.6886 12.6773C17.5985 12.6652 17.5084 12.6591 17.4191 12.6591Z" fill="#0F0F0F"/>
        <path d="M19.0795 16.8166C18.8586 16.985 18.5402 16.942 18.3717 16.7211L15.6734 13.1811C15.505 12.9602 15.5479 12.6417 15.7688 12.4733C15.9899 12.3048 16.3059 12.3497 16.4743 12.5706L19.1726 16.1106C19.341 16.3316 19.3005 16.6482 19.0795 16.8166Z" fill="#5B5476"/>
        <path d="M19.0801 16.8163C18.8591 16.9847 18.5406 16.9417 18.3722 16.7208L15.6739 13.1808C15.5055 12.9599 15.5484 12.6414 15.7694 12.4729C15.8423 12.4174 15.9253 12.3858 16.0099 12.377C15.9411 12.5366 15.9601 12.7284 16.073 12.8765L18.7714 16.4166C18.8843 16.5647 19.0642 16.634 19.2363 16.6098C19.2054 16.689 19.1529 16.7608 19.0801 16.8163Z" fill="#3F3B5B"/>
        <path d="M18.7757 17.1335C18.7431 17.1335 18.7103 17.1312 18.6775 17.1268C18.4867 17.101 18.3177 17.0029 18.2015 16.8505L15.5031 13.3105C15.2628 12.9951 15.3237 12.5429 15.6392 12.3025C15.7916 12.1861 15.9808 12.1367 16.1711 12.1632C16.3606 12.1897 16.5289 12.288 16.645 12.4403L19.3433 15.9803C19.5836 16.2958 19.5236 16.7472 19.2096 16.9866C19.0835 17.0827 18.9323 17.1335 18.7757 17.1335ZM16.0715 12.5849C16.0093 12.5849 15.9491 12.6051 15.8989 12.6433C15.7715 12.7405 15.7469 12.9232 15.8441 13.0507L18.5425 16.5908C18.6396 16.7183 18.8223 16.7428 18.9498 16.6458C19.076 16.5496 19.0995 16.3676 19.0023 16.24L16.3041 12.7001C16.257 12.6383 16.1888 12.5984 16.1119 12.5878C16.0984 12.5859 16.0849 12.5849 16.0715 12.5849Z" fill="#0F0F0F"/>
        <path d="M1.76189 15.7319C1.64359 15.7319 1.54761 15.636 1.54761 15.5176V11.101C1.54761 10.9826 1.64359 10.8867 1.76189 10.8867C1.8802 10.8867 1.97618 10.9826 1.97618 11.101V15.5176C1.97618 15.636 1.8802 15.7319 1.76189 15.7319Z" fill="#0F0F0F"/>
        <path d="M1.76189 10.4105C1.64359 10.4105 1.54761 10.3146 1.54761 10.1962V9.851C1.54761 9.73263 1.64359 9.63672 1.76189 9.63672C1.8802 9.63672 1.97618 9.73263 1.97618 9.851V10.1962C1.97618 10.3146 1.8802 10.4105 1.76189 10.4105Z" fill="#0F0F0F"/>
        <path d="M29.0532 17.8652C28.9348 17.8652 28.8389 17.7693 28.8389 17.6509V14.6449C28.8389 14.5266 28.9348 14.4307 29.0532 14.4307C29.1715 14.4307 29.2674 14.5266 29.2674 14.6449V17.6509C29.2674 17.7693 29.1715 17.8652 29.0532 17.8652Z" fill="#0F0F0F"/>
        <path d="M29.0532 13.9668C28.9348 13.9668 28.8389 13.8709 28.8389 13.7525V13.2338C28.8389 13.1154 28.9348 13.0195 29.0532 13.0195C29.1715 13.0195 29.2674 13.1154 29.2674 13.2338V13.7525C29.2674 13.8709 29.1715 13.9668 29.0532 13.9668Z" fill="#0F0F0F"/>
        <path d="M29.2659 2.84169C29.2659 3.34896 28.8556 3.75929 28.35 3.75929C27.8427 3.75929 27.4324 3.34896 27.4324 2.84169C27.4324 2.33611 27.8427 1.92578 28.35 1.92578C28.8556 1.92578 29.2659 2.33611 29.2659 2.84169Z" fill="#AFF2B6"/>
        <path d="M29.2659 2.84166C29.2659 3.34826 28.8546 3.75959 28.3501 3.75959C27.9539 3.75959 27.6141 3.50632 27.4863 3.15343C27.6249 3.23786 27.7894 3.28764 27.9648 3.28764C28.4714 3.28764 28.8827 2.87631 28.8827 2.36971C28.8827 2.26364 28.8654 2.15972 28.8308 2.06445C29.0906 2.22466 29.2659 2.51259 29.2659 2.84166Z" fill="#7FD685"/>
        <path d="M28.3499 3.97405C27.7257 3.97405 27.218 3.46631 27.218 2.84215C27.218 2.21896 27.7257 1.71191 28.3499 1.71191C28.973 1.71191 29.48 2.21896 29.48 2.84215C29.48 3.46631 28.973 3.97405 28.3499 3.97405ZM28.3499 2.14049C27.962 2.14049 27.6466 2.45522 27.6466 2.84215C27.6466 3.22998 27.962 3.54548 28.3499 3.54548C28.7367 3.54548 29.0514 3.22998 29.0514 2.84215C29.0514 2.45522 28.7367 2.14049 28.3499 2.14049Z" fill="#0F0F0F"/>
        <path d="M4.02817 2.35073C3.2314 2.51485 2.60466 3.14354 2.44058 3.94031C2.4307 3.98776 2.36743 3.98776 2.35753 3.94031C2.27649 3.54095 2.07879 3.18508 1.8 2.90826C1.52519 2.63151 1.16932 2.4318 0.769964 2.35073C0.722512 2.34086 0.722512 2.27759 0.769964 2.26771C1.16932 2.18665 1.52519 1.98697 1.80198 1.71018C2.07879 1.4334 2.27649 1.07753 2.35753 0.678167C2.36743 0.630715 2.4307 0.630715 2.44058 0.678167C2.52164 1.07753 2.71934 1.4334 2.99613 1.71018C3.27291 1.98697 3.62878 2.18665 4.02817 2.26771C4.0756 2.27759 4.0756 2.34086 4.02817 2.35073Z" fill="#DABCBC"/>
        <path d="M4.02886 2.35057C3.23041 2.51453 2.60407 3.14362 2.44007 3.94204C2.42932 3.98772 2.36751 3.98772 2.35672 3.94204C2.27876 3.56029 2.09868 3.21887 1.84058 2.95004C2.45888 2.83712 2.92934 2.31022 2.95622 1.66504C2.96698 1.68116 2.9831 1.69731 2.99654 1.71075C3.27345 1.98763 3.62831 2.18658 4.02886 2.26722C4.07454 2.27798 4.07454 2.34249 4.02886 2.35057Z" fill="#BC9595"/>
        <path d="M2.39907 4.19064C2.27644 4.19064 2.17306 4.10596 2.14767 3.98458C2.07638 3.63309 1.90409 3.31403 1.64907 3.06076C1.39432 2.80434 1.0761 2.63198 0.72733 2.56124C0.604841 2.53571 0.52002 2.43234 0.52002 2.30964C0.52002 2.18701 0.604841 2.08364 0.726353 2.05831C1.0754 1.98744 1.3946 1.81494 1.65046 1.55915C1.90465 1.30497 2.07652 0.98577 2.14753 0.636021C2.17306 0.513463 2.2763 0.428711 2.39907 0.428711C2.52197 0.42892 2.62535 0.513951 2.65046 0.635463C2.72161 0.98577 2.89349 1.30497 3.14767 1.55915C3.40353 1.81494 3.72273 1.98744 4.0708 2.05811C4.19329 2.08371 4.27797 2.18708 4.27797 2.30964C4.27797 2.43227 4.19329 2.53564 4.07192 2.56097C4.07178 2.56104 4.0715 2.56104 4.07136 2.56111C3.35596 2.70843 2.7982 3.26695 2.65032 3.98403C2.62535 4.10547 2.52183 4.1905 2.39907 4.19064C2.3992 4.19064 2.39907 4.19064 2.39907 4.19064ZM1.31968 2.30964C1.55266 2.41985 1.76639 2.5708 1.95208 2.75767C2.13832 2.94266 2.28899 3.15667 2.3992 3.39049C2.62256 2.9156 3.00467 2.53306 3.47872 2.30985C3.24575 2.19971 3.03132 2.0489 2.84466 1.86217C2.65911 1.67662 2.509 1.46282 2.39907 1.22963C2.28927 1.46261 2.13916 1.67648 1.95347 1.86217C1.76695 2.04876 1.55266 2.1995 1.31968 2.30964Z" fill="#0F0F0F"/>
    </g>
    <defs>
        <clipPath id="clip0_392_3088">
            <rect width="30" height="30" fill="white"/>
        </clipPath>
    </defs>
</svg>
