<svg width="31" height="31" viewBox="0 0 31 31" fill="none" xmlns="http://www.w3.org/2000/svg">
    <path d="M13.1915 18.6728C12.5113 17.9926 12.3527 17.8346 11.5139 16.9964V13.3407C11.5139 12.0715 12.1075 10.9411 13.0323 10.2112C13.7109 9.67551 14.5681 10.0664 15.5001 10.0664C16.4321 10.0664 17.2881 9.67545 17.9673 10.2112C18.0904 10.3083 18.2074 10.4127 18.3178 10.5231C19.0392 11.2445 19.4851 12.2405 19.4851 13.3407V16.9964C18.7211 17.7603 18.4661 17.7096 17.8087 18.6728" fill="#7A6D79"/>
    <path d="M17.9673 10.2118L15.5001 12.9988L13.0322 10.2118C13.7109 9.67618 14.5681 9.35645 15.5001 9.35645C16.4321 9.35645 17.288 9.67618 17.9673 10.2118Z" fill="#F5F8F9"/>
    <path d="M16.4646 9.47363C17.1776 9.65098 17.8147 10.0201 18.3177 10.5233C19.0392 11.2447 19.485 12.2407 19.485 13.341V13.7065" stroke="black" stroke-miterlimit="10" stroke-linecap="round" stroke-linejoin="round"/>
    <path d="M11.5139 13.7065V13.341C11.5139 11.4728 12.8 9.90492 14.5355 9.47363" stroke="black" stroke-miterlimit="10" stroke-linecap="round" stroke-linejoin="round"/>
    <path d="M17.839 5.94932V7.01706C17.839 7.66492 17.5754 8.25128 17.1495 8.67418C16.9528 8.87023 16.7206 9.03128 16.4642 9.14771V9.71113C16.4642 10.2438 16.0329 10.6757 15.5002 10.6757C14.967 10.6757 14.5356 10.2438 14.5356 9.71113V9.14771C13.7249 8.78035 13.1609 7.96474 13.1609 7.01706V5.29059C13.1609 5.29059 13.8269 4.99681 14.8035 4.9793C15.6571 4.96427 16.7483 5.16033 17.839 5.94932Z" fill="#FFDFCF"/>
    <path d="M17.1495 8.67437C16.9528 8.87042 16.7206 9.03147 16.4642 9.1479V9.71132C16.4642 10.244 16.0329 10.6759 15.5002 10.6759C14.967 10.6759 14.5356 10.244 14.5356 9.71132V9.1479C13.7249 8.78054 13.1609 7.96493 13.1609 7.01725V5.29078C13.1609 5.29078 13.8269 4.997 14.8035 4.97949V6.61669C14.8035 7.34296 15.2589 7.99143 15.9424 8.23819L17.1495 8.67437Z" fill="#FFCEBF"/>
    <path d="M17.839 5.29087V5.9502C16.8117 6.24519 15.6909 6.1034 14.8035 5.87783C13.8462 5.63354 13.1609 5.29087 13.1609 5.29087C13.1609 3.99937 14.2081 2.95215 15.5002 2.95215C15.6914 2.95215 15.8772 2.97509 16.0552 3.01849C16.4787 3.12164 16.8563 3.33943 17.1536 3.63738C17.5771 4.06027 17.839 4.64482 17.839 5.29087Z" fill="#7A6D79"/>
    <path d="M16.055 3.01849C15.3323 3.22299 14.8033 3.88776 14.8033 4.67621V5.87783C13.8459 5.63354 13.1606 5.29087 13.1606 5.29087C13.1606 3.99937 14.2079 2.95215 15.5 2.95215C15.6913 2.95215 15.8771 2.97509 16.055 3.01849Z" fill="#685E68"/>
    <path d="M17.8386 5.29087V7.01734C17.8386 7.96502 17.2752 8.78057 16.4644 9.148V9.71141C16.4644 10.244 16.0325 10.676 15.4999 10.676C14.9672 10.676 14.5353 10.2441 14.5353 9.71141V9.148C13.7246 8.78063 13.1611 7.96502 13.1611 7.01734V5.29087C13.1611 3.99876 14.2084 2.95215 15.4999 2.95215C16.1453 2.95215 16.7305 3.21394 17.1533 3.63683C17.5768 4.06027 17.8386 4.64482 17.8386 5.29087Z" stroke="black" stroke-miterlimit="10" stroke-linecap="round" stroke-linejoin="round"/>
    <path d="M13.1611 5.29102C13.1611 5.29102 15.7032 6.56314 17.8386 5.94999" stroke="black" stroke-miterlimit="10" stroke-linecap="round" stroke-linejoin="round"/>
    <path d="M15.5 13.7065V10.6758" stroke="black" stroke-miterlimit="10" stroke-linecap="round" stroke-linejoin="round"/>
    <path d="M13.032 10.2119L15.4998 12.9989L17.9671 10.2119" stroke="black" stroke-miterlimit="10" stroke-linecap="round" stroke-linejoin="round"/>
    <path d="M21.8167 15.4848L21.5947 16.9966L19.7259 29.7346H11.2739L9.18311 15.4848L15.5002 14.5957L21.8167 15.4848Z" fill="#FFE177"/>
    <path d="M21.5947 16.9966H11.514L12.8887 29.7346H11.2739L9.18311 15.4848L15.5002 14.5957L21.8167 15.4848L21.5947 16.9966Z" fill="#FECE85"/>
    <path d="M22.5213 13.7061H8.47842C8.20758 13.7061 7.98804 13.9256 7.98804 14.1964V14.9939C7.98804 15.2647 8.20758 15.4843 8.47842 15.4843H22.5213C22.7922 15.4843 23.0117 15.2647 23.0117 14.9939V14.1964C23.0118 13.9256 22.7922 13.7061 22.5213 13.7061Z" fill="#FFE177"/>
    <path d="M13.1409 15.4847H22.5212C22.7922 15.4847 23.0114 15.2656 23.0114 14.9946V14.1972C23.0114 13.9261 22.7922 13.707 22.5212 13.707H8.47854C8.20751 13.707 7.98779 13.9261 7.98779 14.1972V14.9946C7.98779 15.2656 8.20751 15.4847 8.47854 15.4847H11.0282" stroke="black" stroke-miterlimit="10" stroke-linecap="round" stroke-linejoin="round"/>
    <path d="M20.2244 10.5879L21.1859 11.5015V13.7067" stroke="black" stroke-miterlimit="10" stroke-linecap="round" stroke-linejoin="round"/>
    <path d="M10.7753 10.5879L9.81372 11.5015V13.7067" stroke="black" stroke-miterlimit="10" stroke-linecap="round" stroke-linejoin="round"/>
    <path d="M26.75 26.2021C24.679 26.2021 23 27.8811 23 29.9522C23 30.2445 23.2369 30.4814 23.5293 30.4814H29.9708C30.2631 30.4814 30.5001 30.2445 30.5001 29.9522C30.5001 27.8811 28.8211 26.2021 26.75 26.2021Z" fill="#DC8758"/>
    <path d="M25.2181 29.952C25.2181 30.0983 25.2777 30.2307 25.3731 30.3267C25.469 30.4227 25.6015 30.4817 25.7478 30.4817H23.5299C23.3836 30.4817 23.2512 30.4228 23.1552 30.3267C23.0599 30.2308 23.0002 30.0983 23.0002 29.952C23.0002 27.8811 24.6792 26.2021 26.7508 26.2021C27.1367 26.2021 27.5095 26.2604 27.8597 26.369C26.3297 26.8417 25.2181 28.2671 25.2181 29.952Z" fill="#C57A44"/>
    <path d="M27.8061 26.3525C29.3626 26.8087 30.5 28.2474 30.5 29.9514V29.9519C30.5 30.2441 30.263 30.4811 29.9707 30.4811H23.5295C23.2372 30.4811 23.0002 30.2442 23.0002 29.9519V29.9514C23.0002 28.2473 24.1376 26.8087 25.6941 26.3525" stroke="black" stroke-miterlimit="10" stroke-linecap="round" stroke-linejoin="round"/>
    <path d="M29.3169 21.6855V23.3201C29.3169 24.3351 28.7283 25.2116 27.8736 25.6281C27.8524 25.6386 27.8306 25.6486 27.8087 25.6585V26.2769C27.8087 26.8615 27.3347 27.3355 26.7501 27.3355C26.1655 27.3355 25.6915 26.8615 25.6915 26.2769V25.6585C24.8017 25.2553 24.1833 24.3602 24.1833 23.3201V21.6855H29.3169Z" fill="#FFDFCF"/>
    <path d="M27.8736 25.6281C27.8524 25.6386 27.8306 25.6486 27.8087 25.6585V26.2769C27.8087 26.8615 27.3347 27.3355 26.7501 27.3355C26.1655 27.3355 25.6915 26.8615 25.6915 26.2769V25.6585C24.8017 25.2553 24.1833 24.3602 24.1833 23.3201V21.6855H26.0437V23.4631C26.0437 24.5509 26.8355 25.4539 27.8736 25.6281Z" fill="#FFCEBF"/>
    <path d="M29.3169 21.4252V21.6853C29.3169 23.1035 28.1676 24.2521 26.7502 24.2521C26.5489 24.2521 26.3529 24.2289 26.1656 24.1852C25.6916 24.0746 25.2678 23.833 24.9355 23.5007C24.4707 23.0359 24.1833 22.3943 24.1833 21.6853V21.4252C24.1833 20.0071 25.3326 18.8584 26.7501 18.8584C27.0196 18.8584 27.2797 18.9001 27.5241 18.9776C27.9213 19.1027 28.2775 19.3225 28.5648 19.6098C29.0296 20.0746 29.3169 20.7161 29.3169 21.4252Z" fill="#7A6D79"/>
    <path d="M26.0438 21.0537V23.4629C26.0438 23.7165 26.0868 23.9595 26.1656 24.1852C25.6916 24.0746 25.2678 23.833 24.9355 23.5007C24.4707 23.0359 24.1833 22.3943 24.1833 21.6853V21.4252C24.1833 20.0071 25.3326 18.8584 26.7501 18.8584C27.0196 18.8584 27.2797 18.9001 27.5241 18.9776C26.6628 19.2741 26.0438 20.0917 26.0438 21.0537Z" fill="#685E68"/>
    <path d="M29.3169 21.4252V23.32C29.3169 24.3601 28.6985 25.2552 27.8087 25.6583V26.2767C27.8087 26.8613 27.3347 27.3353 26.7501 27.3353C26.1655 27.3353 25.6915 26.8613 25.6915 26.2767V25.6583C24.8017 25.2551 24.1833 24.3601 24.1833 23.32V21.4252C24.1833 20.0071 25.3326 18.8584 26.7501 18.8584C27.4585 18.8584 28.1007 19.1457 28.5648 19.6098C29.0296 20.0746 29.3169 20.7161 29.3169 21.4252Z" stroke="black" stroke-miterlimit="10" stroke-linecap="round" stroke-linejoin="round"/>
    <path d="M24.1833 21.4248V21.685C24.1833 22.394 24.4707 23.0356 24.9355 23.5003C25.3996 23.9644 26.0418 24.2517 26.7501 24.2517C28.1676 24.2517 29.3169 23.103 29.3169 21.685V21.4248" stroke="black" stroke-miterlimit="10" stroke-linecap="round" stroke-linejoin="round"/>
    <path d="M19.2498 26.2021C17.1787 26.2021 15.4998 27.8811 15.4998 29.9522C15.4998 30.2445 15.7367 30.4814 16.029 30.4814H22.4706C22.7629 30.4814 22.9998 30.2445 22.9998 29.9522C22.9998 27.8811 21.3209 26.2021 19.2498 26.2021Z" fill="#FE76A8"/>
    <path d="M17.7179 29.952C17.7179 30.0983 17.7775 30.2307 17.8728 30.3267C17.9688 30.4227 18.1012 30.4817 18.2476 30.4817H16.0297C15.8834 30.4817 15.751 30.4228 15.6549 30.3267C15.5596 30.2308 15.5 30.0983 15.5 29.952C15.5 27.8811 17.179 26.2021 19.2505 26.2021C19.6365 26.2021 20.0092 26.2604 20.3594 26.369C18.8294 26.8417 17.7179 28.2671 17.7179 29.952Z" fill="#FE5694"/>
    <path d="M20.3058 26.3525C21.8623 26.8087 22.9997 28.2474 22.9997 29.9514V29.9519C22.9997 30.2441 22.7628 30.4811 22.4705 30.4811H16.0293C15.737 30.4811 15.5 30.2442 15.5 29.9519V29.9514C15.5 28.2473 16.6374 26.8087 18.1939 26.3525" stroke="black" stroke-miterlimit="10" stroke-linecap="round" stroke-linejoin="round"/>
    <path d="M21.8166 21.6855V23.3201C21.8166 24.3351 21.2281 25.2116 20.3734 25.6281C20.3522 25.6386 20.3304 25.6486 20.3085 25.6585V26.2769C20.3085 26.8615 19.8345 27.3355 19.2499 27.3355C18.6653 27.3355 18.1912 26.8615 18.1912 26.2769V25.6585C17.3015 25.2553 16.6831 24.3602 16.6831 23.3201V21.6855H21.8166Z" fill="#FFDFCF"/>
    <path d="M20.3734 25.6281C20.3522 25.6386 20.3304 25.6486 20.3085 25.6585V26.2769C20.3085 26.8615 19.8345 27.3355 19.2499 27.3355C18.6653 27.3355 18.1912 26.8615 18.1912 26.2769V25.6585C17.3015 25.2553 16.6831 24.3602 16.6831 23.3201V21.6855H18.5435V23.4631C18.5435 24.5509 19.3353 25.4539 20.3734 25.6281Z" fill="#FFCEBF"/>
    <path d="M21.8167 21.4252V21.6853C21.8167 23.1035 20.6674 24.2521 19.2499 24.2521C19.0487 24.2521 18.8527 24.2289 18.6653 24.1852C18.1913 24.0746 17.7676 23.833 17.4352 23.5007C16.9704 23.0359 16.6831 22.3943 16.6831 21.6853V21.4252C16.6831 20.0071 17.8324 18.8584 19.2499 18.8584C19.5193 18.8584 19.7795 18.9001 20.0238 18.9776C20.4211 19.1027 20.7773 19.3225 21.0646 19.6098C21.5294 20.0746 21.8167 20.7161 21.8167 21.4252Z" fill="#AE6C6C"/>
    <path d="M18.5435 21.0537V23.4629C18.5435 23.7165 18.5866 23.9595 18.6653 24.1852C18.1913 24.0746 17.7676 23.833 17.4352 23.5007C16.9704 23.0359 16.6831 22.3943 16.6831 21.6853V21.4252C16.6831 20.0071 17.8324 18.8584 19.2499 18.8584C19.5193 18.8584 19.7795 18.9001 20.0238 18.9776C19.1625 19.2741 18.5435 20.0917 18.5435 21.0537Z" fill="#9B5E5E"/>
    <path d="M21.8166 21.4252V23.32C21.8166 24.3601 21.1983 25.2552 20.3085 25.6583V26.2767C20.3085 26.8613 19.8345 27.3353 19.2499 27.3353C18.6653 27.3353 18.1912 26.8613 18.1912 26.2767V25.6583C17.3015 25.2551 16.6831 24.3601 16.6831 23.32V21.4252C16.6831 20.0071 17.8324 18.8584 19.2499 18.8584C19.9583 18.8584 20.6005 19.1457 21.0645 19.6098C21.5293 20.0746 21.8166 20.7161 21.8166 21.4252Z" stroke="black" stroke-miterlimit="10" stroke-linecap="round" stroke-linejoin="round"/>
    <path d="M16.6831 21.4248V21.685C16.6831 22.394 16.9704 23.0356 17.4352 23.5003C17.8993 23.9644 18.5415 24.2517 19.2499 24.2517C20.6674 24.2517 21.8166 23.103 21.8166 21.685V21.4248" stroke="black" stroke-miterlimit="10" stroke-linecap="round" stroke-linejoin="round"/>
    <path d="M11.7498 26.2021C9.67872 26.2021 7.99976 27.8811 7.99976 29.9522C7.99976 30.2445 8.23668 30.4814 8.52901 30.4814H14.9706C15.2629 30.4814 15.4998 30.2445 15.4998 29.9522C15.4998 27.8811 13.8209 26.2021 11.7498 26.2021Z" fill="#8AC9FE"/>
    <path d="M10.2176 29.952C10.2176 30.0983 10.2772 30.2307 10.3726 30.3267C10.4686 30.4227 10.601 30.4817 10.7473 30.4817H8.52943C8.38311 30.4817 8.25074 30.4228 8.1547 30.3267C8.05939 30.2308 7.99976 30.0983 7.99976 29.952C7.99976 27.8811 9.67872 26.2021 11.7503 26.2021C12.1362 26.2021 12.509 26.2604 12.8592 26.369C11.3292 26.8417 10.2176 28.2671 10.2176 29.952Z" fill="#60B7FF"/>
    <path d="M12.8056 26.3525C14.3621 26.8087 15.4995 28.2474 15.4995 29.9514V29.9519C15.4995 30.2441 15.2626 30.4811 14.9703 30.4811H8.52901C8.23674 30.4811 7.99976 30.2442 7.99976 29.9519V29.9514C7.99976 28.2473 9.13716 26.8087 10.6936 26.3525" stroke="black" stroke-miterlimit="10" stroke-linecap="round" stroke-linejoin="round"/>
    <path d="M14.3164 21.6855V23.3201C14.3164 24.3351 13.7278 25.2116 12.8731 25.6281C12.852 25.6386 12.8301 25.6486 12.8083 25.6585V26.2769C12.8083 26.8615 12.3342 27.3355 11.7496 27.3355C11.165 27.3355 10.691 26.8615 10.691 26.2769V25.6585C9.80121 25.2553 9.18286 24.3602 9.18286 23.3201V21.6855H14.3164Z" fill="#FFDFCF"/>
    <path d="M12.8731 25.6281C12.852 25.6386 12.8301 25.6486 12.8083 25.6585V26.2769C12.8083 26.8615 12.3342 27.3355 11.7496 27.3355C11.165 27.3355 10.691 26.8615 10.691 26.2769V25.6585C9.80121 25.2553 9.18286 24.3602 9.18286 23.3201V21.6855H11.0432V23.4631C11.0433 24.5509 11.835 25.4539 12.8731 25.6281Z" fill="#FFCEBF"/>
    <path d="M14.3165 21.4252V21.6853C14.3165 23.1035 13.1671 24.2521 11.7497 24.2521C11.5484 24.2521 11.3524 24.2289 11.1651 24.1852C10.6911 24.0746 10.2673 23.833 9.93497 23.5007C9.47018 23.0359 9.18286 22.3943 9.18286 21.6853V21.4252C9.18286 20.0071 10.3322 18.8584 11.7496 18.8584C12.0191 18.8584 12.2792 18.9001 12.5236 18.9776C12.9208 19.1027 13.277 19.3225 13.5644 19.6098C14.0291 20.0746 14.3165 20.7161 14.3165 21.4252Z" fill="#7A6D79"/>
    <path d="M11.0433 21.0537V23.4629C11.0433 23.7165 11.0863 23.9595 11.1651 24.1852C10.6911 24.0746 10.2673 23.833 9.93497 23.5007C9.47018 23.0359 9.18286 22.3943 9.18286 21.6853V21.4252C9.18286 20.0071 10.3322 18.8584 11.7496 18.8584C12.0191 18.8584 12.2792 18.9001 12.5236 18.9776C11.6623 19.2741 11.0433 20.0917 11.0433 21.0537Z" fill="#685E68"/>
    <path d="M14.3164 21.4252V23.32C14.3164 24.3601 13.6981 25.2552 12.8083 25.6583V26.2767C12.8083 26.8613 12.3342 27.3353 11.7496 27.3353C11.165 27.3353 10.691 26.8613 10.691 26.2767V25.6583C9.80121 25.2551 9.18286 24.3601 9.18286 23.32V21.4252C9.18286 20.0071 10.3322 18.8584 11.7496 18.8584C12.458 18.8584 13.1002 19.1457 13.5643 19.6098C14.0291 20.0746 14.3164 20.7161 14.3164 21.4252Z" stroke="black" stroke-miterlimit="10" stroke-linecap="round" stroke-linejoin="round"/>
    <path d="M9.18286 21.4248V21.685C9.18286 22.394 9.47018 23.0356 9.93497 23.5003C10.3991 23.9644 11.0413 24.2517 11.7496 24.2517C13.1671 24.2517 14.3164 23.103 14.3164 21.685V21.4248" stroke="black" stroke-miterlimit="10" stroke-linecap="round" stroke-linejoin="round"/>
    <path d="M4.25004 26.2021C2.17897 26.2021 0.5 27.8811 0.5 29.9522C0.5 30.2445 0.73692 30.4814 1.02925 30.4814H7.47083C7.76311 30.4814 8.00009 30.2445 8.00009 29.9522C8.00003 27.8811 6.32112 26.2021 4.25004 26.2021Z" fill="#7A6D79"/>
    <path d="M2.71818 29.952C2.71818 30.0983 2.77776 30.2307 2.87313 30.3267C2.96911 30.4227 3.10154 30.4817 3.24786 30.4817H1.02992C0.883603 30.4817 0.751169 30.4228 0.655193 30.3267C0.559882 30.2308 0.500244 30.0983 0.500244 29.952C0.500244 27.8811 2.17921 26.2021 4.25077 26.2021C4.63672 26.2021 5.00946 26.2604 5.35968 26.369C3.82975 26.8417 2.71818 28.2671 2.71818 29.952Z" fill="#685E68"/>
    <path d="M3.19395 26.3525C1.63782 26.8089 0.5 28.2473 0.5 29.9513V29.9519C0.5 30.2441 0.737222 30.4813 1.02937 30.4813H2.19134" stroke="black" stroke-miterlimit="10" stroke-linecap="round" stroke-linejoin="round"/>
    <path d="M5.30596 26.3525C6.8627 26.8089 7.99992 28.2473 7.99992 29.9513V29.9519C7.99992 30.2441 7.76269 30.4813 7.47054 30.4813H4.30396" stroke="black" stroke-miterlimit="10" stroke-linecap="round" stroke-linejoin="round"/>
    <path d="M6.81665 21.6855V23.3201C6.81665 24.3351 6.22806 25.2116 5.37339 25.6281C5.3522 25.6386 5.33035 25.6486 5.3085 25.6585V26.2769C5.3085 26.8615 4.83448 27.3355 4.24988 27.3355C3.66527 27.3355 3.19125 26.8615 3.19125 26.2769V25.6585C2.30145 25.2553 1.68311 24.3602 1.68311 23.3201V21.6855H6.81665Z" fill="#FFDFCF"/>
    <path d="M5.37339 25.6281C5.3522 25.6386 5.33035 25.6486 5.3085 25.6585V26.2769C5.3085 26.8615 4.83448 27.3355 4.24988 27.3355C3.66527 27.3355 3.19125 26.8615 3.19125 26.2769V25.6585C2.30145 25.2553 1.68311 24.3602 1.68311 23.3201V21.6855H3.54346V23.4631C3.54352 24.5509 4.33529 25.4539 5.37339 25.6281Z" fill="#FFCEBF"/>
    <path d="M6.8167 21.4252V21.6853C6.8167 23.1035 5.66735 24.2521 4.24993 24.2521C4.04869 24.2521 3.85269 24.2289 3.66533 24.1852C3.19131 24.0746 2.76757 23.833 2.43521 23.5007C1.97043 23.0359 1.68311 22.3943 1.68311 21.6853V21.4252C1.68311 20.0071 2.8324 18.8584 4.24987 18.8584C4.51933 18.8584 4.77949 18.9001 5.02383 18.9776C5.42108 19.1027 5.77727 19.3225 6.0646 19.6098C6.52938 20.0746 6.8167 20.7161 6.8167 21.4252Z" fill="#AE6C6C"/>
    <path d="M3.54352 21.0537V23.4629C3.54352 23.7165 3.58656 23.9595 3.66533 24.1852C3.19131 24.0746 2.76757 23.833 2.43521 23.5007C1.97043 23.0359 1.68311 22.3943 1.68311 21.6853V21.4252C1.68311 20.0071 2.8324 18.8584 4.24988 18.8584C4.51933 18.8584 4.77949 18.9001 5.02384 18.9776C4.16253 19.2741 3.54352 20.0917 3.54352 21.0537Z" fill="#9B5E5E"/>
    <path d="M6.81665 21.4252V23.32C6.81665 24.3601 6.1983 25.2552 5.3085 25.6583V26.2767C5.3085 26.8613 4.83448 27.3353 4.24988 27.3353C3.66527 27.3353 3.19125 26.8613 3.19125 26.2767V25.6583C2.30145 25.2551 1.68311 24.3601 1.68311 23.32V21.4252C1.68311 20.0071 2.8324 18.8584 4.24988 18.8584C4.95828 18.8584 5.60047 19.1457 6.06454 19.6098C6.52932 20.0746 6.81665 20.7161 6.81665 21.4252Z" stroke="black" stroke-miterlimit="10" stroke-linecap="round" stroke-linejoin="round"/>
    <path d="M1.68311 21.4248V21.685C1.68311 22.394 1.97043 23.0356 2.43521 23.5003C2.89934 23.9644 3.54153 24.2517 4.24988 24.2517C5.66735 24.2517 6.81665 23.103 6.81665 21.685V21.4248" stroke="black" stroke-miterlimit="10" stroke-linecap="round" stroke-linejoin="round"/>
    <path d="M27.2233 0.5H21.9631C21.0029 0.5 20.2244 1.27843 20.2244 2.23872V8.38514C20.2244 8.80882 20.6894 9.06801 21.0498 8.84515L23.2443 7.48798C23.4705 7.34806 23.7312 7.27399 23.9972 7.27399H27.2233C28.1836 7.27399 28.9621 6.49557 28.9621 5.53527V2.23872C28.962 1.27843 28.1836 0.5 27.2233 0.5Z" fill="#F5F8F9"/>
    <path d="M28.962 4.6861V5.53539C28.962 6.49575 28.1839 7.27442 27.2236 7.27442H23.9972C23.731 7.27442 23.4703 7.34806 23.2445 7.4881L21.0498 8.84564C20.6894 9.06837 20.2246 8.80882 20.2246 8.38508V2.23903C20.2246 1.27867 21.0027 0.5 21.963 0.5H27.2236C28.1839 0.5 28.962 1.27867 28.962 2.23903V2.57343" stroke="black" stroke-miterlimit="10" stroke-linecap="round" stroke-linejoin="round"/>
    <path d="M21.9006 2.57324H27.2859" stroke="black" stroke-miterlimit="10" stroke-linecap="round" stroke-linejoin="round"/>
    <path d="M21.9006 4.07227H27.2859" stroke="black" stroke-miterlimit="10" stroke-linecap="round" stroke-linejoin="round"/>
    <path d="M9.18311 15.4844L9.80864 19.745V19.7456" stroke="black" stroke-miterlimit="10" stroke-linecap="round" stroke-linejoin="round"/>
    <path d="M21.1912 19.7462C21.1918 19.7456 21.1912 19.7456 21.1912 19.7456L21.8167 15.4844" stroke="black" stroke-miterlimit="10" stroke-linecap="round" stroke-linejoin="round"/>
</svg>
