<svg width="30" height="30" viewBox="0 0 30 30" fill="none" xmlns="http://www.w3.org/2000/svg">
    <g clip-path="url(#clip0_392_2893)">
        <path d="M10.625 0.9375H24.375V29.0625H10.625V0.9375Z" fill="#6EBAED"/>
        <path d="M0.9375 9.0625H10.625V29.0625H0.9375V9.0625Z" fill="#F2AE40"/>
        <path d="M2.5 10.625H5V13.125H2.5V10.625Z" fill="#DDDDDD"/>
        <path d="M6.5625 10.625H9.0625V13.125H6.5625V10.625Z" fill="#DDDDDD"/>
        <path d="M2.5 14.6875H5V17.1875H2.5V14.6875Z" fill="#DDDDDD"/>
        <path d="M6.5625 14.6875H9.0625V17.1875H6.5625V14.6875Z" fill="#DDDDDD"/>
        <path d="M2.5 18.75H5V21.25H2.5V18.75Z" fill="#DDDDDD"/>
        <path d="M6.5625 18.75H9.0625V21.25H6.5625V18.75Z" fill="#DDDDDD"/>
        <path d="M12.1875 2.5H14.6875V5H12.1875V2.5Z" fill="#DDDDDD"/>
        <path d="M16.25 2.5H18.75V5H16.25V2.5Z" fill="#DDDDDD"/>
        <path d="M20.3125 2.5H22.8125V5H20.3125V2.5Z" fill="#DDDDDD"/>
        <path d="M12.1875 6.5625H14.6875V9.0625H12.1875V6.5625Z" fill="#DDDDDD"/>
        <path d="M16.25 6.5625H18.75V9.0625H16.25V6.5625Z" fill="#DDDDDD"/>
        <path d="M20.3125 6.5625H22.8125V9.0625H20.3125V6.5625Z" fill="#DDDDDD"/>
        <path d="M12.1875 10.625H14.6875V13.125H12.1875V10.625Z" fill="#DDDDDD"/>
        <path d="M16.25 10.625H18.75V13.125H16.25V10.625Z" fill="#DDDDDD"/>
        <path d="M20.3125 10.625H22.8125V13.125H20.3125V10.625Z" fill="#DDDDDD"/>
        <path d="M12.1875 14.6875H14.6875V17.1875H12.1875V14.6875Z" fill="#DDDDDD"/>
        <path d="M16.25 14.6875H18.75V17.1875H16.25V14.6875Z" fill="#DDDDDD"/>
        <path d="M20.3125 14.6875H22.8125V17.1875H20.3125V14.6875Z" fill="#DDDDDD"/>
        <path d="M28.4375 29.0625H18.4375C18.0922 29.0625 17.8125 28.7828 17.8125 28.4375V22.1875C17.8125 21.8422 18.0922 21.5625 18.4375 21.5625H28.4375C28.7828 21.5625 29.0625 21.8422 29.0625 22.1875V28.4375C29.0625 28.7828 28.7828 29.0625 28.4375 29.0625Z" fill="#EF6662"/>
        <path d="M20 24.0625H21.25V25.625H20V24.0625Z" fill="#F2AE40"/>
        <path d="M25.625 24.0625H26.875V25.625H25.625V24.0625Z" fill="#F2AE40"/>
        <path d="M19.6875 29.0625C19.6875 28.0263 18.8487 27.1875 17.8125 27.1875V28.4375C17.8125 28.7828 18.0922 29.0625 18.4375 29.0625H19.6875Z" fill="#F2AE40"/>
        <path d="M27.1875 29.0625C27.1875 28.0263 28.0263 27.1875 29.0625 27.1875V28.4375C29.0625 28.7828 28.7828 29.0625 28.4375 29.0625H27.1875Z" fill="#F2AE40"/>
        <path d="M5.54 2.1875C6.63844 3.28594 6.63844 5.06656 5.54 6.165C4.44156 7.26344 2.66094 7.26344 1.5625 6.165L5.54 2.1875Z" fill="#9C9B9A"/>
        <path d="M12.5 22.1875H16.25V29.0625H12.5V22.1875Z" fill="#9C9B9A"/>
        <path d="M5.3125 10.625C5.3125 10.4525 5.1725 10.3125 5 10.3125H2.5C2.3275 10.3125 2.1875 10.4525 2.1875 10.625V13.125C2.1875 13.2975 2.3275 13.4375 2.5 13.4375H5C5.1725 13.4375 5.3125 13.2975 5.3125 13.125V10.625ZM4.6875 12.8125H2.8125V10.9375H4.6875V12.8125Z" fill="black"/>
        <path d="M9.375 10.625C9.375 10.4525 9.235 10.3125 9.0625 10.3125H6.5625C6.39 10.3125 6.25 10.4525 6.25 10.625V13.125C6.25 13.2975 6.39 13.4375 6.5625 13.4375H9.0625C9.235 13.4375 9.375 13.2975 9.375 13.125V10.625ZM8.75 12.8125H6.875V10.9375H8.75V12.8125Z" fill="black"/>
        <path d="M5.3125 14.6875C5.3125 14.515 5.1725 14.375 5 14.375H2.5C2.3275 14.375 2.1875 14.515 2.1875 14.6875V17.1875C2.1875 17.36 2.3275 17.5 2.5 17.5H5C5.1725 17.5 5.3125 17.36 5.3125 17.1875V14.6875ZM4.6875 16.875H2.8125V15H4.6875V16.875Z" fill="black"/>
        <path d="M9.375 14.6875C9.375 14.515 9.235 14.375 9.0625 14.375H6.5625C6.39 14.375 6.25 14.515 6.25 14.6875V17.1875C6.25 17.36 6.39 17.5 6.5625 17.5H9.0625C9.235 17.5 9.375 17.36 9.375 17.1875V14.6875ZM8.75 16.875H6.875V15H8.75V16.875Z" fill="black"/>
        <path d="M5 18.4375H2.5C2.3275 18.4375 2.1875 18.5775 2.1875 18.75V21.25C2.1875 21.4225 2.3275 21.5625 2.5 21.5625H5C5.1725 21.5625 5.3125 21.4225 5.3125 21.25V18.75C5.3125 18.5775 5.1725 18.4375 5 18.4375ZM4.6875 20.9375H2.8125V19.0625H4.6875V20.9375Z" fill="black"/>
        <path d="M9.0625 18.4375H6.5625C6.39 18.4375 6.25 18.5775 6.25 18.75V21.25C6.25 21.4225 6.39 21.5625 6.5625 21.5625H9.0625C9.235 21.5625 9.375 21.4225 9.375 21.25V18.75C9.375 18.5775 9.235 18.4375 9.0625 18.4375ZM8.75 20.9375H6.875V19.0625H8.75V20.9375Z" fill="black"/>
        <path d="M14.6875 2.1875H12.1875C12.015 2.1875 11.875 2.3275 11.875 2.5V5C11.875 5.1725 12.015 5.3125 12.1875 5.3125H14.6875C14.86 5.3125 15 5.1725 15 5V2.5C15 2.3275 14.86 2.1875 14.6875 2.1875ZM14.375 4.6875H12.5V2.8125H14.375V4.6875Z" fill="black"/>
        <path d="M16.25 5.3125H18.75C18.9225 5.3125 19.0625 5.1725 19.0625 5V2.5C19.0625 2.3275 18.9225 2.1875 18.75 2.1875H16.25C16.0775 2.1875 15.9375 2.3275 15.9375 2.5V5C15.9375 5.1725 16.0775 5.3125 16.25 5.3125ZM16.5625 2.8125H18.4375V4.6875H16.5625V2.8125Z" fill="black"/>
        <path d="M20.3125 5.3125H22.8125C22.985 5.3125 23.125 5.1725 23.125 5V2.5C23.125 2.3275 22.985 2.1875 22.8125 2.1875H20.3125C20.14 2.1875 20 2.3275 20 2.5V5C20 5.1725 20.14 5.3125 20.3125 5.3125ZM20.625 2.8125H22.5V4.6875H20.625V2.8125Z" fill="black"/>
        <path d="M14.6875 6.25H12.1875C12.015 6.25 11.875 6.39 11.875 6.5625V9.0625C11.875 9.235 12.015 9.375 12.1875 9.375H14.6875C14.86 9.375 15 9.235 15 9.0625V6.5625C15 6.39 14.86 6.25 14.6875 6.25ZM14.375 8.75H12.5V6.875H14.375V8.75Z" fill="black"/>
        <path d="M16.25 9.375H18.75C18.9225 9.375 19.0625 9.235 19.0625 9.0625V6.5625C19.0625 6.39 18.9225 6.25 18.75 6.25H16.25C16.0775 6.25 15.9375 6.39 15.9375 6.5625V9.0625C15.9375 9.235 16.0775 9.375 16.25 9.375ZM16.5625 6.875H18.4375V8.75H16.5625V6.875Z" fill="black"/>
        <path d="M20.3125 9.375H22.8125C22.985 9.375 23.125 9.235 23.125 9.0625V6.5625C23.125 6.39 22.985 6.25 22.8125 6.25H20.3125C20.14 6.25 20 6.39 20 6.5625V9.0625C20 9.235 20.14 9.375 20.3125 9.375ZM20.625 6.875H22.5V8.75H20.625V6.875Z" fill="black"/>
        <path d="M14.6875 10.3125H12.1875C12.015 10.3125 11.875 10.4525 11.875 10.625V13.125C11.875 13.2975 12.015 13.4375 12.1875 13.4375H14.6875C14.86 13.4375 15 13.2975 15 13.125V10.625C15 10.4525 14.86 10.3125 14.6875 10.3125ZM14.375 12.8125H12.5V10.9375H14.375V12.8125Z" fill="black"/>
        <path d="M16.25 13.4375H18.75C18.9225 13.4375 19.0625 13.2975 19.0625 13.125V10.625C19.0625 10.4525 18.9225 10.3125 18.75 10.3125H16.25C16.0775 10.3125 15.9375 10.4525 15.9375 10.625V13.125C15.9375 13.2975 16.0775 13.4375 16.25 13.4375ZM16.5625 10.9375H18.4375V12.8125H16.5625V10.9375Z" fill="black"/>
        <path d="M20.3125 13.4375H22.8125C22.985 13.4375 23.125 13.2975 23.125 13.125V10.625C23.125 10.4525 22.985 10.3125 22.8125 10.3125H20.3125C20.14 10.3125 20 10.4525 20 10.625V13.125C20 13.2975 20.14 13.4375 20.3125 13.4375ZM20.625 10.9375H22.5V12.8125H20.625V10.9375Z" fill="black"/>
        <path d="M14.6875 14.375H12.1875C12.015 14.375 11.875 14.515 11.875 14.6875V17.1875C11.875 17.36 12.015 17.5 12.1875 17.5H14.6875C14.86 17.5 15 17.36 15 17.1875V14.6875C15 14.515 14.86 14.375 14.6875 14.375ZM14.375 16.875H12.5V15H14.375V16.875Z" fill="black"/>
        <path d="M19.0625 17.1875V14.6875C19.0625 14.515 18.9225 14.375 18.75 14.375H16.25C16.0775 14.375 15.9375 14.515 15.9375 14.6875V17.1875C15.9375 17.36 16.0775 17.5 16.25 17.5H18.75C18.9225 17.5 19.0625 17.36 19.0625 17.1875ZM18.4375 16.875H16.5625V15H18.4375V16.875Z" fill="black"/>
        <path d="M20.3125 17.5H22.8125C22.985 17.5 23.125 17.36 23.125 17.1875V14.6875C23.125 14.515 22.985 14.375 22.8125 14.375H20.3125C20.14 14.375 20 14.515 20 14.6875V17.1875C20 17.36 20.14 17.5 20.3125 17.5ZM20.625 15H22.5V16.875H20.625V15Z" fill="black"/>
        <path d="M28.4375 21.25H25.9375V20.625C25.9375 20.3503 25.8653 20.08 25.7284 19.8438C25.6419 19.6941 25.4503 19.6431 25.3016 19.7297C25.1519 19.8163 25.1009 20.0072 25.1875 20.1566C25.2691 20.2981 25.3125 20.4603 25.3125 20.625V21.25H21.5625V20.625C21.5625 20.1081 21.9831 19.6875 22.5 19.6875H24.375C24.5475 19.6875 24.6875 19.5475 24.6875 19.375V0.9375C24.6875 0.765 24.5475 0.625 24.375 0.625H10.625C10.4525 0.625 10.3125 0.765 10.3125 0.9375V8.75H6.875C6.7025 8.75 6.5625 8.89 6.5625 9.0625C6.5625 9.235 6.7025 9.375 6.875 9.375H10.3125V28.75H1.25V9.375H5.625C5.7975 9.375 5.9375 9.235 5.9375 9.0625V6.25C5.9375 6.23281 5.93031 6.21781 5.92781 6.20156C6.97406 4.975 6.92031 3.12594 5.76094 1.96656C5.63875 1.84438 5.44125 1.84438 5.31906 1.96656L1.34156 5.94406C1.21938 6.06625 1.21938 6.26375 1.34156 6.38594C1.95063 6.99531 2.75094 7.29969 3.55125 7.29969C4.16781 7.29969 4.78344 7.11688 5.3125 6.75531V8.75H0.9375C0.765 8.75 0.625 8.89 0.625 9.0625V29.0625C0.625 29.235 0.765 29.375 0.9375 29.375H12.5C12.6725 29.375 12.8125 29.235 12.8125 29.0625V22.5H15.9375V28.75H13.75C13.5775 28.75 13.4375 28.89 13.4375 29.0625C13.4375 29.235 13.5775 29.375 13.75 29.375H28.4375C28.9544 29.375 29.375 28.9544 29.375 28.4375V22.1875C29.375 21.6706 28.9544 21.25 28.4375 21.25ZM2.01813 6.15125L5.52625 2.64313C6.28813 3.62313 6.21906 5.04406 5.31906 5.94406C4.41938 6.84406 2.99781 6.91281 2.01813 6.15125ZM17.5575 28.75H16.5625V22.1875C16.5625 22.015 16.4225 21.875 16.25 21.875H12.5C12.3275 21.875 12.1875 22.015 12.1875 22.1875V28.75H10.9375V1.25H24.0625V19.0625H22.5C21.6384 19.0625 20.9375 19.7634 20.9375 20.625V21.25H18.4375C17.9206 21.25 17.5 21.6706 17.5 22.1875V28.4375C17.5 28.5475 17.5225 28.6519 17.5575 28.75ZM18.4375 28.75C18.2653 28.75 18.125 28.6097 18.125 28.4375V27.5316C18.7363 27.6563 19.2188 28.1388 19.3434 28.75H18.4375ZM28.75 28.4375C28.75 28.6097 28.6097 28.75 28.4375 28.75H27.5316C27.6563 28.1388 28.1388 27.6563 28.75 27.5316V28.4375ZM28.75 26.9C27.7941 27.0378 27.0375 27.7941 26.9 28.75H19.975C19.8372 27.7941 19.0809 27.0375 18.125 26.9V25.3125H19.6875V25.625C19.6875 25.7975 19.8275 25.9375 20 25.9375H20.3125V26.5625C20.3125 26.735 20.4525 26.875 20.625 26.875C20.7975 26.875 20.9375 26.735 20.9375 26.5625V25.9375H21.25C21.4225 25.9375 21.5625 25.7975 21.5625 25.625V25.3125H25.3125V25.625C25.3125 25.7975 25.4525 25.9375 25.625 25.9375H25.9375V26.5625C25.9375 26.735 26.0775 26.875 26.25 26.875C26.4225 26.875 26.5625 26.735 26.5625 26.5625V25.9375H26.875C27.0475 25.9375 27.1875 25.7975 27.1875 25.625V25.3125H28.75V26.9ZM20.3125 25.3125V24.375H20.9375V25.3125H20.3125ZM25.9375 25.3125V24.375H26.5625V25.3125H25.9375ZM28.75 24.6875H27.1875V24.0625C27.1875 23.89 27.0475 23.75 26.875 23.75H25.625C25.4525 23.75 25.3125 23.89 25.3125 24.0625V24.6875H21.5625V24.0625C21.5625 23.89 21.4225 23.75 21.25 23.75H20C19.8275 23.75 19.6875 23.89 19.6875 24.0625V24.6875H18.125V22.1875C18.125 22.0153 18.2653 21.875 18.4375 21.875H28.4375C28.6097 21.875 28.75 22.0153 28.75 22.1875V24.6875Z" fill="black"/>
        <path d="M13.125 21.25C13.2976 21.25 13.4375 21.1101 13.4375 20.9375C13.4375 20.7649 13.2976 20.625 13.125 20.625C12.9524 20.625 12.8125 20.7649 12.8125 20.9375C12.8125 21.1101 12.9524 21.25 13.125 21.25Z" fill="black"/>
        <path d="M14.375 21.25C14.5476 21.25 14.6875 21.1101 14.6875 20.9375C14.6875 20.7649 14.5476 20.625 14.375 20.625C14.2024 20.625 14.0625 20.7649 14.0625 20.9375C14.0625 21.1101 14.2024 21.25 14.375 21.25Z" fill="black"/>
        <path d="M15.625 21.25C15.7976 21.25 15.9375 21.1101 15.9375 20.9375C15.9375 20.7649 15.7976 20.625 15.625 20.625C15.4524 20.625 15.3125 20.7649 15.3125 20.9375C15.3125 21.1101 15.4524 21.25 15.625 21.25Z" fill="black"/>
    </g>
    <defs>
        <clipPath id="clip0_392_2893">
            <rect width="30" height="30" fill="white"/>
        </clipPath>
    </defs>
</svg>
