<svg width="31" height="29" viewBox="0 0 31 29" fill="none" xmlns="http://www.w3.org/2000/svg">
    <path d="M4.8123 23.496H12.6872L14.1255 15.8398H3.37402L4.8123 23.496Z" fill="#DCA306"/>
    <path d="M10.4236 14.7464C11.0811 12.8068 11.4388 10.7783 11.4845 8.7308C11.475 7.60332 11.3485 6.47986 11.1072 5.37848C10.7224 3.59097 10.0891 1.86616 9.22592 0.254296C9.17364 0.176057 9.10287 0.111919 9.01988 0.0675623C8.93689 0.0232058 8.84424 0 8.75014 0C8.65604 0 8.56339 0.0232058 8.4804 0.0675623C8.39741 0.111919 8.32664 0.176057 8.27436 0.254296C7.41115 1.86615 6.77796 3.59097 6.39323 5.37848C5.63043 8.31751 6.17163 12.1923 7.07671 14.7464H10.4236Z" fill="#DCA306"/>
    <path d="M4.18336 14.7463H5.92788C5.04739 12.0611 4.5443 8.151 5.33179 5.10493C5.41929 4.70025 5.51773 4.3065 5.6271 3.93463C5.00772 2.85732 4.28028 1.84586 3.45602 0.915897C3.39105 0.844436 3.30791 0.791944 3.21545 0.764015C3.123 0.736086 3.0247 0.733766 2.93103 0.757304C2.83785 0.779126 2.75199 0.824921 2.68196 0.890151C2.61194 0.95538 2.56018 1.03778 2.53181 1.12918C1.75353 3.98694 1.65427 6.9871 2.24197 9.89006C2.66047 11.5911 3.31387 13.2255 4.18336 14.7463Z" fill="#DCA306"/>
    <path d="M13.3164 14.7468C14.1859 13.2261 14.8393 11.5917 15.2578 9.89062C15.8455 6.98766 15.7462 3.9875 14.9679 1.12974C14.9396 1.03834 14.8878 0.955942 14.8178 0.890713C14.7478 0.825483 14.6619 0.779688 14.5687 0.757866C14.475 0.734725 14.3769 0.73724 14.2845 0.765146C14.1921 0.793052 14.1089 0.84532 14.0437 0.916459C13.2182 1.8474 12.4907 2.8608 11.8727 3.94066C11.982 4.32894 12.0805 4.72815 12.1734 5.14924C12.4348 6.32554 12.5705 7.52628 12.5781 8.73125C12.5373 10.7752 12.1964 12.802 11.5664 14.7468H13.3164Z" fill="#DCA306"/>
    <path d="M30.0779 26.7773H13.1249C13.2261 26.7778 13.3253 26.7498 13.4113 26.6966C13.4974 26.6435 13.5668 26.5672 13.6116 26.4766L14.5577 24.5898H2.94764L3.88825 26.4766C3.9331 26.5672 4.00249 26.6435 4.08854 26.6966C4.17458 26.7498 4.27382 26.7778 4.37497 26.7773H0.546871C0.401832 26.7773 0.262733 26.8349 0.160175 26.9375C0.0576167 27.0401 0 27.1792 0 27.3242V28.4179C0.000432774 28.5628 0.0581884 28.7017 0.160653 28.8042C0.263118 28.9066 0.401965 28.9644 0.546871 28.9648H30.0779C30.2228 28.9644 30.3617 28.9066 30.4641 28.8042C30.5666 28.7017 30.6244 28.5628 30.6248 28.4179V27.3242C30.6248 27.1792 30.5672 27.0401 30.4646 26.9375C30.3621 26.8349 30.223 26.7773 30.0779 26.7773Z" fill="#DCA306"/>
    <path d="M18.4952 25.6834H28.5358L30.5264 13.7562C30.5986 13.3123 30.58 12.8583 30.4717 12.4218L28.7326 5.46561C28.6143 4.99239 28.3412 4.57229 27.9568 4.27207C27.5723 3.97184 27.0986 3.80871 26.6108 3.80859H20.4202C19.9324 3.80871 19.4587 3.97184 19.0742 4.27207C18.6898 4.57229 18.4167 4.99239 18.2983 5.46561L16.5593 12.4218C16.4509 12.8583 16.4323 13.3123 16.5046 13.7562L18.4952 25.6834Z" fill="#DCA306"/>
</svg>
