<svg width="20" height="20" viewBox="0 0 20 20" fill="none" xmlns="http://www.w3.org/2000/svg">
    <path d="M0 9.83398V19.9997H20V9.83398L10 16.4652L0 9.83398Z" fill="#13A4EC"/>
    <path d="M17.4547 7.13184V10.1155L20.0001 8.42766V7.13184H17.4547Z" fill="#13A4EC"/>
    <path d="M2.54527 7.13184H0V8.42766L2.54527 10.1155V7.13184Z" fill="#13A4EC"/>
    <path d="M8.70874 5.59863L11.3376 2.96981L12.423 4.05522L9.79415 6.68404L8.70874 5.59863Z" fill="#13A4EC"/>
    <path d="M16.2828 10.8931V0H3.71716V10.8931L10 15.0594L16.2828 10.8931ZM6.1606 9.21773V6.49L11.3393 1.31133L14.0822 4.05422L8.91861 9.21773H6.1606Z" fill="#13A4EC"/>
    <path d="M7.33234 6.9757V8.04613H8.43304L8.96687 7.5123L7.88128 6.42676L7.33234 6.9757Z" fill="#13A4EC"/>
</svg>
