<svg width="24" height="24" viewBox="0 0 24 24" fill="none" xmlns="http://www.w3.org/2000/svg">
    <path fill-rule="evenodd" clip-rule="evenodd" d="M17.1429 1.71429H12.8571V0.857143C12.8571 0.384 12.4731 0 12 0C11.5269 0 11.1429 0.384 11.1429 0.857143V1.71429H6.85714V0.857143C6.85714 0.384 6.47314 0 6 0C5.52686 0 5.14286 0.384 5.14286 0.857143V1.71429H4.28571C1.92 1.71429 0 3.63429 0 6V19.7143C0 22.08 1.92 24 4.28571 24H19.7143C22.08 24 24 22.08 24 19.7143V6C24 3.63429 22.08 1.71429 19.7143 1.71429H18.8571V0.857143C18.8571 0.384 18.4731 0 18 0C17.5269 0 17.1429 0.384 17.1429 0.857143V1.71429ZM22.2857 7.71429V19.7143C22.2857 21.1337 21.1337 22.2857 19.7143 22.2857H4.28571C2.86629 22.2857 1.71429 21.1337 1.71429 19.7143V7.71429H22.2857ZM12.7689 10.7246C12.624 10.4323 12.3266 10.2471 12 10.2471C11.6734 10.2471 11.376 10.4323 11.2311 10.7246L10.1709 12.8726L7.80086 13.2171C7.47771 13.2643 7.20943 13.4906 7.10914 13.8009C7.008 14.1111 7.092 14.4514 7.326 14.6794L9.04114 16.3517L8.63571 18.7123C8.58086 19.0337 8.71286 19.3586 8.97686 19.5506C9.24086 19.7426 9.59057 19.7674 9.87943 19.6157L12 18.5014L14.1206 19.6157C14.4094 19.7674 14.7591 19.7426 15.0231 19.5506C15.2871 19.3586 15.4191 19.0337 15.3643 18.7123L14.9589 16.3517L16.674 14.6794C16.908 14.4514 16.992 14.1111 16.8909 13.8009C16.7906 13.4906 16.5223 13.2643 16.1991 13.2171L13.8291 12.8726L12.7689 10.7246ZM12 13.0406L12.4911 14.0357C12.6154 14.2886 12.8571 14.4643 13.1366 14.5046L14.2337 14.664L13.44 15.438C13.2377 15.6351 13.1451 15.9189 13.1931 16.1974L13.3809 17.2903L12.3986 16.7743C12.1491 16.6431 11.8509 16.6431 11.6014 16.7743L10.6191 17.2903L10.8069 16.1974C10.8549 15.9189 10.7623 15.6351 10.56 15.438L9.76629 14.664L10.8634 14.5046C11.1429 14.4643 11.3846 14.2886 11.5089 14.0357L12 13.0406Z" fill="#A2A2A2"/>
</svg>
