<svg width="20" height="20" viewBox="0 0 20 20" fill="none" xmlns="http://www.w3.org/2000/svg">
    <path d="M7.25 15.0417C7.125 14.9167 7 14.7917 6.91667 14.6667C6.70833 14.4167 6.58333 14.25 6.45833 14.0417C5.83333 13.0833 5.54167 11.9167 5.625 10.7083C5.625 10.4583 5.66667 10.2083 5.75 9.95833C4.83333 9.41667 4.25 8.41667 4.25 7.29167C4.25 5.58333 5.66667 4.16667 7.41667 4.16667C8.54167 4.16667 9.54167 4.75 10.0833 5.625C10.3333 5.58333 10.5833 5.54167 10.875 5.5H10.9583H11.25H11.5C11.75 5.5 12 5.54167 12.2917 5.58333C12.7083 5.66667 13.125 5.79167 13.4583 5.95833C13.875 6.125 14.25 6.375 14.625 6.625C14.6667 6.66667 14.75 6.70833 14.7917 6.79167C14.4583 3 11.2917 0 7.375 0C3.33333 0 0 3.29167 0 7.33333C0 12.5417 6.79167 19.0417 7.08333 19.3333L7.375 19.5833L7.66667 19.3333C7.70833 19.2917 8.875 18.2083 10.25 16.5833C10.0417 16.5417 9.875 16.5 9.66667 16.4583C8.75 16.2083 7.91667 15.7083 7.25 15.0417Z" fill="#F97316"/>
    <path d="M19.25 17.375L17.2084 15.375L17.5834 15L16.0834 13.5417L15.125 14.5L14.8334 14.2083C15.75 13.125 16.125 11.7083 15.875 10.3333C15.7917 9.95833 15.7084 9.58333 15.5417 9.25C15.2917 8.70833 15 8.25 14.5834 7.875L14.5417 7.83333C14.375 7.66667 14.2084 7.5 14.0417 7.41667C13.75 7.20833 13.4167 7 13.0834 6.875C12.75 6.75 12.4167 6.625 12.0834 6.58333C11.8334 6.54167 11.625 6.5 11.4167 6.5C11.25 6.5 11.0834 6.5 10.9167 6.5C9.75003 6.58333 8.66669 7.04167 7.87503 7.875C7.04169 8.66667 6.58336 9.75 6.50003 10.9167C6.41669 11.9167 6.70836 12.9167 7.20836 13.75C7.29169 13.9167 7.41669 14.0833 7.58336 14.25C7.66669 14.375 7.79169 14.4583 7.87503 14.5833C8.45836 15.1667 9.16669 15.5833 9.95836 15.7917C10.2084 15.875 10.4584 15.9167 10.7084 15.9167C10.875 15.9583 11.0834 15.9583 11.25 15.9583C11.875 15.9583 12.5417 15.8333 13.125 15.5833C13.5417 15.4167 13.9584 15.1667 14.2917 14.875L14.5834 15.1667L13.625 16.125L15.125 17.5833L15.5 17.2083L17.5417 19.2083C17.75 19.4167 18.0417 19.5 18.2917 19.5C18.5834 19.5 18.8334 19.4167 19.0417 19.2083L19.2917 18.9583C19.7084 18.4583 19.7084 17.75 19.25 17.375ZM13.1667 10.4583C13.0417 10.1667 12.875 9.91667 12.6667 9.70833C12.5834 9.625 12.5 9.54167 12.4167 9.5C12.0417 9.20833 11.5834 9.04167 11.0834 9.04167H11V8.20833H11.125C11.75 8.20833 12.375 8.45833 12.9167 8.83333C13.0417 8.91667 13.125 9 13.25 9.125C13.5417 9.41667 13.7917 9.79167 13.9584 10.1667L13.1667 10.4583Z" fill="#F97316"/>
</svg>
