<svg width="258" height="182" viewBox="0 0 258 182" fill="none" xmlns="http://www.w3.org/2000/svg">
    <path d="M257.312 168.512H0V168.64H257.312V168.512Z" fill="#E6E6E6"/>
    <path d="M64.2385 176.298H47.1931V176.427H64.2385V176.298Z" fill="#E6E6E6"/>
    <path d="M41.7988 176.298H31.9216V176.427H41.7988V176.298Z" fill="#E6E6E6"/>
    <path d="M108.356 178.192H98.4797V178.321H108.356V178.192Z" fill="#E6E6E6"/>
    <path d="M159.851 181.065H137.623V181.194H159.851V181.065Z" fill="#E6E6E6"/>
    <path d="M133.041 181.065H129.782V181.194H133.041V181.065Z" fill="#E6E6E6"/>
    <path d="M233.302 178.192H185.094V178.321H233.302V178.192Z" fill="#E6E6E6"/>
    <path d="M121.973 145.561H22.5998C20.9803 145.561 19.6624 144.243 19.6624 142.623V2.93748C19.6624 1.31795 20.9803 0 22.5998 0H121.973C123.592 0 124.91 1.31795 124.91 2.93748V142.623C124.91 144.243 123.592 145.561 121.973 145.561ZM22.5998 0.129171C21.0508 0.129171 19.791 1.38897 19.791 2.93799V142.624C19.791 144.173 21.0508 145.432 22.5998 145.432H121.973C123.522 145.432 124.782 144.173 124.782 142.624V2.93748C124.782 1.38897 123.522 0.128656 121.973 0.128656L22.5998 0.129171Z" fill="#E6E6E6"/>
    <path d="M233.285 145.561H133.912C132.293 145.561 130.975 144.243 130.975 142.623V2.93748C130.975 1.31795 132.293 0 133.912 0H233.285C234.905 0 236.222 1.31795 236.222 2.93748V142.623C236.223 144.243 234.905 145.561 233.285 145.561ZM133.912 0.129171C132.363 0.129171 131.103 1.38897 131.103 2.93799V142.624C131.103 144.173 132.363 145.432 133.912 145.432H233.285C234.834 145.432 236.093 144.173 236.093 142.624V2.93748C236.093 1.38897 234.834 0.128656 233.285 0.128656L133.912 0.129171Z" fill="#E6E6E6"/>
    <path d="M137.61 124.552H126.294V169.445H137.61V124.552Z" fill="#E0E0E0"/>
    <path d="M135.461 169.445H137.61V163.331H133.208L135.461 169.445Z" fill="#FAFAFA"/>
    <path d="M88.0236 124.552H76.7075V169.445H88.0236V124.552Z" fill="#E0E0E0"/>
    <path d="M137.611 124.552H86.1477V165.693H137.611V124.552Z" fill="#FAFAFA"/>
    <path d="M135.744 126.575V137.459H88.0139V126.575H135.744ZM135.943 126.376H87.8147V137.659H135.943V126.376Z" fill="#E0E0E0"/>
    <path d="M88.2968 169.445H86.1477V163.331H90.5503L88.2968 169.445Z" fill="#FAFAFA"/>
    <path d="M110.741 132.016C110.741 132.645 111.25 133.155 111.879 133.155C112.507 133.155 113.017 132.645 113.017 132.016C113.017 131.388 112.508 130.878 111.879 130.878C111.251 130.878 110.741 131.388 110.741 132.016Z" fill="#E6E6E6"/>
    <path d="M135.744 139.68V150.565H88.0139V139.68H135.744ZM135.943 139.481H87.8147V150.764H135.943V139.481Z" fill="#E0E0E0"/>
    <path d="M110.741 145.123C110.741 145.751 111.25 146.261 111.879 146.261C112.507 146.261 113.017 145.752 113.017 145.123C113.017 144.494 112.508 143.984 111.879 143.984C111.251 143.985 110.741 144.494 110.741 145.123Z" fill="#E6E6E6"/>
    <path d="M135.744 152.787V163.671H88.0139V152.787H135.744ZM135.943 152.588H87.8147V163.871H135.943V152.588Z" fill="#E0E0E0"/>
    <path d="M110.741 158.229C110.741 158.858 111.25 159.368 111.879 159.368C112.507 159.368 113.017 158.858 113.017 158.229C113.017 157.6 112.508 157.091 111.879 157.091C111.251 157.091 110.741 157.6 110.741 158.229Z" fill="#E6E6E6"/>
    <path d="M81.11 98.4805H69.7939V169.445H81.11V98.4805Z" fill="#E0E0E0"/>
    <path d="M78.9608 169.445H81.1099V163.331H76.7073L78.9608 169.445Z" fill="#FAFAFA"/>
    <path d="M38.8166 98.4805H27.5005V169.445H38.8166V98.4805Z" fill="#E0E0E0"/>
    <path d="M81.1099 98.4805H36.9412V165.694H81.1099V98.4805Z" fill="#FAFAFA"/>
    <path d="M79.2084 100.384V115.601H38.8428V100.384H79.2084ZM79.4426 100.149H38.6086V115.836H79.4426V100.149Z" fill="#E0E0E0"/>
    <path d="M79.2084 117.451V157.816H59.9815V117.451H79.2084ZM79.4425 117.217H59.7468V158.051H79.4425V117.217Z" fill="#E0E0E0"/>
    <path d="M58.0697 117.451V157.816H38.8428V117.451H58.0697ZM58.3044 117.217H38.6086V158.051H58.3044V117.217Z" fill="#E0E0E0"/>
    <path d="M39.0902 169.445H36.9412V163.331H41.3438L39.0902 169.445Z" fill="#FAFAFA"/>
    <path d="M57.8875 107.992C57.8875 108.621 58.3969 109.13 59.0258 109.13C59.6542 109.13 60.1641 108.621 60.1641 107.992C60.1641 107.364 59.6547 106.854 59.0258 106.854C58.3969 106.854 57.8875 107.364 57.8875 107.992Z" fill="#E6E6E6"/>
    <path d="M61.9624 136.671C61.9624 137.299 62.4719 137.809 63.1008 137.809C63.7296 137.809 64.2391 137.299 64.2391 136.671C64.2391 136.042 63.7296 135.532 63.1008 135.532C62.4719 135.532 61.9624 136.042 61.9624 136.671Z" fill="#E6E6E6"/>
    <path d="M53.812 136.671C53.812 137.299 54.3215 137.809 54.9504 137.809C55.5787 137.809 56.0887 137.299 56.0887 136.671C56.0887 136.042 55.5792 135.532 54.9504 135.532C54.322 135.532 53.812 136.042 53.812 136.671Z" fill="#E6E6E6"/>
    <path d="M52.5304 78.6953H47.7568C47.7568 78.6953 48.5853 83.1082 48.5853 85.705C48.5853 88.3018 44.9541 98.4811 50.1436 98.4811C55.3326 98.4811 51.7019 88.3013 51.7019 85.705C51.7014 83.1077 52.5304 78.6953 52.5304 78.6953Z" fill="#E0E0E0"/>
    <path d="M34.3784 89.1309V92.2325C34.3784 95.6687 37.1898 98.4801 40.6265 98.4801H43.7281C47.1643 98.4801 49.9757 95.6687 49.9757 92.2325V89.1309H34.3784Z" fill="#F5F5F5"/>
    <path d="M100.695 118.01C100.695 121.608 104.725 124.552 109.651 124.552H114.096C119.022 124.552 123.052 121.608 123.052 118.01H100.695Z" fill="#E0E0E0"/>
    <path d="M218.513 112.743C215.816 114.944 212.094 118.975 208.684 124.645C206.413 128.422 205.044 132.379 204.443 137.606C204.455 131.689 204.474 125.33 204.495 119.33C205.179 117.785 206.744 114.227 207.866 111.415C211.611 102.033 213.006 99.7257 216.374 91.6332C220.866 80.8395 225.47 68.032 224.152 69.0556C221.466 71.1408 211.173 90.4146 210.06 93.1735C206.233 102.663 205.168 109.58 204.505 116.255C204.526 110.619 204.548 105.444 204.57 101.451C204.639 88.4271 204.86 84.2236 204.968 82.9273C205.385 82.2686 205.877 81.5008 206.163 81.087C208.581 77.5912 209.513 74.613 211.791 69.3988C215.02 62.0104 217.8 48.8926 216.987 49.5544C213.603 52.3092 210.934 58.232 207.426 65.779C203.919 73.3259 204.921 77.6658 204.225 84.1115C204.079 85.3764 203.968 90.1495 203.887 96.765C202.977 89.7173 201.27 85.0728 198.157 80.8523C194.327 75.6613 190.622 72.1547 187.904 70.3231C185.186 68.4921 192.598 81.2434 196.143 86.8091C199.299 91.7655 202.207 96.1393 203.847 100.447C203.76 109.412 203.719 120.766 203.719 131.334C202.906 126.525 201.579 121.346 199.807 117.336C197.679 112.517 194.404 105.127 191.798 102.62C191.171 102.018 194.523 116.391 196.674 120.213C198.825 124.036 200.404 127.637 201.758 129.804C202.074 130.309 203.122 132.259 203.72 133.38C203.726 146.281 203.792 157.666 203.904 161.541H204.461C204.423 160.541 204.417 153.978 204.429 145.292C205.771 140.575 208.841 135.193 211.374 130.283C214.139 124.923 221.21 110.542 218.513 112.743Z" fill="#E0E0E0"/>
    <path d="M212.252 169.445H196.122L194.905 153.634H213.47L212.252 169.445Z" fill="#F0F0F0"/>
    <path d="M214.672 155.476H193.702L193.102 150.142H215.272L214.672 155.476Z" fill="#F5F5F5"/>
    <path d="M63.9473 10.5732H35.1016V42.2479H63.9473V10.5732Z" fill="#E0E0E0"/>
    <path d="M67.0716 10.5732H37.2759V42.2479H67.0716V10.5732Z" fill="#F5F5F5"/>
    <path d="M64.575 39.7516V13.0693L39.7716 13.0693V39.7516H64.575Z" fill="white"/>
    <path d="M58.5632 33.2848V19.5371L45.7841 19.5371V33.2848H58.5632Z" fill="#F5F5F5"/>
    <path d="M211.023 14.2656H184.226V43.6903H211.023V14.2656Z" fill="#E0E0E0"/>
    <path d="M213.925 14.2656H186.246V43.6903H213.925V14.2656Z" fill="#F5F5F5"/>
    <path d="M211.606 41.3719V16.585L188.565 16.585V41.3719H211.606Z" fill="white"/>
    <path d="M200.085 36.1666C204.055 36.1666 207.274 32.9483 207.274 28.9783C207.274 25.0083 204.055 21.79 200.085 21.79C196.115 21.79 192.897 25.0083 192.897 28.9783C192.897 32.9483 196.115 36.1666 200.085 36.1666Z" fill="#F5F5F5"/>
    <path d="M93.9135 29.46H72.5154V52.9567H93.9135V29.46Z" fill="#E0E0E0"/>
    <path d="M96.2318 29.46H74.1287V52.9567H96.2318V29.46Z" fill="#F5F5F5"/>
    <path d="M94.3801 51.105V31.3115L75.9807 31.3115V51.105H94.3801Z" fill="white"/>
    <path d="M85.1804 36.2051L80.1484 44.9213H90.2124L85.1804 36.2051Z" fill="#F5F5F5"/>
</svg>
