<svg width="30" height="24" viewBox="0 0 30 24" fill="none" xmlns="http://www.w3.org/2000/svg">
    <path d="M7.88544 6.04383L8.02349 6.39104C8.395 7.32467 8.39778 8.3646 8.03126 9.3002C7.99176 9.28811 7.95065 9.28207 7.90934 9.28228H7.7946V8.51435C7.79463 8.18439 7.70459 7.86069 7.5342 7.57814C7.3638 7.29558 7.11951 7.0649 6.82767 6.91096C6.69739 7.42311 6.10636 7.80977 5.39699 7.80977C4.74321 7.80977 4.19042 7.48108 4.00576 7.02809L4.00277 7.02092C3.76043 7.18735 3.56228 7.41032 3.42546 7.67053C3.28864 7.93074 3.21726 8.22036 3.21751 8.51435V9.28228H3.10277C3.04149 9.28216 2.98091 9.29541 2.92528 9.32112V9.32052L2.78604 8.97032C2.50158 8.25473 2.50158 7.45743 2.78604 6.74184L2.80755 6.68686C2.84236 6.59959 2.90253 6.52475 2.9803 6.47202C3.05806 6.41929 3.14985 6.39108 3.24381 6.39104C3.3181 6.39114 3.39169 6.37659 3.46036 6.34823C3.52903 6.31986 3.59144 6.27823 3.644 6.22572C3.69656 6.17321 3.73826 6.11085 3.7667 6.04221C3.79514 5.97357 3.80977 5.9 3.80974 5.8257C3.80957 5.69809 3.85259 5.57418 3.9318 5.47414C4.01101 5.37409 4.12175 5.3038 4.246 5.27471C4.3082 5.26096 4.37237 5.25853 4.43544 5.26753C4.84122 5.31833 7.20058 5.59443 8.02349 5.25977V5.54841C8.02383 5.72309 7.97607 5.8945 7.88544 6.04383Z" fill="#6D7486"/>
    <path d="M25.8155 6.91096C25.6852 7.42311 25.0942 7.80977 24.3848 7.80977C23.7311 7.80977 23.1783 7.48108 22.9936 7.02809L22.9906 7.02092C22.7483 7.18735 22.5501 7.41032 22.4133 7.67053C22.2765 7.93074 22.2051 8.22036 22.2054 8.51435V9.28228H22.0906C22.0295 9.28209 21.9691 9.29535 21.9137 9.32112L21.9131 9.32052L21.7739 8.97032C21.4894 8.25473 21.4894 7.45743 21.7739 6.74184L21.7954 6.68686C21.8302 6.59959 21.8904 6.52475 21.9681 6.47202C22.0459 6.41929 22.1377 6.39108 22.2317 6.39104C22.306 6.39114 22.3795 6.37659 22.4482 6.34823C22.5169 6.31986 22.5793 6.27823 22.6319 6.22572C22.6844 6.17321 22.7261 6.11085 22.7546 6.04221C22.783 5.97357 22.7976 5.9 22.7976 5.8257C22.7974 5.69809 22.8404 5.57418 22.9197 5.47414C22.9989 5.37409 23.1096 5.3038 23.2339 5.27471C23.2961 5.26096 23.3602 5.25853 23.4233 5.26753C23.8297 5.31833 26.1884 5.59443 27.0113 5.25977V5.54841C27.0117 5.72309 26.9639 5.8945 26.8733 6.04383L27.0113 6.39104C27.3829 7.32467 27.3856 8.3646 27.0191 9.3002C26.9796 9.28816 26.9385 9.28211 26.8972 9.28228H26.7825V8.51435C26.7825 8.18439 26.6924 7.86069 26.522 7.57814C26.3517 7.29558 26.1074 7.0649 25.8155 6.91096Z" fill="#6D7486"/>
    <path d="M19.1199 1.71736L19.3596 2.31796C20.0025 3.93459 20.0074 5.73509 19.3733 7.35521C19.3046 7.33498 19.2334 7.32471 19.1617 7.32473H18.9633V5.99445C18.9636 5.42295 18.8078 4.86222 18.5125 4.37288C18.2173 3.88353 17.794 3.48417 17.2882 3.21796C17.0629 4.10481 16.0398 4.77413 14.8117 4.77413C13.6793 4.77413 12.7213 4.20521 12.4016 3.42115L12.3968 3.4086C11.9771 3.69675 11.634 4.08279 11.397 4.53334C11.16 4.98389 11.0363 5.48538 11.0366 5.99445V7.32473H10.8382C10.7322 7.32449 10.6274 7.34733 10.5311 7.39166L10.2896 6.78449C9.7966 5.54528 9.7966 4.16435 10.2896 2.92513L10.3273 2.83071C10.3874 2.67945 10.4915 2.54973 10.6262 2.45831C10.7609 2.3669 10.9199 2.318 11.0827 2.31796C11.2113 2.31798 11.3387 2.29265 11.4575 2.24343C11.5764 2.19422 11.6843 2.12207 11.7753 2.03111C11.8662 1.94016 11.9384 1.83217 11.9876 1.71333C12.0368 1.59448 12.0622 1.46711 12.0621 1.33848C12.062 1.11754 12.1366 0.903056 12.2737 0.729817C12.4108 0.556578 12.6025 0.434749 12.8175 0.384096C12.9253 0.360517 13.0364 0.356268 13.1456 0.371546C13.849 0.459992 17.9343 0.93808 19.3596 0.358398V0.858598C19.3601 1.16125 19.2772 1.45819 19.1199 1.71676V1.71736Z" fill="#6D7486"/>
    <path d="M6.98846 13.8266V12.1665L6.9777 12.1533C6.5655 12.4996 6.04441 12.6894 5.50609 12.6894C4.96776 12.6894 4.44667 12.4996 4.03447 12.1533L4.02371 12.1665V13.8266L4.01953 13.8332H6.99264L6.98846 13.8266Z" fill="#EFADA3"/>
    <path d="M25.9763 13.8266V12.1665L25.9656 12.1533C25.5534 12.4996 25.0323 12.6894 24.4939 12.6894C23.9556 12.6894 23.4345 12.4996 23.0223 12.1533L23.0116 12.1665V13.8266L23.0074 13.8332H25.9805L25.9763 13.8266Z" fill="#EFADA3"/>
    <path d="M8.03126 9.30038C8.13011 9.32968 8.21509 9.3936 8.27066 9.48043C8.32623 9.56727 8.34867 9.67122 8.33387 9.77325C8.31906 9.87527 8.26801 9.96856 8.19005 10.036C8.11209 10.1035 8.01245 10.1406 7.90935 10.1406H7.79461V10.4006C7.79468 10.8363 7.67036 11.263 7.43625 11.6305C7.20214 11.998 6.86797 12.291 6.47304 12.4751C6.07811 12.6592 5.63883 12.7267 5.20684 12.6697C4.77485 12.6127 4.36812 12.4336 4.03445 12.1534C3.98365 12.1109 3.93465 12.0661 3.88744 12.0189C3.67464 11.8066 3.5059 11.5543 3.39093 11.2766C3.27597 10.9989 3.21703 10.7012 3.21752 10.4006V10.1406H3.10278C3.00474 10.1407 2.90964 10.1072 2.8333 10.0457C2.75696 9.98423 2.704 9.89842 2.68324 9.80261C2.66249 9.7068 2.67519 9.60677 2.71923 9.51919C2.76328 9.43161 2.836 9.36176 2.92529 9.32129C2.98092 9.29558 3.04149 9.28233 3.10278 9.28245H3.21752V8.51452C3.21727 8.22053 3.28865 7.93091 3.42547 7.6707C3.56229 7.41049 3.76044 7.18753 4.00278 7.02109L4.00577 7.02826C4.19043 7.48125 4.74322 7.80994 5.397 7.80994C6.10636 7.80994 6.6974 7.42328 6.82768 6.91113C7.11952 7.06507 7.36381 7.29576 7.5342 7.57831C7.7046 7.86086 7.79464 8.18456 7.79461 8.51452V9.28245H7.90935C7.95066 9.28224 7.99176 9.28828 8.03126 9.30038Z" fill="#FFC9C0"/>
    <path d="M27.0191 9.30038C27.1181 9.3296 27.2031 9.39349 27.2588 9.48035C27.3144 9.56721 27.3369 9.67121 27.3221 9.7733C27.3073 9.87538 27.2562 9.96871 27.1781 10.0362C27.1001 10.1036 27.0004 10.1407 26.8972 10.1406H26.7825V10.4006C26.7826 10.8363 26.6582 11.263 26.4241 11.6305C26.19 11.998 25.8558 12.291 25.4609 12.4751C25.066 12.6592 24.6267 12.7267 24.1947 12.6697C23.7627 12.6127 23.356 12.4336 23.0223 12.1534C22.9715 12.1109 22.9225 12.0661 22.8753 12.0189C22.6626 11.8065 22.494 11.5542 22.379 11.2765C22.264 10.9988 22.205 10.7011 22.2054 10.4006V10.1406H22.0907C22.0058 10.1407 21.9228 10.1156 21.8522 10.0685C21.7816 10.0214 21.7266 9.95441 21.6941 9.87599C21.6617 9.79757 21.6532 9.71128 21.6699 9.62806C21.6865 9.54484 21.7275 9.46844 21.7877 9.40854C21.8682 9.32834 21.977 9.28304 22.0907 9.28245H22.2054V8.51452C22.2051 8.22053 22.2765 7.93091 22.4133 7.6707C22.5502 7.41049 22.7483 7.18753 22.9906 7.02109L22.9936 7.02826C23.1783 7.48125 23.7311 7.80994 24.3849 7.80994C25.0942 7.80994 25.6853 7.42328 25.8156 6.91113C26.1074 7.06507 26.3517 7.29576 26.5221 7.57831C26.6925 7.86086 26.7825 8.18456 26.7825 8.51452V9.28245H26.8972C26.9385 9.28228 26.9796 9.28833 27.0191 9.30038Z" fill="#FFC9C0"/>
    <path d="M19.3733 7.35502C19.5445 7.40584 19.6917 7.51663 19.788 7.6671C19.8842 7.81758 19.923 7.99768 19.8973 8.17444C19.8717 8.3512 19.7832 8.5128 19.6481 8.62966C19.513 8.74652 19.3404 8.81082 19.1617 8.8108H18.9633V9.2614C18.9633 10.0159 18.7479 10.7547 18.3425 11.391C17.937 12.0273 17.3584 12.5347 16.6746 12.8535C15.9908 13.1723 15.2301 13.2893 14.4821 13.1908C13.7341 13.0923 13.0297 12.7823 12.4518 12.2973C12.3633 12.2232 12.2785 12.1455 12.1972 12.0642C11.8286 11.6965 11.5364 11.2596 11.3372 10.7786C11.138 10.2976 11.0359 9.782 11.0366 9.2614V8.8108H10.8382C10.6913 8.81071 10.5477 8.76706 10.4255 8.68537C10.3033 8.60368 10.2082 8.48761 10.1519 8.35184C10.0957 8.21607 10.081 8.06668 10.1097 7.92255C10.1383 7.77842 10.2091 7.64602 10.3129 7.54208C10.4526 7.40328 10.6413 7.32512 10.8382 7.32455H11.0366V5.99427C11.0363 5.48519 11.16 4.9837 11.397 4.53315C11.634 4.0826 11.9771 3.69656 12.3968 3.40841L12.4016 3.42096C12.7213 4.20502 13.6793 4.77395 14.8117 4.77395C16.0398 4.77395 17.0629 4.10463 17.2882 3.21777C17.7939 3.48399 18.2173 3.88335 18.5125 4.37269C18.8078 4.86204 18.9636 5.42276 18.9633 5.99427V7.32455H19.1617C19.2333 7.32453 19.3046 7.33479 19.3733 7.35502Z" fill="#FFD8B7"/>
    <path d="M21.1512 14.1465L22.0279 15.928C22.5816 16.1335 23.0592 16.5035 23.3965 16.9884C23.7338 17.4733 23.9145 18.0498 23.9145 18.6405V18.6465H25.6225L27.8366 14.1465H21.1512Z" fill="#50DD5A"/>
    <path d="M2.16333 14.1465L4.37747 18.6465H6.08544V18.6405C6.08544 18.0498 6.26622 17.4733 6.60348 16.9884C6.94075 16.5035 7.41834 16.1335 7.97209 15.928L8.84879 14.1465H2.16333Z" fill="#3090FC"/>
    <path d="M9.38129 15.748L13.0452 23.5409H16.9548L20.6187 15.748H9.38129Z" fill="#FF5A5A"/>
    <path d="M17.5673 15.3546V12.32L17.5482 12.2979C16.8342 12.897 15.932 13.2253 15 13.2253C14.068 13.2253 13.1657 12.897 12.4518 12.2979L12.4327 12.32V15.3546L12.4261 15.3648H17.5739L17.5673 15.3546Z" fill="#EFC597"/>
    <path d="M27.9137 18.6465H25.6225L27.8366 14.1465H27.9711C28.1905 14.1464 28.4077 14.1896 28.6104 14.2735C28.813 14.3575 28.9972 14.4805 29.1523 14.6356C29.3074 14.7907 29.4304 14.9749 29.5144 15.1776C29.5983 15.3802 29.6415 15.5974 29.6414 15.8168V18.6465H27.9137Z" fill="#6D7486"/>
    <path d="M20.9223 23.5409H16.9548L20.6187 15.748H21.0221C21.402 15.7478 21.7783 15.8224 22.1293 15.9677C22.4804 16.1129 22.7993 16.326 23.068 16.5946C23.3366 16.8633 23.5496 17.1822 23.6949 17.5333C23.8402 17.8843 23.9148 18.2606 23.9145 18.6405V23.5409H20.9223Z" fill="#082567"/>
    <path d="M21.1512 14.1465L22.0279 15.928C21.7061 15.8085 21.3654 15.7476 21.0221 15.7481H19.3488V15.723C19.3729 15.2969 19.5591 14.8961 19.8692 14.603C20.1794 14.3098 20.59 14.1465 21.0167 14.1465H21.1512Z" fill="#6D7486"/>
    <path d="M9.07768 23.5409H6.08545V18.6405C6.08518 18.2606 6.15982 17.8843 6.30508 17.5333C6.45034 17.1822 6.66339 16.8633 6.93203 16.5946C7.20067 16.326 7.51963 16.1129 7.87068 15.9677C8.22173 15.8224 8.59797 15.7478 8.97788 15.748H9.38127L13.0452 23.5409H9.07768Z" fill="#082567"/>
    <path d="M10.6518 15.7331V15.7481H8.97788C8.63458 15.7476 8.29395 15.8085 7.97211 15.928L8.8488 14.1465H8.98326C9.41179 14.1465 9.82393 14.3112 10.1345 14.6065C10.445 14.9018 10.6302 15.3052 10.6518 15.7331Z" fill="#6D7486"/>
    <path d="M2.08627 18.6465H0.358582V15.8168C0.358542 15.5974 0.40172 15.3802 0.485647 15.1776C0.569575 14.9749 0.692608 14.7907 0.847719 14.6356C1.00283 14.4805 1.18698 14.3575 1.38965 14.2735C1.59232 14.1896 1.80954 14.1464 2.0289 14.1465H2.16336L4.37751 18.6465H2.08627Z" fill="#6D7486"/>
    <path d="M26.4352 14.1486C26.4429 14.2091 26.4467 14.2699 26.4466 14.3309C26.4469 14.5356 26.4066 14.7383 26.3283 14.9275C26.2499 15.1166 26.135 15.2883 25.99 15.4329L25.191 14.8885L25.0207 14.8663C25.0712 14.8451 25.1142 14.8095 25.1445 14.7639C25.1748 14.7182 25.191 14.6647 25.191 14.61V14.0518C25.191 13.9971 25.1748 13.9435 25.1445 13.8979C25.1142 13.8523 25.0712 13.8167 25.0207 13.7954L25.191 13.7733L25.9805 13.2361L25.99 13.2295C26.2381 13.4767 26.3951 13.8007 26.4352 14.1486Z" fill="#FFFD54"/>
    <path d="M23.7968 13.7733L23.8787 13.8552C23.8526 13.8809 23.832 13.9115 23.8179 13.9452C23.8039 13.979 23.7967 14.0152 23.7968 14.0518V14.61C23.7967 14.6466 23.8039 14.6829 23.818 14.7168C23.832 14.7506 23.8527 14.7814 23.8787 14.8072L23.7968 14.8885L22.9978 15.4329C22.8529 15.2883 22.738 15.1165 22.6598 14.9274C22.5815 14.7383 22.5414 14.5356 22.5418 14.3309C22.5417 14.2699 22.5455 14.2091 22.5532 14.1486C22.5931 13.8008 22.7498 13.4767 22.9978 13.2295L23.0073 13.2361L23.7968 13.7733Z" fill="#FFFD54"/>
    <path d="M4.80899 13.7733L4.89086 13.8552C4.86482 13.8809 4.84417 13.9115 4.83011 13.9452C4.81605 13.979 4.80887 14.0152 4.80899 14.0518V14.61C4.80892 14.6466 4.81612 14.6829 4.83018 14.7168C4.84423 14.7506 4.86485 14.7814 4.89086 14.8072L4.80899 14.8885L4.00998 15.4329C3.86502 15.2883 3.75006 15.1166 3.6717 14.9275C3.59335 14.7383 3.55315 14.5356 3.55341 14.3309C3.5533 14.2699 3.55709 14.2091 3.56476 14.1486C3.60491 13.8007 3.76186 13.4767 4.00998 13.2295L4.01954 13.2361L4.80899 13.7733Z" fill="#FFFD54"/>
    <path d="M7.44678 14.1486C7.45445 14.2091 7.45824 14.2699 7.45814 14.3309C7.45851 14.5356 7.41842 14.7383 7.34016 14.9274C7.26191 15.1165 7.14704 15.2883 7.00216 15.4329L6.20316 14.8885L6.03284 14.8663C6.0833 14.8451 6.12638 14.8095 6.15667 14.7639C6.18697 14.7182 6.20314 14.6647 6.20316 14.61V14.0518C6.20314 13.9971 6.18697 13.9435 6.15667 13.8979C6.12638 13.8523 6.0833 13.8167 6.03284 13.7954L6.20316 13.7733L6.9926 13.2361L7.00216 13.2295C7.2501 13.4767 7.40685 13.8008 7.44678 14.1486Z" fill="#FFFD54"/>
    <path d="M25.191 14.0519V14.6101C25.191 14.6648 25.1749 14.7184 25.1446 14.764C25.1143 14.8096 25.0712 14.8452 25.0207 14.8665C24.9866 14.8812 24.9497 14.8888 24.9125 14.8886H24.0759C24.0393 14.8887 24.003 14.8815 23.9691 14.8676C23.9353 14.8536 23.9045 14.8331 23.8786 14.8072C23.8527 14.7814 23.8321 14.7506 23.8181 14.7168C23.804 14.683 23.7968 14.6467 23.7968 14.6101V14.0519C23.7971 13.9781 23.8266 13.9073 23.8789 13.8551C23.9312 13.8029 24.002 13.7736 24.0759 13.7734H24.9125C24.9497 13.7733 24.9866 13.7808 25.0207 13.7956C25.0712 13.8168 25.1143 13.8524 25.1446 13.898C25.1749 13.9436 25.191 13.9972 25.191 14.0519Z" fill="#F0B640"/>
    <path d="M6.20318 14.0519V14.6101C6.20317 14.6648 6.187 14.7184 6.1567 14.764C6.1264 14.8096 6.08333 14.8452 6.03286 14.8665C5.9985 14.8812 5.96148 14.8887 5.9241 14.8886H5.08745C5.01359 14.8886 4.94275 14.8592 4.89053 14.807C4.8383 14.7548 4.80896 14.684 4.80896 14.6101V14.0519C4.80924 13.9782 4.83867 13.9075 4.89084 13.8553C4.943 13.8032 5.01367 13.7737 5.08745 13.7734H5.9241C5.96148 13.7733 5.9985 13.7808 6.03286 13.7956C6.08333 13.8168 6.1264 13.8524 6.1567 13.898C6.187 13.9436 6.20317 13.9972 6.20318 14.0519Z" fill="#F0B640"/>
    <path d="M15.9658 15.1651C15.8924 15.1227 15.8091 15.1004 15.7243 15.1006H14.2757C14.2123 15.1005 14.1495 15.113 14.0909 15.1372C14.0323 15.1615 13.979 15.1971 13.9342 15.2419C13.8893 15.2868 13.8538 15.34 13.8295 15.3986C13.8053 15.4572 13.7928 15.52 13.7928 15.5835V16.5498C13.7926 16.6133 13.805 16.6762 13.8291 16.7348C13.8533 16.7935 13.8889 16.8469 13.9338 16.8917C13.9787 16.9366 14.032 16.9722 14.0907 16.9964C14.1493 17.0206 14.2122 17.0329 14.2757 17.0327H15.7243C15.7878 17.0329 15.8507 17.0206 15.9094 16.9964C15.9681 16.9722 16.0214 16.9366 16.0663 16.8917C16.1112 16.8469 16.1467 16.7935 16.1709 16.7348C16.1951 16.6762 16.2074 16.6133 16.2072 16.5498V15.5835C16.2072 15.4987 16.1849 15.4154 16.1425 15.3419C16.1001 15.2685 16.0392 15.2075 15.9658 15.1651Z" fill="#F0B640"/>
    <path d="M18.3622 15.7506C18.292 15.1483 18.0201 14.5874 17.5907 14.1592L17.5739 14.1693L15.9682 15.1608L15.9658 15.1656C16.0392 15.208 16.1001 15.2689 16.1425 15.3424C16.1849 15.4158 16.2072 15.4991 16.2072 15.5839V16.5502C16.2071 16.6351 16.1848 16.7184 16.1424 16.7919C16.1001 16.8655 16.0392 16.9266 15.9658 16.9691L15.9682 16.9733L17.5907 17.9749C17.8788 17.6865 18.098 17.3365 18.2316 16.9513C18.3652 16.566 18.4099 16.1556 18.3622 15.7506Z" fill="#FFFD54"/>
    <path d="M13.7928 16.5502V15.5839C13.7928 15.4991 13.8151 15.4158 13.8575 15.3424C13.8999 15.2689 13.9608 15.208 14.0343 15.1656L14.0319 15.1608L12.4261 14.1693L12.4094 14.1592C11.9035 14.6652 11.6193 15.3515 11.6193 16.067C11.6193 16.7826 11.9035 17.4688 12.4094 17.9749L14.0319 16.9733L14.0343 16.9691C13.9609 16.9266 13.8999 16.8655 13.8576 16.7919C13.8152 16.7184 13.7929 16.6351 13.7928 16.5502Z" fill="#FFFD54"/>
    <path d="M14.2446 12.297C14.1562 12.2229 14.0713 12.1453 13.99 12.064C13.6215 11.6963 13.3292 11.2594 13.13 10.7784C12.9309 10.2974 12.8287 9.78179 12.8295 9.26119V5.99406C12.8288 5.42429 12.9841 4.86521 13.2785 4.37741C12.8691 4.13836 12.5584 3.80543 12.4016 3.42075L12.3968 3.4082C11.9771 3.69635 11.634 4.08239 11.397 4.53294C11.16 4.98349 11.0363 5.48499 11.0366 5.99406V7.32434H10.8382C10.6413 7.32491 10.4526 7.40307 10.3129 7.54187C10.2091 7.64581 10.1383 7.77821 10.1097 7.92234C10.081 8.06647 10.0957 8.21586 10.1519 8.35163C10.2082 8.48741 10.3033 8.60347 10.4255 8.68516C10.5477 8.76685 10.6913 8.8105 10.8382 8.81059H11.0366V9.26119C11.0359 9.78179 11.138 10.2974 11.3372 10.7784C11.5364 11.2594 11.8286 11.6963 12.1972 12.064C12.2785 12.1453 12.3633 12.2229 12.4518 12.297C12.9229 12.6919 13.4792 12.972 14.0769 13.1152C14.6747 13.2585 15.2975 13.261 15.8964 13.1225C15.2883 12.9818 14.7222 12.6989 14.2446 12.297Z" fill="#FFE8D7"/>
    <path d="M7.87827 18.6405C7.87821 18.096 8.03186 17.5626 8.32153 17.1015C8.61121 16.6405 9.02514 16.2706 9.51572 16.0344L9.38108 15.748H8.9777C8.59778 15.7478 8.22154 15.8224 7.8705 15.9677C7.51945 16.1129 7.20048 16.326 6.93184 16.5946C6.6632 16.8633 6.45016 17.1822 6.3049 17.5333C6.15963 17.8843 6.085 18.2606 6.08527 18.6405V23.5409H7.87809V18.6405H7.87827Z" fill="#082567"/>
    <path d="M15 18.5928C14.8813 18.5928 14.7653 18.628 14.6667 18.6939C14.568 18.7598 14.4911 18.8535 14.4456 18.9632C14.4002 19.0728 14.3883 19.1935 14.4115 19.3099C14.4346 19.4263 14.4918 19.5332 14.5757 19.6171C14.6596 19.701 14.7665 19.7582 14.8829 19.7814C14.9993 19.8045 15.12 19.7926 15.2296 19.7472C15.3393 19.7018 15.433 19.6249 15.4989 19.5263C15.5649 19.4276 15.6001 19.3116 15.6001 19.1929C15.5999 19.0338 15.5366 18.8813 15.4241 18.7688C15.3116 18.6563 15.1591 18.593 15 18.5928Z" fill="#284268"/>
    <path d="M15 21.0928C14.8813 21.0928 14.7653 21.128 14.6666 21.1939C14.568 21.2598 14.4911 21.3536 14.4456 21.4632C14.4002 21.5728 14.3883 21.6935 14.4115 21.8099C14.4346 21.9263 14.4918 22.0332 14.5757 22.1171C14.6596 22.2011 14.7666 22.2582 14.883 22.2814C14.9994 22.3045 15.12 22.2926 15.2297 22.2472C15.3393 22.2018 15.433 22.1249 15.499 22.0262C15.5649 21.9275 15.6001 21.8115 15.6001 21.6928C15.5999 21.5337 15.5366 21.3812 15.4241 21.2687C15.3116 21.1562 15.1591 21.093 15 21.0928Z" fill="#284268"/>
    <path d="M27.9713 13.7879H26.7268C26.6493 13.5246 26.5156 13.2811 26.335 13.0744V12.301C26.8355 11.8178 27.125 11.1565 27.1404 10.461C27.2689 10.4192 27.3846 10.3451 27.4761 10.2458C27.5677 10.1465 27.6322 10.0252 27.6633 9.89375C27.6945 9.76229 27.6913 9.62501 27.654 9.49514C27.6168 9.36526 27.5467 9.24716 27.4506 9.15221C27.7505 8.20458 27.713 7.18232 27.3444 6.25924L27.2658 6.06149C27.3346 5.89936 27.37 5.725 27.3698 5.54886V5.26021C27.3698 5.20145 27.3554 5.14358 27.3277 5.0917C27.3001 5.03983 27.2602 4.99554 27.2114 4.96273C27.1627 4.92992 27.1066 4.9096 27.0481 4.90356C26.9897 4.89751 26.9306 4.90593 26.8762 4.92806C26.3426 5.14511 24.78 5.07639 23.4678 4.91205C23.3624 4.89794 23.2554 4.90267 23.1518 4.92603C22.9486 4.97308 22.7674 5.08775 22.6379 5.25126C22.5084 5.41476 22.4383 5.6174 22.439 5.82597C22.439 5.8809 22.4172 5.93356 22.3783 5.9724C22.3395 6.01125 22.2868 6.0331 22.2319 6.03316C22.0661 6.03258 21.9039 6.08209 21.7666 6.17519C21.6294 6.2683 21.5234 6.40067 21.4626 6.55499L21.4407 6.60974C21.1209 7.41014 21.1209 8.30285 21.4407 9.10326L21.4838 9.21137C21.4019 9.31028 21.3455 9.42772 21.3195 9.55345C21.2935 9.67917 21.2986 9.80935 21.3345 9.93262C21.3704 10.0559 21.4359 10.1685 21.5253 10.2607C21.6147 10.3528 21.7253 10.4216 21.8474 10.4612C21.8629 11.1567 22.1524 11.818 22.6529 12.3012V13.0744C22.4723 13.2811 22.3386 13.5246 22.261 13.7879H21.0166C20.5528 13.788 20.1029 13.947 19.7421 14.2384C19.3812 14.5298 19.131 14.9361 19.0333 15.3895H18.6633C18.5455 14.8665 18.291 14.384 17.9258 13.9915V12.4389C18.366 12.035 18.7174 11.5439 18.9577 10.9969C19.198 10.4499 19.3221 9.85892 19.3219 9.26145V9.15818C19.5375 9.12671 19.739 9.03192 19.9007 8.88583C20.0624 8.73973 20.1771 8.54891 20.2302 8.33755C20.2833 8.12619 20.2725 7.90381 20.1991 7.69862C20.1257 7.49342 19.993 7.31463 19.8179 7.18493C20.3758 5.55718 20.3314 3.78332 19.6927 2.18551L19.5151 1.73916C19.6491 1.46491 19.7186 1.16367 19.7183 0.858461V0.358501C19.7183 0.299737 19.7038 0.241876 19.6762 0.19001C19.6486 0.138144 19.6086 0.0938621 19.5599 0.0610605C19.5111 0.0282588 19.4551 0.00794303 19.3966 0.00190066C19.3382 -0.00414171 19.2791 0.0042747 19.2247 0.026409C18.1908 0.446887 15.3283 0.28368 13.1909 0.0160704C13.0393 -0.00457175 12.8852 0.00194423 12.736 0.0353133C12.4418 0.10348 12.1796 0.2695 11.9921 0.506183C11.8047 0.742866 11.7032 1.03618 11.7042 1.3381C11.7041 1.50289 11.6385 1.66089 11.522 1.7774C11.4055 1.89391 11.2475 1.9594 11.0827 1.9595C10.848 1.9587 10.6185 2.02876 10.4243 2.16052C10.23 2.29227 10.0801 2.47959 9.99406 2.69796L9.95642 2.79262C9.42735 4.11648 9.42735 5.59305 9.95642 6.91691L10.0925 7.25898C9.93933 7.39975 9.8292 7.58104 9.77488 7.78185C9.72056 7.98265 9.72426 8.19474 9.78556 8.39353C9.84686 8.59232 9.96324 8.76966 10.1212 8.90499C10.2792 9.04033 10.4723 9.12812 10.6781 9.15818V9.26145C10.678 9.85893 10.802 10.4499 11.0423 10.9969C11.2827 11.544 11.6341 12.035 12.0743 12.439V13.9913C11.7091 14.3839 11.4545 14.8663 11.3367 15.3894H10.9668C10.8696 14.9357 10.6196 14.5291 10.2586 14.2376C9.8976 13.9461 9.4475 13.7873 8.98351 13.7878H7.73904C7.66148 13.5244 7.52778 13.281 7.34713 13.0743V12.301C7.8477 11.8178 8.13721 11.1565 8.15265 10.461C8.28115 10.4192 8.39675 10.3451 8.48832 10.2458C8.5799 10.1464 8.64436 10.0252 8.67551 9.89374C8.70666 9.76227 8.70345 9.62499 8.66619 9.49512C8.62893 9.36525 8.55887 9.24716 8.46275 9.15221C8.76274 8.20457 8.72524 7.18228 8.35661 6.25918L8.27797 6.06149C8.3468 5.89936 8.38219 5.725 8.38201 5.54886V5.26021C8.38206 5.20143 8.36765 5.14353 8.34005 5.09162C8.31245 5.03972 8.27252 4.99539 8.22376 4.96255C8.175 4.92971 8.11892 4.90936 8.06045 4.90329C8.00197 4.89723 7.94291 4.90563 7.88845 4.92776C7.35496 5.14481 5.79221 5.07609 4.4801 4.91175C4.37476 4.89764 4.26776 4.90237 4.16408 4.92573C3.96085 4.97275 3.77961 5.08741 3.65009 5.25093C3.52056 5.41446 3.45043 5.61713 3.4512 5.82573C3.45113 5.88066 3.42928 5.93333 3.39044 5.97217C3.3516 6.01101 3.29894 6.03286 3.244 6.03292C3.07811 6.03236 2.91591 6.08189 2.77862 6.17502C2.64134 6.26816 2.53537 6.40058 2.47458 6.55493L2.45289 6.6095C2.13299 7.40989 2.13299 8.30263 2.45289 9.10302L2.49592 9.21113C2.41404 9.31003 2.35762 9.42747 2.33158 9.55319C2.30554 9.67892 2.31068 9.80911 2.34655 9.93239C2.38241 10.0557 2.44791 10.1683 2.53732 10.2604C2.62674 10.3526 2.73735 10.4214 2.8595 10.461C2.875 11.1565 3.1645 11.8178 3.66502 12.301V13.0744C3.48441 13.2811 3.35072 13.5246 3.27317 13.7879H2.02877C1.49089 13.7885 0.975212 14.0025 0.594875 14.3828C0.214538 14.7631 0.000601069 15.2788 0 15.8167V18.6464C0 18.7415 0.0377774 18.8327 0.105021 18.9C0.172266 18.9672 0.263468 19.005 0.358566 19.005H5.72713V23.5409C5.72713 23.636 5.76491 23.7271 5.83215 23.7944C5.8994 23.8616 5.9906 23.8994 6.0857 23.8994H23.9143C24.0094 23.8994 24.1006 23.8616 24.1678 23.7944C24.2351 23.7271 24.2729 23.636 24.2729 23.5409V19.005H29.6414C29.7365 19.005 29.8277 18.9672 29.895 18.9C29.9622 18.8327 30 18.7415 30 18.6464V15.8167C29.9994 15.2788 29.7855 14.7632 29.4051 14.3828C29.0248 14.0025 28.5092 13.7885 27.9713 13.7879ZM26.9217 7.56412C26.7841 7.28078 26.5862 7.0309 26.342 6.83193C26.4804 6.80107 26.6128 6.74788 26.7341 6.67446C26.834 6.9619 26.897 7.26083 26.9217 7.56412ZM22.1071 6.87472L22.1289 6.81997C22.137 6.7993 22.1512 6.78156 22.1696 6.76908C22.188 6.7566 22.2097 6.74997 22.2319 6.75005C22.477 6.74977 22.7119 6.65229 22.8852 6.47901C23.0584 6.30572 23.1559 6.07078 23.1562 5.82573C23.156 5.77902 23.1716 5.73363 23.2006 5.69698C23.2295 5.66033 23.2701 5.63459 23.3156 5.62398C23.3364 5.62016 23.3578 5.61998 23.3787 5.62344C25.0983 5.83858 26.0886 5.79675 26.6286 5.71685C26.5921 5.84084 26.5164 5.94969 26.413 6.02717C26.3095 6.10466 26.1838 6.14661 26.0545 6.14677H24.982C24.8869 6.14677 24.7957 6.18455 24.7284 6.25179C24.6612 6.31903 24.6234 6.41023 24.6234 6.50533C24.6234 6.60043 24.6612 6.69163 24.7284 6.75888C24.7957 6.82612 24.8869 6.8639 24.982 6.8639H25.4545C25.3393 7.20143 24.8907 7.45129 24.3851 7.45129C23.8963 7.45129 23.4616 7.22282 23.3266 6.89551L23.3248 6.89073C23.3051 6.84037 23.2743 6.79512 23.2347 6.75834C23.195 6.72157 23.1476 6.69423 23.0959 6.67837C23.0443 6.66251 22.9897 6.65855 22.9362 6.66677C22.8828 6.67499 22.8319 6.69519 22.7874 6.72585C22.361 7.01953 22.0535 7.45586 21.9203 7.95621C21.9064 7.58663 21.97 7.21823 22.1071 6.87472ZM22.5638 10.4006V10.1407C22.5638 10.0456 22.526 9.95435 22.4588 9.88711C22.3916 9.81986 22.3004 9.78209 22.2053 9.78209H22.0908C22.0725 9.78155 22.055 9.77388 22.0422 9.76071C22.0294 9.74754 22.0223 9.7299 22.0223 9.71154C22.0223 9.69318 22.0294 9.67554 22.0422 9.66236C22.055 9.64919 22.0725 9.64152 22.0908 9.64099H22.2053C22.3004 9.64099 22.3916 9.60321 22.4588 9.53597C22.526 9.46873 22.5638 9.37752 22.5638 9.28242V8.51456C22.564 8.16634 22.6891 7.82973 22.9164 7.56597C23.2511 7.93792 23.7914 8.16842 24.3854 8.16842C25.0417 8.16842 25.6335 7.88061 25.9524 7.44209C26.1014 7.57817 26.2204 7.74385 26.3016 7.92852C26.3829 8.11319 26.4248 8.31279 26.4246 8.51456V9.28266C26.4246 9.37776 26.4623 9.46896 26.5296 9.53621C26.5968 9.60345 26.688 9.64123 26.7831 9.64123H26.8976C26.907 9.64095 26.9164 9.64258 26.9252 9.646C26.934 9.64942 26.942 9.65457 26.9488 9.66115C26.9556 9.66773 26.961 9.6756 26.9646 9.68429C26.9683 9.69299 26.9702 9.70234 26.9702 9.71178C26.9702 9.72122 26.9683 9.73056 26.9646 9.73926C26.961 9.74796 26.9556 9.75583 26.9488 9.7624C26.942 9.76898 26.934 9.77413 26.9252 9.77756C26.9164 9.78098 26.907 9.7826 26.8976 9.78233H26.7831C26.688 9.78233 26.5968 9.8201 26.5296 9.88735C26.4623 9.95459 26.4246 10.0458 26.4246 10.1409V10.4009C26.428 10.6565 26.3807 10.9104 26.2853 11.1476C26.1898 11.3848 26.0482 11.6007 25.8686 11.7827C25.6891 11.9648 25.4751 12.1093 25.2392 12.208C25.0033 12.3066 24.7502 12.3574 24.4945 12.3574C24.2388 12.3574 23.9856 12.3066 23.7497 12.208C23.5138 12.1093 23.2999 11.9648 23.1203 11.7827C22.9407 11.6007 22.7991 11.3848 22.7037 11.1476C22.6082 10.9104 22.5609 10.6565 22.5644 10.4009L22.5638 10.4006ZM24.0758 13.4141C24.0275 13.4142 23.9794 13.4199 23.9324 13.431L23.3706 13.0481V12.7971C23.7222 12.9623 24.106 13.048 24.4945 13.048C24.883 13.048 25.2667 12.9623 25.6184 12.7971V13.0481L25.0563 13.431C25.0093 13.4199 24.9612 13.4142 24.9129 13.4141H24.0758ZM24.8328 14.1312V14.5296H24.1554V14.1312H24.8328ZM23.4442 14.6944L23.0713 14.9485C22.9596 14.7617 22.9006 14.5482 22.9006 14.3306C22.9006 14.113 22.9596 13.8995 23.0713 13.7127L23.4442 13.9668C23.4402 13.9949 23.4381 14.0233 23.4379 14.0517V14.6095C23.4381 14.6379 23.4402 14.6663 23.4442 14.6944ZM25.5431 13.9668L25.9161 13.7127C26.0278 13.8995 26.0868 14.113 26.0868 14.3306C26.0868 14.5482 26.0278 14.7617 25.9161 14.9485L25.5431 14.6944C25.5472 14.6663 25.5493 14.6379 25.5495 14.6095V14.0517C25.5494 14.0233 25.5473 13.9949 25.5434 13.9668H25.5431ZM20.9299 14.5092L21.3721 15.4086C21.2557 15.3959 21.1386 15.3895 21.0215 15.3894H19.7768C19.8611 15.1455 20.0155 14.9318 20.2206 14.7752C20.4258 14.6187 20.6726 14.5261 20.9301 14.5092H20.9299ZM18.0219 16.0668C18.0235 16.5864 17.8507 17.0914 17.5314 17.5011L16.5227 16.8139C16.5511 16.7287 16.5656 16.6396 16.5657 16.5499V16.304C16.7563 16.2602 16.9563 16.2888 17.1269 16.3842C17.2111 16.4285 17.3094 16.4376 17.4002 16.4094C17.491 16.3812 17.5669 16.318 17.6112 16.2339C17.6555 16.1497 17.6645 16.0514 17.6363 15.9606C17.6081 15.8698 17.545 15.7939 17.4608 15.7496C17.1871 15.6018 16.8745 15.5418 16.5654 15.5776C16.5648 15.49 16.5504 15.4031 16.5227 15.32L17.5314 14.6327C17.8508 15.0424 18.0236 15.5473 18.0222 16.0668H18.0219ZM15.7242 14.7424H14.2755C14.1753 14.7425 14.0759 14.7608 13.9822 14.7962L12.7913 13.985V12.9745C13.4591 13.373 14.2223 13.5834 15 13.5834C15.7777 13.5834 16.5409 13.373 17.2088 12.9745V13.985L16.0178 14.7962C15.9241 14.7608 15.8247 14.7425 15.7244 14.7424H15.7242ZM15.8486 15.5839V16.5498C15.8486 16.5828 15.8355 16.6144 15.8121 16.6378C15.7888 16.6611 15.7572 16.6742 15.7242 16.6742H14.2755C14.2425 16.6742 14.2109 16.6611 14.1876 16.6377C14.1643 16.6144 14.1512 16.5828 14.1512 16.5498V15.5839C14.1512 15.5509 14.1643 15.5193 14.1876 15.496C14.2109 15.4726 14.2425 15.4595 14.2755 15.4595H15.7244C15.7574 15.4596 15.7889 15.4727 15.8122 15.496C15.8355 15.5193 15.8486 15.5509 15.8486 15.5839ZM19.0263 2.45061C19.5165 3.67742 19.6196 5.02481 19.322 6.31195V5.99474C19.3227 5.35807 19.1494 4.73332 18.8206 4.18811C18.4919 3.64289 18.0203 3.19797 17.4568 2.90151C17.4346 2.88983 17.4113 2.88053 17.3871 2.87378H17.7027C18.1796 2.87412 18.6411 2.7045 19.0043 2.39533L19.0263 2.45061ZM10.6227 3.05772L10.6605 2.96306C10.6938 2.87836 10.752 2.80569 10.8273 2.75458C10.9026 2.70348 10.9916 2.67631 11.0827 2.67663C11.4375 2.67623 11.7777 2.53511 12.0285 2.28422C12.2794 2.03332 12.4206 1.69316 12.421 1.33834C12.4204 1.19823 12.4674 1.06209 12.5543 0.952205C12.6413 0.842321 12.7629 0.765209 12.8994 0.733501C12.9658 0.71964 13.0342 0.717617 13.1013 0.727525C14.1207 0.855114 17.3125 1.20561 19.0009 0.837664V0.858341C19.0005 1.20254 18.8636 1.53254 18.6203 1.77594C18.3769 2.01934 18.0469 2.15625 17.7027 2.15665H15.8453C15.7502 2.15665 15.659 2.19443 15.5917 2.26167C15.5245 2.32891 15.4867 2.42012 15.4867 2.51521C15.4867 2.61031 15.5245 2.70151 15.5917 2.76876C15.659 2.836 15.7502 2.87378 15.8453 2.87378H17.1893C17.1276 2.89129 17.0717 2.9251 17.0276 2.97167C16.9834 3.01823 16.9526 3.07582 16.9383 3.1384C16.744 3.87914 15.8514 4.41585 14.8114 4.41585C13.8601 4.41585 13.0066 3.95217 12.7346 3.28804L12.7303 3.27723C12.7106 3.227 12.6797 3.18189 12.6401 3.14526C12.6004 3.10863 12.553 3.08142 12.5014 3.06566C12.4498 3.0499 12.3953 3.046 12.3419 3.05425C12.2886 3.0625 12.2378 3.08269 12.1933 3.1133C11.7261 3.43478 11.344 3.86504 11.08 4.367C10.816 4.86896 10.678 5.42758 10.6778 5.99474V6.79057L10.6226 6.65181C10.1617 5.49811 10.1617 4.21139 10.6227 3.05772ZM11.3951 9.26145V8.81121C11.3951 8.71611 11.3573 8.62491 11.2901 8.55767C11.2228 8.49042 11.1316 8.45264 11.0365 8.45264H10.8384C10.7364 8.45264 10.6386 8.41213 10.5664 8.34001C10.4943 8.26789 10.4538 8.17007 10.4538 8.06808C10.4538 7.96609 10.4943 7.86828 10.5664 7.79616C10.6386 7.72404 10.7364 7.68352 10.8384 7.68352H11.0365C11.1316 7.68352 11.2228 7.64574 11.2901 7.5785C11.3573 7.51125 11.3951 7.42005 11.3951 7.32495V5.99474C11.3952 5.61169 11.4744 5.23279 11.6278 4.8818C11.7812 4.5308 12.0054 4.21529 12.2865 3.95503C12.7845 4.6736 13.7422 5.13298 14.8115 5.13298C15.9801 5.13298 17.0175 4.57177 17.4625 3.74784C17.8168 4.00552 18.1051 4.34349 18.3037 4.73406C18.5023 5.12464 18.6055 5.5567 18.6048 5.99485V7.32507C18.6048 7.42017 18.6426 7.51137 18.7099 7.57862C18.7771 7.64586 18.8683 7.68364 18.9634 7.68364H19.1616C19.2636 7.68364 19.3614 7.72416 19.4336 7.79628C19.5057 7.8684 19.5462 7.96621 19.5462 8.0682C19.5462 8.17019 19.5057 8.26801 19.4336 8.34013C19.3614 8.41225 19.2636 8.45276 19.1616 8.45276H18.9634C18.8683 8.45276 18.7771 8.49054 18.7099 8.55779C18.6426 8.62503 18.6048 8.71623 18.6048 8.81133V9.26157C18.6068 9.7362 18.515 10.2065 18.3347 10.6456C18.1544 11.0847 17.8891 11.4838 17.5542 11.8201C17.2193 12.1564 16.8212 12.4233 16.3829 12.6053C15.9446 12.7874 15.4746 12.8811 15 12.8811C14.5253 12.8811 14.0554 12.7874 13.617 12.6053C13.1787 12.4233 12.7807 12.1564 12.4457 11.8201C12.1108 11.4838 11.8456 11.0847 11.6653 10.6456C11.485 10.2065 11.3932 9.7362 11.3951 9.26157V9.26145ZM12.4683 14.6328L13.4771 15.32C13.4487 15.4049 13.4342 15.4938 13.434 15.5833C13.1166 15.531 12.791 15.5947 12.5166 15.7626C12.437 15.8134 12.3806 15.8934 12.3597 15.9855C12.3388 16.0775 12.3551 16.1741 12.4049 16.2542C12.4547 16.3344 12.5342 16.3917 12.626 16.4136C12.7177 16.4356 12.8145 16.4205 12.8952 16.3716C12.9764 16.326 13.0661 16.2973 13.1587 16.2874C13.2513 16.2774 13.345 16.2863 13.434 16.3135V16.5501C13.4341 16.6398 13.4487 16.7289 13.4771 16.814L12.4683 17.5013C12.1504 17.0909 11.9778 16.5864 11.9778 16.0672C11.9778 15.548 12.1504 15.0436 12.4683 14.6331V14.6328ZM9.06986 14.5092C9.32754 14.5258 9.57456 14.6182 9.77985 14.7748C9.98514 14.9314 10.1395 15.1453 10.2236 15.3894H8.97807C8.86092 15.3895 8.74386 15.3959 8.62739 15.4086L9.06986 14.5092ZM7.93386 7.56412C7.79624 7.28077 7.59841 7.03088 7.35418 6.83193C7.49256 6.80107 7.62499 6.74788 7.74628 6.67446C7.84613 6.9619 7.90916 7.26083 7.93386 7.56412ZM3.11952 6.87454L3.14122 6.81997C3.14935 6.7993 3.16354 6.78157 3.18192 6.76909C3.2003 6.75661 3.22203 6.74998 3.24424 6.75005C3.48926 6.74972 3.72415 6.65222 3.89739 6.47894C4.07062 6.30567 4.16806 6.07075 4.16833 5.82573C4.16812 5.77903 4.18376 5.73364 4.21271 5.69699C4.24165 5.66034 4.28217 5.6346 4.32765 5.62398C4.34853 5.62009 4.36993 5.61991 4.39088 5.62344C6.11044 5.83858 7.10068 5.79675 7.64074 5.71685C7.60424 5.84078 7.52867 5.9496 7.42528 6.02708C7.32189 6.10456 7.19623 6.14654 7.06703 6.14677H5.99402C5.89893 6.14677 5.80772 6.18455 5.74048 6.25179C5.67324 6.31903 5.63546 6.41023 5.63546 6.50533C5.63546 6.60043 5.67324 6.69163 5.74048 6.75888C5.80772 6.82612 5.89893 6.8639 5.99402 6.8639H6.46614C6.35104 7.20143 5.90241 7.45129 5.39677 7.45129C4.90799 7.45129 4.47323 7.22282 4.33835 6.89551L4.33643 6.89073C4.31677 6.84038 4.28597 6.79513 4.24635 6.75837C4.20673 6.7216 4.15931 6.69426 4.10764 6.67841C4.05596 6.66255 4.00137 6.65858 3.94795 6.6668C3.89452 6.67501 3.84365 6.6952 3.79912 6.72585C3.3729 7.01958 3.06559 7.45589 2.93259 7.95615C2.91873 7.58652 2.98241 7.21808 3.11952 6.87454ZM3.57622 10.4009V10.1409C3.57622 10.0458 3.53844 9.95459 3.47119 9.88735C3.40395 9.8201 3.31275 9.78233 3.21765 9.78233H3.10297C3.09353 9.7826 3.08413 9.78098 3.07534 9.77756C3.06654 9.77413 3.05851 9.76898 3.05174 9.7624C3.04497 9.75583 3.03958 9.74796 3.03591 9.73926C3.03223 9.73056 3.03034 9.72122 3.03034 9.71178C3.03034 9.70234 3.03223 9.69299 3.03591 9.68429C3.03958 9.6756 3.04497 9.66773 3.05174 9.66115C3.05851 9.65457 3.06654 9.64942 3.07534 9.646C3.08413 9.64258 3.09353 9.64095 3.10297 9.64123H3.21741C3.31251 9.64123 3.40371 9.60345 3.47095 9.53621C3.5382 9.46896 3.57598 9.37776 3.57598 9.28266V8.51456C3.57603 8.16639 3.70101 7.82979 3.92821 7.56597C4.26287 7.93792 4.80323 8.16842 5.39719 8.16842C6.05355 8.16842 6.64536 7.88067 6.9643 7.44209C7.11326 7.57818 7.23219 7.74386 7.31348 7.92852C7.39477 8.11319 7.43664 8.31279 7.43641 8.51456V9.28266C7.43641 9.37776 7.47419 9.46896 7.54144 9.53621C7.60868 9.60345 7.69988 9.64123 7.79498 9.64123H7.90942C7.92778 9.64176 7.9452 9.64943 7.958 9.6626C7.97079 9.67577 7.97795 9.69341 7.97795 9.71178C7.97795 9.73014 7.97079 9.74778 7.958 9.76095C7.9452 9.77412 7.92778 9.78179 7.90942 9.78233H7.79498C7.69988 9.78233 7.60868 9.8201 7.54144 9.88735C7.47419 9.95459 7.43641 10.0458 7.43641 10.1409V10.4009C7.4399 10.6565 7.39255 10.9104 7.29712 11.1476C7.20168 11.3848 7.06007 11.6007 6.8805 11.7827C6.70093 11.9648 6.48698 12.1093 6.25107 12.208C6.01517 12.3066 5.76202 12.3574 5.50631 12.3574C5.25061 12.3574 4.99746 12.3066 4.76156 12.208C4.52565 12.1093 4.3117 11.9648 4.13213 11.7827C3.95256 11.6007 3.81094 11.3848 3.71551 11.1476C3.62008 10.9104 3.57273 10.6565 3.57622 10.4009ZM5.08817 13.4143C5.03987 13.4145 4.99175 13.4201 4.94474 13.4312L4.38269 13.0484V12.7974C4.73434 12.9626 5.11807 13.0482 5.50658 13.0482C5.89509 13.0482 6.27883 12.9626 6.63048 12.7974V13.0484L6.06873 13.4312C6.02171 13.4201 5.9736 13.4145 5.9253 13.4143H5.08817ZM5.8451 14.1314V14.5298H5.16741V14.1314H5.8451ZM4.45703 14.6944L4.08406 14.9485C3.9724 14.7617 3.91343 14.5482 3.91343 14.3306C3.91343 14.113 3.9724 13.8995 4.08406 13.7127L4.45703 13.9668C4.45304 13.9949 4.45093 14.0233 4.4507 14.0517V14.6095C4.45079 14.6379 4.45276 14.6663 4.45661 14.6944H4.45703ZM6.55578 13.9668L6.92875 13.7127C7.04043 13.8995 7.0994 14.113 7.0994 14.3306C7.0994 14.5482 7.04043 14.7617 6.92875 14.9485L6.55572 14.6944C6.55974 14.6663 6.56185 14.6379 6.56205 14.6095V14.0517C6.56187 14.0233 6.55978 13.9949 6.55578 13.9668ZM2.445 18.2879V17.4024C2.445 17.3073 2.40722 17.2161 2.33998 17.1489C2.27273 17.0817 2.18153 17.0439 2.08643 17.0439C1.99134 17.0439 1.90013 17.0817 1.83289 17.1489C1.76565 17.2161 1.72787 17.3073 1.72787 17.4024V18.2879H0.717131V15.8167C0.71748 15.484 0.844107 15.1638 1.07143 14.9209C1.29874 14.6779 1.60981 14.5303 1.94175 14.5079L3.80139 18.2879H2.445ZM5.97173 17.4047C5.9353 17.3072 5.86925 17.2235 5.78285 17.1655C5.69645 17.1074 5.59403 17.0779 5.48998 17.081C5.38593 17.0841 5.28546 17.1197 5.20268 17.1828C5.11989 17.2459 5.05895 17.3334 5.02839 17.4329C4.99784 17.5324 4.99921 17.639 5.03232 17.7377C5.06542 17.8364 5.1286 17.9222 5.21298 17.9832C5.29737 18.0441 5.39872 18.0771 5.50281 18.0776C5.60691 18.078 5.70853 18.0458 5.79341 17.9855C5.77303 18.0846 5.75755 18.1855 5.74661 18.2877H4.60064L2.73944 14.5051H3.20319C3.2427 14.9516 3.43865 15.3698 3.75645 15.6859C3.8155 15.745 3.8933 15.7815 3.97644 15.7894C4.05957 15.7972 4.14282 15.7757 4.21183 15.7287L4.94396 15.2301C4.99098 15.2411 5.0391 15.2468 5.08739 15.2469H5.92404C5.97234 15.2467 6.02045 15.2411 6.06747 15.2301L6.79954 15.7287C6.86856 15.7757 6.95182 15.7972 7.03497 15.7894C7.11812 15.7816 7.19593 15.745 7.25498 15.6859C7.57279 15.3698 7.76873 14.9516 7.80825 14.5051H8.27223L7.71048 15.6465C6.92307 15.9823 6.29879 16.6136 5.97173 17.4047ZM9.43655 23.1822V21.3865C9.43655 21.2914 9.39878 21.2002 9.33153 21.1329C9.26429 21.0657 9.17309 21.0279 9.07799 21.0279C8.98289 21.0279 8.89169 21.0657 8.82444 21.1329C8.7572 21.2002 8.71942 21.2914 8.71942 21.3865V23.1822H6.44426V18.6404C6.44501 17.9686 6.71221 17.3245 7.18724 16.8495C7.66227 16.3745 8.30633 16.1073 8.97813 16.1065H9.15382L12.4807 23.1822H9.43655ZM13.2732 23.1822L9.94631 16.1065H11.2618C11.2697 16.9037 11.591 17.6658 12.1562 18.228C12.2152 18.2871 12.293 18.3237 12.3761 18.3315C12.4593 18.3393 12.5425 18.3178 12.6115 18.2708L13.9823 17.3372C14.076 17.3726 14.1754 17.3908 14.2756 17.391H15.7245C15.8248 17.3908 15.9242 17.3726 16.018 17.3372L17.3887 18.2708C17.4577 18.3178 17.541 18.3393 17.6241 18.3315C17.7072 18.3237 17.785 18.2871 17.8441 18.228C18.4092 17.6658 18.7305 16.9037 18.7385 16.1065H20.0539L16.727 23.1822H13.2732ZM23.5559 23.1822H21.2809V21.3865C21.2809 21.2914 21.2431 21.2002 21.1759 21.1329C21.1086 21.0657 21.0174 21.0279 20.9223 21.0279C20.8272 21.0279 20.736 21.0657 20.6688 21.1329C20.6015 21.2002 20.5637 21.2914 20.5637 21.3865V23.1822H17.5193L20.8462 16.1065H21.0219C21.6937 16.1073 22.3378 16.3745 22.8128 16.8495C23.2879 17.3245 23.5551 17.9686 23.5558 18.6404L23.5559 23.1822ZM24.2536 18.2878C24.2425 18.1856 24.2269 18.0849 24.2068 17.9857C24.2916 18.0457 24.3931 18.0777 24.497 18.0772C24.6009 18.0767 24.7021 18.0437 24.7863 17.9828C24.8705 17.9219 24.9335 17.8361 24.9665 17.7376C24.9995 17.6391 25.0009 17.5327 24.9704 17.4333C24.9399 17.334 24.8791 17.2467 24.7964 17.1836C24.7138 17.1206 24.6135 17.085 24.5096 17.0818C24.4058 17.0787 24.3035 17.1081 24.2172 17.166C24.1309 17.2239 24.0649 17.3073 24.0284 17.4047C23.7013 16.6135 23.0769 15.9823 22.2893 15.6465L21.7276 14.5051H22.1915C22.2311 14.9516 22.427 15.3698 22.7448 15.6859C22.8039 15.745 22.8817 15.7815 22.9648 15.7894C23.048 15.7972 23.1312 15.7757 23.2002 15.7287L23.9323 15.23C23.9793 15.2411 24.0274 15.2468 24.0757 15.2469H24.9124C24.9607 15.2468 25.0088 15.2411 25.0558 15.23L25.7879 15.7287C25.8569 15.7757 25.9402 15.7972 26.0233 15.7894C26.1065 15.7815 26.1843 15.745 26.2433 15.6859C26.5611 15.3698 26.7571 14.9516 26.7966 14.5051H27.2606L25.3994 18.2879L24.2536 18.2878ZM29.283 18.2878H28.2721V17.4024C28.2721 17.3073 28.2344 17.2161 28.1671 17.1489C28.0999 17.0817 28.0087 17.0439 27.9136 17.0439C27.8185 17.0439 27.7273 17.0817 27.66 17.1489C27.5928 17.2161 27.555 17.3073 27.555 17.4024V18.2879H26.1984L28.0581 14.5082C28.39 14.5306 28.7011 14.6781 28.9284 14.921C29.1558 15.1639 29.2824 15.484 29.2829 15.8167L29.283 18.2878Z" fill="#284268"/>
    <path d="M24.494 15.5479C24.3955 15.5478 24.2992 15.577 24.2172 15.6318C24.1353 15.6865 24.0715 15.7643 24.0338 15.8553C23.9961 15.9463 23.9862 16.0464 24.0054 16.143C24.0246 16.2396 24.0721 16.3284 24.1417 16.3981C24.2114 16.4677 24.3001 16.5152 24.3967 16.5344C24.4933 16.5536 24.5935 16.5437 24.6845 16.506C24.7755 16.4683 24.8533 16.4045 24.908 16.3226C24.9627 16.2407 24.9919 16.1444 24.9919 16.0459C24.9918 15.9139 24.9393 15.7873 24.8459 15.6939C24.7526 15.6005 24.626 15.548 24.494 15.5479Z" fill="#284268"/>
    <path d="M5.5061 15.5479C5.4076 15.5478 5.3113 15.577 5.22939 15.6318C5.14748 15.6865 5.08363 15.7643 5.04592 15.8553C5.00822 15.9463 4.99835 16.0464 5.01756 16.143C5.03677 16.2396 5.0842 16.3284 5.15385 16.3981C5.2235 16.4677 5.31224 16.5152 5.40886 16.5344C5.50547 16.5536 5.60561 16.5437 5.69662 16.506C5.78763 16.4683 5.86542 16.4045 5.92015 16.3226C5.97488 16.2407 6.00409 16.1444 6.00409 16.0459C6.00395 15.9139 5.95144 15.7873 5.85808 15.6939C5.76472 15.6005 5.63814 15.548 5.5061 15.5479Z" fill="#284268"/>
</svg>
