<svg width="20" height="26" viewBox="0 0 20 26" fill="none" xmlns="http://www.w3.org/2000/svg">
    <path fill-rule="evenodd" clip-rule="evenodd" d="M18.8506 2.21996C19.4836 2.21996 20 2.74363 20 3.38561V24.8343C20 25.4763 19.4836 26 18.8506 26H1.14944C0.516364 26 0 25.4763 0 24.8343V3.38566C0 2.74363 0.516364 2.22001 1.14944 2.22001H4.74771V3.42225H2.11585C1.85938 3.42225 1.62673 3.52814 1.45828 3.69892C1.28988 3.8697 1.18547 4.10569 1.18547 4.3658V23.8543C1.18547 24.1144 1.28988 24.3504 1.45828 24.5211C1.62668 24.6919 1.85938 24.7978 2.11585 24.7978H17.8841C18.1406 24.7978 18.3733 24.6919 18.5417 24.5211C18.7101 24.3504 18.8145 24.1144 18.8145 23.8543V4.36575C18.8145 4.10564 18.7101 3.86965 18.5417 3.69887C18.3733 3.52808 18.1406 3.4222 17.8841 3.4222H15.2522V2.21996H18.8506ZM17.8841 4.26091H15.2316C15.12 4.89896 14.5692 5.38483 13.9085 5.38483H6.0916C5.43087 5.38483 4.88008 4.89896 4.76844 4.26091H2.11591C2.08774 4.26091 2.06194 4.27275 2.04308 4.29189C2.02421 4.31102 2.01253 4.33718 2.01253 4.36575V23.8542C2.01253 23.8828 2.02421 23.909 2.04308 23.9281C2.06194 23.9472 2.08774 23.9591 2.11591 23.9591H17.8841C17.9123 23.9591 17.9382 23.9472 17.957 23.9281C17.9758 23.9089 17.9875 23.8828 17.9875 23.8542V4.36575C17.9875 4.33718 17.9758 4.31097 17.957 4.29189C17.9381 4.27281 17.9123 4.26091 17.8841 4.26091ZM9.44472 19.2296H15.401C15.6294 19.2296 15.8145 19.0419 15.8145 18.8103C15.8145 18.5787 15.6294 18.3909 15.401 18.3909H9.44472C9.21636 18.3909 9.03121 18.5787 9.03121 18.8103C9.03121 19.0419 9.21631 19.2296 9.44472 19.2296ZM9.44472 8.20258H15.401C15.6294 8.20258 15.8145 8.01481 15.8145 7.78323C15.8145 7.55164 15.6294 7.36387 15.401 7.36387H9.44472C9.21636 7.36387 9.03121 7.55164 9.03121 7.78323C9.03121 8.01481 9.21631 8.20258 9.44472 8.20258ZM9.44472 10.5336H15.401C15.6294 10.5336 15.8145 10.3459 15.8145 10.1143C15.8145 9.88267 15.6294 9.69491 15.401 9.69491H9.44472C9.21636 9.69491 9.03121 9.88267 9.03121 10.1143C9.03121 10.3459 9.21631 10.5336 9.44472 10.5336ZM9.44472 13.7161H15.401C15.6294 13.7161 15.8145 13.5283 15.8145 13.2967C15.8145 13.0652 15.6294 12.8774 15.401 12.8774H9.44472C9.21636 12.8774 9.03121 13.0652 9.03121 13.2967C9.03121 13.5283 9.21631 13.7161 9.44472 13.7161ZM9.44472 16.0471H15.401C15.6294 16.0471 15.8145 15.8594 15.8145 15.6278C15.8145 15.3962 15.6294 15.2084 15.401 15.2084H9.44472C9.21636 15.2084 9.03121 15.3962 9.03121 15.6278C9.03121 15.8594 9.21631 16.0471 9.44472 16.0471ZM9.44472 21.5607H15.401C15.6294 21.5607 15.8145 21.3729 15.8145 21.1414C15.8145 20.9098 15.6294 20.722 15.401 20.722H9.44472C9.21636 20.722 9.03121 20.9098 9.03121 21.1414C9.03121 21.3729 9.21631 21.5607 9.44472 21.5607ZM6.0916 1.51539C5.8069 1.51539 5.57472 1.75086 5.57472 2.03953V4.02198C5.57472 4.31065 5.8069 4.54612 6.0916 4.54612H13.9085C14.1931 4.54612 14.4253 4.31065 14.4253 4.02198V2.03953C14.4253 1.75086 14.1931 1.51539 13.9085 1.51539H12.2701C12.0591 1.51539 11.8788 1.39504 11.7954 1.19852C11.496 0.493581 10.8049 0 10 0C9.19511 0 8.50399 0.493581 8.20467 1.19852C8.12124 1.39504 7.94095 1.51539 7.72996 1.51539H6.0916ZM5.84696 9.00418C4.89042 9.00418 4.09939 9.72285 3.97022 10.6568C3.9605 10.727 3.97931 10.7914 4.02521 10.8449C4.07111 10.8984 4.13128 10.9262 4.20126 10.9262H7.49276C7.5627 10.9262 7.62292 10.8984 7.66881 10.8449C7.71471 10.7914 7.73348 10.727 7.72381 10.6568C7.59449 9.72285 6.80345 9.00418 5.84696 9.00418ZM5.84696 6.94231C5.31773 6.94231 4.88872 7.37739 4.88872 7.91406C4.88872 8.45073 5.31773 8.88587 5.84696 8.88587C6.37614 8.88587 6.80516 8.45079 6.80516 7.91406C6.80516 7.37739 6.37614 6.94231 5.84696 6.94231ZM5.84696 14.5177C4.89042 14.5177 4.09939 15.2364 3.97022 16.1703C3.9605 16.2406 3.97931 16.3049 4.02521 16.3584C4.07111 16.4119 4.13128 16.4398 4.20126 16.4398H7.49276C7.5627 16.4398 7.62292 16.4119 7.66881 16.3584C7.71471 16.3049 7.73348 16.2406 7.72381 16.1703C7.59449 15.2364 6.80345 14.5177 5.84696 14.5177ZM5.84696 12.4559C5.31773 12.4559 4.88872 12.891 4.88872 13.4276C4.88872 13.9643 5.31773 14.3994 5.84696 14.3994C6.37614 14.3994 6.80516 13.9644 6.80516 13.4276C6.80516 12.8909 6.37614 12.4559 5.84696 12.4559ZM5.84696 20.0312C4.89042 20.0312 4.09939 20.7499 3.97022 21.6838C3.9605 21.7541 3.97931 21.8184 4.02521 21.8719C4.07111 21.9254 4.13128 21.9533 4.20126 21.9533H7.49276C7.5627 21.9533 7.62292 21.9254 7.66881 21.8719C7.71471 21.8184 7.73348 21.7541 7.72381 21.6838C7.59449 20.7499 6.80345 20.0312 5.84696 20.0312ZM5.84696 17.9694C5.31773 17.9694 4.88872 18.4045 4.88872 18.9412C4.88872 19.4778 5.31773 19.913 5.84696 19.913C6.37614 19.913 6.80516 19.4779 6.80516 18.9412C6.80516 18.4044 6.37614 17.9694 5.84696 17.9694Z" fill="#A855F7"/>
</svg>
