<svg width="24" height="24" viewBox="0 0 24 24" fill="none" xmlns="http://www.w3.org/2000/svg">
    <path d="M8.52 12.1416C8.45114 12.1267 8.38833 12.0915 8.33966 12.0405C8.291 11.9895 8.2587 11.9252 8.24693 11.8557C8.23516 11.7862 8.24446 11.7148 8.27363 11.6507C8.30279 11.5865 8.35049 11.5326 8.41059 11.4958C8.52565 11.4253 8.62096 11.3269 8.68763 11.2096C8.75429 11.0923 8.79012 10.9601 8.79176 10.8252C8.79257 10.7222 8.77268 10.62 8.73327 10.5248C8.69386 10.4297 8.63574 10.3434 8.56235 10.2711C8.45499 10.1553 8.31502 10.0748 8.16095 10.0403C8.00689 10.0058 7.84598 10.0189 7.69949 10.0778C7.55301 10.1367 7.42784 10.2387 7.34055 10.3702C7.25325 10.5018 7.20794 10.6567 7.21059 10.8146C7.20967 10.9518 7.24511 11.0867 7.31331 11.2058C7.3815 11.3248 7.48002 11.4236 7.59882 11.4922C7.66014 11.5286 7.70901 11.5826 7.739 11.6473C7.769 11.712 7.77871 11.7842 7.76687 11.8545C7.75503 11.9247 7.72219 11.9898 7.67266 12.0411C7.62313 12.0923 7.55925 12.1274 7.48941 12.1416C7.1299 12.1963 6.7953 12.3583 6.5295 12.6064C6.26371 12.8546 6.07913 13.1773 6 13.5322C6.62474 13.8268 7.30692 13.9796 7.99765 13.9796C8.68837 13.9796 9.37055 13.8268 9.99529 13.5322C9.92989 13.1607 9.73325 12.8251 9.44118 12.5863C9.17507 12.3651 8.85878 12.2124 8.52 12.1416Z" fill="white"/>
    <path d="M8.52 5.58342C8.45209 5.56781 8.39032 5.53244 8.34248 5.48177C8.29463 5.43111 8.26286 5.36741 8.25116 5.29872C8.23946 5.23003 8.24835 5.1594 8.27673 5.09576C8.3051 5.03211 8.35168 4.97829 8.41059 4.94107C8.52565 4.87065 8.62096 4.77219 8.68763 4.65491C8.75429 4.53764 8.79012 4.40537 8.79176 4.27048C8.79257 4.16746 8.77268 4.06534 8.73327 3.97015C8.69386 3.87497 8.63574 3.78866 8.56235 3.71636C8.45499 3.60061 8.31502 3.52016 8.16095 3.48565C8.00689 3.45115 7.84598 3.46421 7.69949 3.52311C7.55301 3.58201 7.42784 3.68397 7.34055 3.81553C7.25325 3.94708 7.20794 4.10203 7.21059 4.25989C7.20904 4.39767 7.24419 4.53338 7.31242 4.65308C7.38064 4.77279 7.47949 4.87219 7.59882 4.94107C7.66014 4.97742 7.70901 5.03148 7.739 5.09614C7.769 5.16079 7.77871 5.23302 7.76687 5.30331C7.75503 5.37359 7.72219 5.43865 7.67266 5.48991C7.62313 5.54116 7.55925 5.57623 7.48941 5.59048C7.13083 5.64462 6.7969 5.8056 6.53121 6.05241C6.26551 6.29922 6.08039 6.62039 6 6.97401C6.62474 7.26862 7.30692 7.4214 7.99765 7.4214C8.68837 7.4214 9.37055 7.26862 9.99529 6.97401C9.92989 6.60251 9.73325 6.26684 9.44118 6.02813C9.17507 5.80685 8.85878 5.65416 8.52 5.58342Z" fill="white"/>
    <path d="M8.52 18.7061C8.45114 18.6911 8.38833 18.6559 8.33966 18.6049C8.291 18.554 8.2587 18.4896 8.24693 18.4201C8.23516 18.3507 8.24446 18.2793 8.27363 18.2151C8.30279 18.151 8.35049 18.097 8.41059 18.0602C8.52537 17.9904 8.62055 17.8925 8.68721 17.7758C8.75388 17.6592 8.78985 17.5275 8.79176 17.3932C8.79305 17.2895 8.77338 17.1867 8.73396 17.0909C8.69454 16.9951 8.63617 16.9082 8.56235 16.8355C8.45499 16.7197 8.31502 16.6393 8.16095 16.6048C8.00689 16.5703 7.84598 16.5833 7.69949 16.6422C7.55301 16.7011 7.42784 16.8031 7.34055 16.9347C7.25325 17.0662 7.20794 17.2212 7.21059 17.379C7.20967 17.5158 7.24473 17.6504 7.31226 17.7693C7.37978 17.8883 7.47739 17.9874 7.59529 18.0567C7.65521 18.0922 7.70327 18.1447 7.73342 18.2075C7.76357 18.2703 7.77445 18.3406 7.76471 18.4096C7.75342 18.48 7.72108 18.5454 7.67194 18.597C7.6228 18.6487 7.55916 18.6842 7.48941 18.699C7.1299 18.7537 6.7953 18.9157 6.5295 19.1638C6.26371 19.412 6.07913 19.7347 6 20.0896C6.62474 20.3842 7.30692 20.537 7.99765 20.537C8.68837 20.537 9.37055 20.3842 9.99529 20.0896C9.929 19.7184 9.73253 19.3831 9.44118 19.1437C9.17436 18.925 8.85813 18.7748 8.52 18.7061Z" fill="white"/>
    <path d="M19.9765 0.706055H4.02358C3.64916 0.706055 3.29007 0.854794 3.02531 1.11955C2.76056 1.38431 2.61182 1.7434 2.61182 2.11782V21.8825C2.61182 22.2569 2.76056 22.616 3.02531 22.8808C3.29007 23.1456 3.64916 23.2943 4.02358 23.2943H19.9765C20.3509 23.2943 20.71 23.1456 20.9748 22.8808C21.2395 22.616 21.3883 22.2569 21.3883 21.8825V2.11782C21.3883 1.7434 21.2395 1.38431 20.9748 1.11955C20.71 0.854794 20.3509 0.706055 19.9765 0.706055ZM10.5248 20.6225C9.74408 21.0212 8.88131 21.2327 8.00476 21.2402C7.12701 21.2332 6.26297 21.0217 5.48123 20.6225C5.42183 20.5934 5.3718 20.5482 5.33685 20.492C5.30191 20.4359 5.28345 20.371 5.28358 20.3049C5.29538 19.8468 5.44102 19.4021 5.70256 19.0258C5.9641 18.6495 6.33008 18.358 6.75535 18.1872C6.62773 17.9921 6.5476 17.7698 6.52137 17.5381C6.49515 17.3064 6.52356 17.0718 6.60432 16.853C6.68509 16.6343 6.81597 16.4375 6.98647 16.2784C7.15698 16.1194 7.36237 16.0025 7.58618 15.9371C7.81 15.8717 8.04602 15.8597 8.27533 15.9019C8.50464 15.9442 8.72087 16.0395 8.90669 16.1804C9.09251 16.3212 9.24276 16.5037 9.34539 16.713C9.44802 16.9224 9.50018 17.1529 9.4977 17.3861C9.49476 17.6714 9.40893 17.9498 9.25064 18.1872C9.48819 18.2911 9.70934 18.429 9.90711 18.5966C10.1588 18.8029 10.3622 19.0617 10.503 19.355C10.6439 19.6483 10.7188 19.9689 10.7224 20.2943C10.7246 20.3622 10.7071 20.4293 10.672 20.4876C10.6369 20.5458 10.5858 20.5927 10.5248 20.6225ZM10.5248 14.0649C9.74408 14.4636 8.88131 14.675 8.00476 14.6825C7.12701 14.6756 6.26297 14.4641 5.48123 14.0649C5.42642 14.0357 5.38027 13.9927 5.34743 13.94C5.31459 13.8873 5.29622 13.8269 5.29417 13.7649C5.30596 13.3068 5.45161 12.8621 5.71315 12.4858C5.97468 12.1095 6.34066 11.818 6.76593 11.6472C6.55491 11.3379 6.46816 10.9604 6.52295 10.59C6.57774 10.2195 6.77006 9.88334 7.06159 9.64833C7.35313 9.41333 7.72249 9.29675 8.09611 9.32184C8.46973 9.34693 8.8202 9.51183 9.0777 9.7837C9.31641 10.0271 9.46394 10.3453 9.49544 10.6847C9.52695 11.0242 9.44049 11.3641 9.25064 11.6472C9.48819 11.7511 9.70934 11.889 9.90711 12.0566C10.1601 12.264 10.3644 12.5246 10.5053 12.8198C10.6462 13.1151 10.7203 13.4377 10.7224 13.7649C10.7193 13.828 10.6994 13.8891 10.6646 13.9419C10.6298 13.9947 10.5815 14.0371 10.5248 14.0649ZM10.5248 7.50723C9.74349 7.90346 8.88075 8.1125 8.00476 8.11782C7.12701 8.11086 6.26297 7.89938 5.48123 7.50017C5.42183 7.47107 5.3718 7.42585 5.33685 7.36969C5.30191 7.31353 5.28345 7.24867 5.28358 7.18253C5.29538 6.72441 5.44102 6.27977 5.70256 5.90345C5.9641 5.52714 6.33008 5.23563 6.75535 5.06488C6.54433 4.75554 6.45757 4.37806 6.51236 4.00762C6.56715 3.63719 6.75947 3.30099 7.05101 3.06598C7.34254 2.83097 7.7119 2.7144 8.08552 2.73949C8.45915 2.76457 8.80961 2.92948 9.06711 3.20135C9.30745 3.44342 9.45695 3.76099 9.49038 4.10047C9.52381 4.43994 9.43914 4.78057 9.25064 5.06488C9.48819 5.16873 9.70934 5.30665 9.90711 5.47429C10.1588 5.68052 10.3622 5.9394 10.503 6.23269C10.6439 6.52599 10.7188 6.84659 10.7224 7.17194C10.726 7.24105 10.7091 7.30968 10.674 7.36929C10.6388 7.42891 10.5869 7.47687 10.5248 7.50723ZM15.0318 19.7861H11.7001C11.6064 19.7861 11.5167 19.7489 11.4505 19.6827C11.3843 19.6165 11.3471 19.5267 11.3471 19.4331C11.3471 19.3395 11.3843 19.2497 11.4505 19.1835C11.5167 19.1174 11.6064 19.0802 11.7001 19.0802H15.0318C15.1254 19.0802 15.2152 19.1174 15.2814 19.1835C15.3476 19.2497 15.3848 19.3395 15.3848 19.4331C15.3848 19.5267 15.3476 19.6165 15.2814 19.6827C15.2152 19.7489 15.1254 19.7861 15.0318 19.7861ZM18.3636 18.0213H11.7001C11.6064 18.0213 11.5167 17.9842 11.4505 17.918C11.3843 17.8518 11.3471 17.762 11.3471 17.6684C11.3471 17.5748 11.3843 17.485 11.4505 17.4188C11.5167 17.3527 11.6064 17.3155 11.7001 17.3155H18.353C18.4466 17.3155 18.5364 17.3527 18.6026 17.4188C18.6687 17.485 18.7059 17.5748 18.7059 17.6684C18.7059 17.762 18.6687 17.8518 18.6026 17.918C18.5364 17.9842 18.4466 18.0213 18.353 18.0213H18.3636ZM11.3471 12.8755C11.3471 12.7819 11.3843 12.6921 11.4505 12.6259C11.5167 12.5597 11.6064 12.5225 11.7001 12.5225H15.0318C15.1254 12.5225 15.2152 12.5597 15.2814 12.6259C15.3476 12.6921 15.3848 12.7819 15.3848 12.8755C15.3848 12.9691 15.3476 13.0588 15.2814 13.125C15.2152 13.1912 15.1254 13.2284 15.0318 13.2284H11.7001C11.6064 13.2284 11.5167 13.1912 11.4505 13.125C11.3843 13.0588 11.3471 12.9691 11.3471 12.8755ZM18.353 11.4813H11.7001C11.6064 11.4813 11.5167 11.4442 11.4505 11.378C11.3843 11.3118 11.3471 11.222 11.3471 11.1284C11.3471 11.0348 11.3843 10.945 11.4505 10.8788C11.5167 10.8127 11.6064 10.7755 11.7001 10.7755H18.353C18.4466 10.7755 18.5364 10.8127 18.6026 10.8788C18.6687 10.945 18.7059 11.0348 18.7059 11.1284C18.7059 11.222 18.6687 11.3118 18.6026 11.378C18.5364 11.4442 18.4466 11.4813 18.353 11.4813ZM11.3471 6.31782C11.3471 6.22421 11.3843 6.13444 11.4505 6.06825C11.5167 6.00206 11.6064 5.96488 11.7001 5.96488H15.0318C15.1254 5.96488 15.2152 6.00206 15.2814 6.06825C15.3476 6.13444 15.3848 6.22421 15.3848 6.31782C15.3848 6.41143 15.3476 6.5012 15.2814 6.56739C15.2152 6.63358 15.1254 6.67076 15.0318 6.67076H11.7001C11.6064 6.67076 11.5167 6.63358 11.4505 6.56739C11.3843 6.5012 11.3471 6.41143 11.3471 6.31782ZM18.353 4.94135H11.7001C11.6064 4.94135 11.5167 4.90416 11.4505 4.83797C11.3843 4.77179 11.3471 4.68201 11.3471 4.58841C11.3471 4.4948 11.3843 4.40503 11.4505 4.33884C11.5167 4.27265 11.6064 4.23547 11.7001 4.23547H18.353C18.4466 4.23547 18.5364 4.27265 18.6026 4.33884C18.6687 4.40503 18.7059 4.4948 18.7059 4.58841C18.7059 4.68201 18.6687 4.77179 18.6026 4.83797C18.5364 4.90416 18.4466 4.94135 18.353 4.94135Z" fill="white"/>
</svg>
