<svg width="21" height="23" viewBox="0 0 21 23" fill="none" xmlns="http://www.w3.org/2000/svg">
    <path d="M4.875 11.625C3.825 11.625 3 12.45 3 13.5C3 14.55 3.825 15.375 4.875 15.375C5.925 15.375 6.75 14.55 6.75 13.5C6.75 12.45 5.925 11.625 4.875 11.625Z" fill="white"/>
    <path d="M10.5 10.125C9.2625 10.125 8.25 11.1375 8.25 12.375C8.25 13.6125 9.2625 14.625 10.5 14.625C11.7375 14.625 12.75 13.6125 12.75 12.375C12.75 11.1375 11.7375 10.125 10.5 10.125Z" fill="white"/>
    <path d="M16.125 11.625C15.075 11.625 14.25 12.45 14.25 13.5C14.25 14.55 15.075 15.375 16.125 15.375C17.175 15.375 18 14.55 18 13.5C18 12.45 17.175 11.625 16.125 11.625Z" fill="white"/>
    <path d="M15.15 16.9129L16.2 22.5004H20.2875L19.5375 17.3254C19.4625 16.8754 19.1625 16.5004 18.7125 16.3879L17.4375 16.0879L16.125 18.0754L15 16.3879C15.075 16.5754 15.15 16.7254 15.15 16.9129Z" fill="white"/>
    <path d="M5.85005 16.9129C5.88755 16.7254 5.92505 16.5754 6.00005 16.3879L4.87505 18.0754L3.52505 16.0879L2.25005 16.3879C1.83755 16.5004 1.50005 16.8754 1.42505 17.3254L0.675049 22.5004H4.76255L5.85005 16.9129Z" fill="white"/>
    <path d="M14.4375 17.0629C14.2875 16.3129 13.725 15.7129 12.975 15.5629L11.8125 15.3379L10.5 17.9254L9.22505 15.3379L8.06255 15.5629C7.31255 15.7129 6.71255 16.3129 6.60005 17.0629L5.55005 22.5004H15.45L14.4375 17.0629Z" fill="white"/>
    <path d="M1.35 0.5625L0.0375 6.2625C-3.63216e-08 6.3375 0 6.4125 0 6.4875C0.075 7.275 0.7125 7.875 1.5 7.875C2.325 7.875 3 7.2 3 6.375C3 7.2 3.675 7.875 4.5 7.875C5.325 7.875 6 7.2 6 6.375C6 7.2 6.675 7.875 7.5 7.875C8.325 7.875 9 7.2 9 6.375C9 7.2 9.675 7.875 10.5 7.875C11.325 7.875 12 7.2 12 6.375C12 7.2 12.675 7.875 13.5 7.875C14.325 7.875 15 7.2 15 6.375C15 7.2 15.675 7.875 16.5 7.875C17.325 7.875 18 7.2 18 6.375C18 7.2 18.675 7.875 19.5 7.875C20.2875 7.875 20.925 7.275 21 6.4875C21 6.4125 21 6.3375 20.9625 6.2625L19.65 0.5625C19.575 0.225 19.275 0 18.9375 0H2.1C1.7625 0 1.425 0.225 1.35 0.5625Z" fill="white"/>
    <path d="M2.1 15.675L3.075 15.4125C2.5875 14.925 2.25 14.25 2.25 13.5C2.25 12.7875 2.55 12.15 3 11.6625V9.375H8.25V10.3875C8.8125 9.75 9.6 9.375 10.5 9.375C11.4 9.375 12.1875 9.7875 12.75 10.3875V9.375H18V11.6625C18.45 12.15 18.75 12.7875 18.75 13.5C18.75 14.25 18.4125 14.925 17.925 15.4125L18.9 15.675C19.125 15.7125 19.3125 15.825 19.5 15.9375V8.625C18.9375 8.625 18.4125 8.4 18 8.0625C17.5875 8.4375 17.0625 8.625 16.5 8.625C15.9375 8.625 15.4125 8.4 15 8.0625C14.5875 8.4375 14.0625 8.625 13.5 8.625C12.9375 8.625 12.4125 8.4 12 8.0625C11.5875 8.4375 11.0625 8.625 10.5 8.625C9.9375 8.625 9.4125 8.4 9 8.0625C8.5875 8.4375 8.0625 8.625 7.5 8.625C6.9375 8.625 6.4125 8.4 6 8.0625C5.5875 8.4375 5.0625 8.625 4.5 8.625C3.9375 8.625 3.4125 8.4 3 8.0625C2.5875 8.4375 2.0625 8.625 1.5 8.625V15.9375C1.6875 15.825 1.875 15.7125 2.1 15.675Z" fill="white"/>
</svg>
