<svg width="28" height="27" viewBox="0 0 28 27" fill="none" xmlns="http://www.w3.org/2000/svg">
    <g clip-path="url(#clip0_558_5074)">
        <path d="M8.25781 20.5664V21.3574C8.25781 22.412 8.97968 23.2976 9.96832 23.6057C10.2992 25.4686 11.9751 27 14 27C16.0248 27 17.7008 25.4686 18.0316 23.6057C19.0202 23.2976 19.7421 22.412 19.7421 21.3574V20.5664H8.25781Z" fill="#1B2A57"/>
        <path d="M11.8862 0.213287C8.18356 0.958736 5.16828 3.85705 4.38319 7.42588C3.71589 10.4625 4.53943 13.5107 6.64144 15.7895C7.49128 16.7116 8.00971 17.8246 8.17974 18.9844H19.8235C19.9993 17.8301 20.5329 16.6994 21.407 15.7377C22.9787 14.0096 23.8986 11.7911 23.8986 9.49222C23.8986 3.47099 18.1167 -1.05154 11.8862 0.213287ZM19.7424 10.2833C19.2889 10.2833 18.922 9.92949 18.922 9.49227C18.922 6.87513 16.7135 4.7462 13.9994 4.7462C13.546 4.7462 13.1791 4.39241 13.1791 3.95519C13.1791 3.51797 13.546 3.16418 13.9994 3.16418C17.6187 3.16418 20.5627 6.00301 20.5627 9.49227C20.5627 9.92949 20.1958 10.2833 19.7424 10.2833Z" fill="#1B2A57"/>
        <path d="M2.46092 9.49219H0.820308C0.366896 9.49219 0 9.84598 0 10.2832C0 10.7204 0.366896 11.0742 0.820308 11.0742H2.46092C2.91433 11.0742 3.28123 10.7204 3.28123 10.2832C3.28123 9.84598 2.91433 9.49219 2.46092 9.49219Z" fill="#1B2A57"/>
        <path d="M2.80048 5.53683L1.64051 4.41829C1.32005 4.10927 0.800956 4.10927 0.480544 4.41829C0.160131 4.72726 0.160131 5.22786 0.480544 5.53683L1.64051 6.65537C1.96093 6.96434 2.48007 6.96434 2.80048 6.65537C3.1209 6.34641 3.1209 5.8458 2.80048 5.53683Z" fill="#1B2A57"/>
        <path d="M2.80048 13.9105C2.48007 13.6015 1.96093 13.6014 1.64051 13.9105L0.480544 15.029C0.160131 15.338 0.160131 15.8386 0.480544 16.1475C0.800956 16.4565 1.3201 16.4565 1.64051 16.1475L2.80048 15.029C3.1209 14.72 3.1209 14.2194 2.80048 13.9105Z" fill="#1B2A57"/>
        <path d="M27.1797 9.49219H25.5391C25.0856 9.49219 24.7188 9.84598 24.7188 10.2832C24.7188 10.7204 25.0856 11.0742 25.5391 11.0742H27.1797C27.6331 11.0742 28 10.7204 28 10.2832C28 9.84598 27.6331 9.49219 27.1797 9.49219Z" fill="#1B2A57"/>
        <path d="M27.5192 4.41825C27.1988 4.10928 26.6797 4.10928 26.3593 4.41825L25.1993 5.53679C24.8789 5.84576 24.8789 6.34637 25.1993 6.65533C25.5197 6.9643 26.0388 6.9643 26.3593 6.65533L27.5192 5.53679C27.8396 5.22782 27.8396 4.72722 27.5192 4.41825Z" fill="#1B2A57"/>
        <path d="M27.5192 15.029L26.3593 13.9104C26.0389 13.6015 25.5197 13.6015 25.1993 13.9104C24.8789 14.2194 24.8789 14.72 25.1993 15.029L26.3593 16.1475C26.6797 16.4565 27.1988 16.4565 27.5192 16.1475C27.8396 15.8386 27.8396 15.3379 27.5192 15.029Z" fill="#1B2A57"/>
    </g>
    <defs>
        <clipPath id="clip0_558_5074">
            <rect width="28" height="27" fill="white"/>
        </clipPath>
    </defs>
</svg>
