<svg width="24" height="24" viewBox="0 0 24 24" fill="none" xmlns="http://www.w3.org/2000/svg">
    <path d="M10.0008 24C11.8119 24 13.327 22.7089 13.6749 21H6.32672C6.67481 22.7089 8.18986 24 10.0008 24Z" fill="#1B2A57"/>
    <path d="M17.5763 14.4958C17.5503 14.4958 17.5263 14.4998 17.5003 14.4998C13.0892 14.4998 9.50027 10.911 9.50027 6.50001C9.50027 4.76693 10.0602 3.16605 11.0003 1.85393V0.999932C11.0003 0.446957 10.5522 0 10.0002 0C9.44826 0 9.00019 0.446957 9.00019 0.999932V2.08006C5.61304 2.56804 3.00006 5.48104 3.00006 8.99994V11.7879C3.00006 13.7669 2.13304 15.6349 0.611952 16.9208C0.223027 17.2539 0 17.7378 0 18.2498C0 19.2149 0.78499 19.9999 1.74998 19.9999H18.2503C19.2155 19.9999 20.0005 19.2149 20.0005 18.2498C20.0005 17.7378 19.7775 17.2539 19.3785 16.913C18.5904 16.2459 17.9824 15.4159 17.5763 14.4958Z" fill="#1B2A57"/>
    <path d="M17.4997 0C13.9157 0 10.9997 2.91593 10.9997 6.50001C10.9997 10.0839 13.9157 12.9998 17.4997 12.9998C21.0839 12.9998 23.9999 10.0839 23.9999 6.50001C23.9999 2.91593 21.0839 0 17.4997 0ZM18.4999 8.75C18.4999 9.164 18.1638 9.49999 17.7498 9.49999C17.3358 9.49999 16.9998 9.164 16.9998 8.75V5.4999H16.4998C16.0857 5.4999 15.7497 5.1639 15.7497 4.74991C15.7497 4.33591 16.0857 3.99991 16.4998 3.99991H17.7498C18.1638 3.99991 18.4999 4.33591 18.4999 4.74991V8.75Z" fill="#1B2A57"/>
</svg>
