<svg width="24" height="24" viewBox="0 0 24 24" fill="none" xmlns="http://www.w3.org/2000/svg">
    <path fill-rule="evenodd" clip-rule="evenodd" d="M16.6628 14.6069C16.2788 13.7452 15.762 12.5377 15.762 11.2417C15.762 8.9017 15.1035 7.9027 14.5305 7.43395C13.9005 6.9187 13.014 6.7417 12.0113 6.7417C11.0093 6.7417 10.1228 6.9187 9.49275 7.43395C8.91975 7.9027 8.26125 8.9017 8.26125 11.2417C8.26125 12.5384 7.7445 13.7459 7.3605 14.6077C7.326 14.6849 7.293 14.7592 7.26075 14.8312C6.86625 15.7147 6.66375 16.1677 6.639 16.5074C6.639 16.5089 6.63825 16.5104 6.63825 16.5119C6.6885 16.5577 6.7935 16.6402 6.975 16.7054C7.71075 17.0002 9.201 17.2417 12.0113 17.2417C14.8223 17.2417 16.3125 17.0002 17.0475 16.7054C17.2298 16.6402 17.3348 16.5569 17.385 16.5112C17.385 16.5097 17.3843 16.5082 17.3843 16.5067C17.3595 16.1669 17.157 15.7132 16.7618 14.8282C16.7303 14.7577 16.6973 14.6834 16.6628 14.6069ZM17.3903 16.5772C17.388 16.5727 17.3858 16.5547 17.3888 16.5382C17.3933 16.5734 17.3918 16.5817 17.3903 16.5772ZM6.633 16.5779C6.6315 16.5824 6.63 16.5742 6.6345 16.5397C6.63675 16.5562 6.6345 16.5734 6.633 16.5779ZM18.168 14.2972C17.733 13.3334 17.262 12.2879 17.262 11.2417C17.262 5.9917 14.262 5.2417 12.0113 5.2417C9.762 5.2417 6.76125 5.9917 6.76125 11.2417C6.76125 12.2887 6.2895 13.3342 5.8545 14.2987C4.73025 16.7932 3.85125 18.7417 12.0113 18.7417C20.1728 18.7417 19.293 16.7917 18.168 14.2972Z" fill="#60635E"/>
    <mask id="path-2-inside-1_123_1066" fill="white">
        <path fill-rule="evenodd" clip-rule="evenodd" d="M13.098 4.56075C13.3178 4.5885 13.5255 4.42875 13.4813 4.212C13.3433 3.534 12.735 3 12.0113 3C11.2868 3 10.6793 3.534 10.5413 4.212C10.497 4.42875 10.7048 4.5885 10.9245 4.56075C11.6408 4.46925 12.3818 4.46925 13.098 4.56075Z"/>
    </mask>
    <path fill-rule="evenodd" clip-rule="evenodd" d="M13.098 4.56075C13.3178 4.5885 13.5255 4.42875 13.4813 4.212C13.3433 3.534 12.735 3 12.0113 3C11.2868 3 10.6793 3.534 10.5413 4.212C10.497 4.42875 10.7048 4.5885 10.9245 4.56075C11.6408 4.46925 12.3818 4.46925 13.098 4.56075Z" fill="#60635E"/>
    <path d="M13.098 4.56075L12.908 6.04866L12.9101 6.04893L13.098 4.56075ZM13.4813 4.212L12.0114 4.51118L12.0116 4.51204L13.4813 4.212ZM10.5413 4.212L12.011 4.51204L12.0111 4.51118L10.5413 4.212ZM10.9245 4.56075L11.1125 6.04893L11.1146 6.04866L10.9245 4.56075ZM13.098 4.56075L12.9101 6.04893C13.4206 6.1134 13.9563 5.96842 14.367 5.61511C14.8072 5.23635 15.0934 4.60967 14.951 3.91196L13.4813 4.212L12.0116 4.51204C11.9134 4.03108 12.1179 3.59265 12.4103 3.34101C12.6732 3.11483 12.9952 3.03585 13.286 3.07257L13.098 4.56075ZM13.4813 4.212L14.9511 3.91282C14.678 2.5711 13.4833 1.5 12.0113 1.5V3V4.5C12.0093 4.5 12.0067 4.4998 12.004 4.49929C12.0013 4.49879 11.9992 4.49815 11.9979 4.49767C11.9956 4.49679 11.9972 4.49698 12.0011 4.50023C12.0051 4.50363 12.0086 4.50786 12.0108 4.51155C12.0129 4.51495 12.0122 4.51513 12.0114 4.51118L13.4813 4.212ZM12.0113 3V1.5C10.538 1.5 9.34442 2.57156 9.07142 3.91282L10.5413 4.212L12.0111 4.51118C12.0104 4.51487 12.0098 4.51456 12.0118 4.51117C12.0141 4.50749 12.0175 4.50335 12.0214 4.50006C12.0252 4.49692 12.0266 4.4968 12.0242 4.49771C12.0229 4.4982 12.0209 4.49883 12.0182 4.49932C12.0155 4.49982 12.0131 4.5 12.0113 4.5V3ZM10.5413 4.212L9.07159 3.91196C8.92915 4.60967 9.21537 5.23635 9.65558 5.61511C10.0662 5.96842 10.6019 6.1134 11.1125 6.04893L10.9245 4.56075L10.7366 3.07257C11.0274 3.03585 11.3493 3.11483 11.6122 3.34101C11.9047 3.59265 12.1092 4.03108 12.011 4.51204L10.5413 4.212ZM10.9245 4.56075L11.1146 6.04866C11.7047 5.97328 12.3179 5.97328 12.908 6.04866L13.098 4.56075L13.2881 3.07284C12.4457 2.96522 11.5769 2.96522 10.7345 3.07284L10.9245 4.56075Z" fill="#60635E" mask="url(#path-2-inside-1_123_1066)"/>
    <path d="M12.0112 21C12.1948 21 12.3927 20.9772 12.5932 20.9365C12.3559 20.9804 12.1449 21 12.0112 21ZM12.0112 21C11.9408 21 11.8684 20.9953 11.7944 20.9893C11.8776 20.9953 11.9511 21 12.0112 21ZM11.684 20.9795C11.6755 20.9785 11.6671 20.9767 11.6586 20.9756C11.6672 20.9765 11.6756 20.9786 11.684 20.9795Z" fill="#60635E" stroke="#60635E" stroke-width="1.5"/>
</svg>
