<svg width="30" height="30" viewBox="0 0 30 30" fill="none" xmlns="http://www.w3.org/2000/svg">
    <g clip-path="url(#clip0_392_2801)">
        <path fill-rule="evenodd" clip-rule="evenodd" d="M6.34446 13.9721C2.8471 13.9721 0 11.125 0 7.62766C0 4.1303 2.8471 1.26562 6.34446 1.26562C9.8594 1.26562 12.7065 4.1303 12.7065 7.62766C12.7065 11.125 9.8594 13.9721 6.34446 13.9721ZM6.34446 2.32011C3.42706 2.32011 1.05448 4.71026 1.05448 7.62766C1.05448 10.5451 3.42706 12.9176 6.34446 12.9176C9.27944 12.9176 11.652 10.5451 11.652 7.62766C11.652 4.71026 9.27944 2.32011 6.34446 2.32011Z" fill="#000002"/>
        <path fill-rule="evenodd" clip-rule="evenodd" d="M6.34446 29.9829C2.8471 29.9829 0 27.1358 0 23.6384C0 20.1235 2.8471 17.2764 6.34446 17.2764C9.8594 17.2764 12.7065 20.1235 12.7065 23.6384C12.7065 27.1358 9.8594 29.9829 6.34446 29.9829ZM6.34446 18.3308C3.42706 18.3308 1.05448 20.7034 1.05448 23.6384C1.05448 26.5558 3.42706 28.9284 6.34446 28.9284C9.27944 28.9284 11.652 26.5558 11.652 23.6384C11.652 20.7034 9.27944 18.3308 6.34446 18.3308Z" fill="#000002"/>
        <path fill-rule="evenodd" clip-rule="evenodd" d="M22.3725 29.9829C18.8752 29.9829 16.0281 27.1358 16.0281 23.6384C16.0281 20.1235 18.8752 17.2764 22.3725 17.2764C25.8699 17.2764 28.717 20.1235 28.717 23.6384C28.717 27.1358 25.8699 29.9829 22.3725 29.9829ZM22.3725 18.3308C19.4551 18.3308 17.0826 20.7034 17.0826 23.6384C17.0826 26.5558 19.4551 28.9284 22.3725 28.9284C25.2899 28.9284 27.6625 26.5558 27.6625 23.6384C27.6625 20.7034 25.2899 18.3308 22.3725 18.3308Z" fill="#000002"/>
        <path fill-rule="evenodd" clip-rule="evenodd" d="M26.4675 15.2724C26.4147 15.2724 26.362 15.2724 26.3269 15.2548L15.1142 12.2496C14.833 12.1793 14.6748 11.8981 14.7451 11.6169L17.7504 0.404221C17.7856 0.263624 17.8734 0.158176 17.9965 0.0878769C18.1195 0.0175781 18.2601 3.43286e-06 18.3831 0.0351528L29.5958 3.04043C29.7364 3.07557 29.8594 3.16345 29.9297 3.28647C30 3.39192 30.0176 3.55009 29.9824 3.67311L26.9771 14.8858C26.942 15.0264 26.8541 15.1318 26.7311 15.2021C26.6432 15.2548 26.5553 15.2724 26.4675 15.2724ZM15.9051 11.3708L26.0808 14.1125L28.8225 3.91916L18.6292 1.17751L15.9051 11.3708Z" fill="#000002"/>
        <path fill-rule="evenodd" clip-rule="evenodd" d="M6.34443 12.9179C9.2794 12.9179 11.652 10.5453 11.652 7.62787C11.652 4.71047 9.2794 2.32031 6.34443 2.32031C3.42703 2.32031 1.05444 4.71047 1.05444 7.62787C1.05444 10.5453 3.42703 12.9179 6.34443 12.9179Z" fill="#FFCF00"/>
        <path fill-rule="evenodd" clip-rule="evenodd" d="M11.652 23.6386C11.652 20.7036 9.2794 18.3311 6.34443 18.3311C3.42703 18.3311 1.05444 20.7036 1.05444 23.6386C1.05444 26.556 3.42703 28.9286 6.34443 28.9286C9.2794 28.9286 11.652 26.556 11.652 23.6386Z" fill="#FFCF00"/>
        <path fill-rule="evenodd" clip-rule="evenodd" d="M22.3725 18.3311C19.4551 18.3311 17.0825 20.7036 17.0825 23.6386C17.0825 26.556 19.4551 28.9286 22.3725 28.9286C25.2899 28.9286 27.6625 26.556 27.6625 23.6386C27.6625 20.7036 25.2899 18.3311 22.3725 18.3311Z" fill="#FFCF00"/>
        <path fill-rule="evenodd" clip-rule="evenodd" d="M15.905 11.3711L26.0808 14.1127L28.8224 3.91939L18.6291 1.17773L15.905 11.3711Z" fill="#FF2C00"/>
    </g>
    <defs>
        <clipPath id="clip0_392_2801">
            <rect width="30" height="30" fill="white"/>
        </clipPath>
    </defs>
</svg>
