<svg width="30" height="30" viewBox="0 0 30 30" fill="none" xmlns="http://www.w3.org/2000/svg">
    <mask id="mask0_392_2820" style="mask-type:luminance" maskUnits="userSpaceOnUse" x="0" y="0" width="30" height="30">
        <path d="M0 0H30V30H0V0Z" fill="white"/>
    </mask>
    <g mask="url(#mask0_392_2820)">
        <path d="M23.4925 20.7471H6.50757V14.4725C6.50757 13.103 7.61774 11.9929 8.98714 11.9929H21.013C22.3824 11.9929 23.4925 13.103 23.4925 14.4725V20.7471Z" fill="#FFF3A7"/>
        <path d="M21.0129 11.9929H18.6692C20.0386 11.9929 21.1488 13.103 21.1488 14.4725V20.7471H23.4925V14.4725C23.4925 13.103 22.3824 11.9929 21.0129 11.9929Z" fill="#FCE65B"/>
        <path d="M26.3911 27.5703H3.60901V22.3129C3.60901 20.9435 4.71918 19.8334 6.08864 19.8334H23.9114C25.2809 19.8334 26.3911 20.9435 26.3911 22.3129V27.5703Z" fill="#FFF3A7"/>
        <path d="M23.9114 19.8334H21.5676C22.9371 19.8334 24.0473 20.9435 24.0473 22.3129V27.5703H26.391V22.3129C26.391 20.9435 25.2808 19.8334 23.9114 19.8334Z" fill="#FCE65B"/>
        <path d="M23.9114 19.8334H6.08864C4.71918 19.8334 3.60901 20.9436 3.60901 22.313V22.3291C5.50745 22.3291 5.50745 25.416 7.40594 25.416C9.30432 25.416 9.30432 22.3291 11.2027 22.3291C13.1011 22.3291 13.1011 25.416 14.9996 25.416C16.8981 25.416 16.8981 22.3291 18.7966 22.3291C20.6952 22.3291 20.6952 25.416 22.5939 25.416C24.4925 25.416 24.4925 22.3291 26.3911 22.3291V22.313C26.3911 20.9436 25.2809 19.8334 23.9114 19.8334Z" fill="#F54C5A"/>
        <path d="M23.9114 19.8332H21.5676C22.9371 19.8332 24.0473 20.9433 24.0473 22.3128V22.3289V24.5527C24.7228 23.6395 25.1539 22.3289 26.391 22.3289V22.3128C26.391 20.9433 25.2808 19.8332 23.9114 19.8332Z" fill="#EB3443"/>
        <path d="M9.34719 16.8633C10.7602 16.8633 10.7602 14.5655 12.1733 14.5655C13.5865 14.5655 13.5865 16.8633 14.9996 16.8633C16.4128 16.8633 16.4128 14.5655 17.8259 14.5655C19.2392 14.5655 19.2392 16.8633 20.6524 16.8633C22.0657 16.8633 22.0657 14.5655 23.479 14.5655H23.4924V14.4728C23.4924 13.1033 22.3823 11.9932 21.0129 11.9932H8.98708C7.61756 11.9932 6.50745 13.1033 6.50745 14.4728V14.5655H6.52098C7.93409 14.5655 7.93409 16.8633 9.34719 16.8633Z" fill="#F54C5A"/>
        <path d="M21.0129 11.9928H18.6692C20.0386 11.9928 21.1488 13.1029 21.1488 14.4723V16.751C22.0907 16.2909 22.2541 14.5651 23.479 14.5651H23.4925V14.4723C23.4925 13.1029 22.3824 11.9928 21.0129 11.9928Z" fill="#EB3443"/>
        <path d="M16.1949 3.05025C16.1949 3.70908 15.66 4.24316 15 4.24316C14.3401 4.24316 13.8052 3.70908 13.8052 3.05025C13.8052 2.39137 15 0.439199 15 0.439199C15 0.439199 16.1949 2.39137 16.1949 3.05025Z" fill="#FFDB63"/>
        <path d="M16.6051 11.9932H13.395V6.62715H16.6051V11.9932Z" fill="#8FE0FF"/>
        <path d="M16.5796 10.1875H13.4204V8.43256H16.5796V10.1875Z" fill="#BDEDFF"/>
        <path d="M27.5706 29.5605H2.42941C1.33037 29.5605 0.439453 28.6696 0.439453 27.5706H29.5605C29.5605 28.6696 28.6696 29.5605 27.5706 29.5605Z" fill="#BDEDFF"/>
        <path d="M7.39934 23.7939C7.96489 23.7939 7.96583 22.915 7.39934 22.915C6.83386 22.915 6.83286 23.7939 7.39934 23.7939Z" fill="#060606"/>
        <path d="M15.0002 23.7939C15.5657 23.7939 15.5667 22.915 15.0002 22.915C14.4347 22.915 14.4337 23.7939 15.0002 23.7939Z" fill="#060606"/>
        <path d="M22.6009 23.7939C23.1664 23.7939 23.1673 22.915 22.6009 22.915C22.0354 22.915 22.0344 23.7939 22.6009 23.7939Z" fill="#060606"/>
        <path d="M9.34761 15.5068C9.9131 15.5068 9.91409 14.6279 9.34761 14.6279C8.78206 14.6279 8.78112 15.5068 9.34761 15.5068Z" fill="#060606"/>
        <path d="M15.0002 15.5068C15.5657 15.5068 15.5667 14.6279 15.0002 14.6279C14.4347 14.6279 14.4337 15.5068 15.0002 15.5068Z" fill="#060606"/>
        <path d="M20.6526 15.5068C21.2181 15.5068 21.2191 14.6279 20.6526 14.6279C20.0872 14.6279 20.0862 15.5068 20.6526 15.5068Z" fill="#060606"/>
        <path d="M20.7222 4.86035C20.9446 4.86035 21.1627 4.63635 21.1617 4.41896L21.1586 3.72445C21.1561 3.17268 20.2771 3.14918 20.2797 3.72838L20.2828 4.42283C20.2839 4.66488 20.4804 4.86035 20.7222 4.86035Z" fill="#060606"/>
        <path d="M18.8808 5.39128C19.2843 5.79042 19.9031 5.16651 19.499 4.76655L19.005 4.27765C18.6011 3.87804 17.9829 4.5027 18.3867 4.90237L18.8808 5.39128Z" fill="#060606"/>
        <path d="M17.877 7.06836H17.879L18.5745 7.06525C19.1296 7.06279 19.1135 6.18635 18.5707 6.18635L17.8751 6.18945C17.308 6.19197 17.3101 7.06836 17.877 7.06836Z" fill="#060606"/>
        <path d="M18.9201 7.84622L18.4304 8.33947C18.0302 8.74247 18.6535 9.36228 19.0541 8.95869L19.5438 8.46544C19.9442 8.06232 19.3204 7.44287 18.9201 7.84622Z" fill="#060606"/>
        <path d="M22.0016 7.80532C21.8309 7.97782 21.8323 8.25602 22.0049 8.42676L22.4989 8.91567C22.9024 9.31487 23.5213 8.6909 23.1171 8.29094C22.9036 8.00723 22.3679 7.43524 22.0016 7.80532Z" fill="#060606"/>
        <path d="M22.4918 6.56932C22.4928 6.78717 22.7113 7.00684 22.9332 7.00684L23.6288 7.00373C24.1838 7.00127 24.1678 6.12482 23.6249 6.12482L22.9293 6.12793C22.6866 6.12898 22.4907 6.32662 22.4918 6.56932Z" fill="#060606"/>
        <path d="M22.272 5.47656C22.385 5.47656 22.498 5.43326 22.5839 5.34672L23.0735 4.85348C23.4738 4.45023 22.85 3.83096 22.4498 4.23426L21.9602 4.7275C21.7007 4.98889 21.904 5.47656 22.272 5.47656Z" fill="#060606"/>
        <path d="M9.21838 1.76367C9.44087 1.76367 9.65889 1.53967 9.6579 1.32229L9.65479 0.627773C9.65233 0.075996 8.77331 0.0524999 8.77588 0.631699L8.77899 1.32615C8.7801 1.5682 8.97657 1.76367 9.21838 1.76367Z" fill="#060606"/>
        <path d="M7.37701 2.2946C7.78049 2.69374 8.39936 2.06983 7.99524 1.66987L7.50117 1.18097C7.09735 0.781298 6.47912 1.40603 6.88295 1.80569L7.37701 2.2946Z" fill="#060606"/>
        <path d="M6.37308 3.97168H6.37507L7.07063 3.96857C7.62569 3.96611 7.60964 3.08967 7.06677 3.08967L6.3712 3.09277C5.80407 3.09529 5.80624 3.97168 6.37308 3.97168Z" fill="#060606"/>
        <path d="M7.41621 4.74954L6.9266 5.24278C6.52646 5.64585 7.14967 6.26559 7.55027 5.862L8.03994 5.36876C8.44025 4.96557 7.81641 4.34624 7.41621 4.74954Z" fill="#060606"/>
        <path d="M10.4977 4.70768C10.327 4.88018 10.3284 5.15844 10.501 5.32912L10.995 5.81797C11.3984 6.21729 12.0175 5.59315 11.6132 5.19325L11.1192 4.7044C10.9467 4.5336 10.6685 4.53518 10.4977 4.70768Z" fill="#060606"/>
        <path d="M10.9879 3.47166C10.989 3.71371 11.1855 3.90918 11.4273 3.90918H11.4293L12.1249 3.90607C12.6799 3.90361 12.6639 3.02717 12.121 3.02717L11.4254 3.03027C11.1827 3.03133 10.9868 3.22896 10.9879 3.47166Z" fill="#060606"/>
        <path d="M10.7681 2.37988C10.8811 2.37988 10.9941 2.33658 11.08 2.25004L11.5697 1.7568C11.9701 1.35361 11.3461 0.73416 10.946 1.13758L10.4563 1.63082C10.1967 1.89221 10.4002 2.37988 10.7681 2.37988Z" fill="#060606"/>
        <path d="M27.5707 29.1211H2.42954C1.72717 29.1211 1.13233 28.6516 0.942427 28.01H21.4743C22.0425 28.01 22.0425 27.1311 21.4743 27.1311H4.04854V22.847C4.32493 22.9722 4.63489 23.2927 5.13317 24.1029C5.63842 24.9246 6.21112 25.8557 7.40596 25.8557C8.60081 25.8557 9.17344 24.9246 9.6787 24.1029C10.1892 23.2728 10.5465 22.7688 11.2027 22.7688C11.6405 22.7688 11.9616 22.8585 12.7269 24.1029C13.2321 24.9246 13.8048 25.8557 14.9997 25.8557C16.1946 25.8557 16.7673 24.9246 17.2725 24.1029C17.7831 23.2728 18.1405 22.7688 18.7967 22.7688C19.2345 22.7688 19.5556 22.8585 20.321 24.103C20.8263 24.9246 21.399 25.8557 22.5939 25.8557C23.7889 25.8557 24.3615 24.9246 24.8668 24.103C25.251 23.4785 25.5485 23.0387 25.9517 22.859V27.1311H23.6999C23.1318 27.1311 23.1318 28.01 23.6999 28.01H29.0578C28.8679 28.6516 28.2731 29.1211 27.5707 29.1211ZM6.08872 20.2731H6.5076H23.4926H23.9115C24.9104 20.2731 25.7433 20.9948 25.9176 21.944C25.035 22.1532 24.5516 22.9379 24.1182 23.6426C23.6076 24.4727 23.2502 24.9768 22.5939 24.9768C22.1561 24.9768 21.835 24.887 21.0697 23.6425C20.5644 22.821 19.9916 21.8899 18.7967 21.8899C17.6018 21.8899 17.0291 22.821 16.5239 23.6426C16.0133 24.4727 15.6559 24.9768 14.9997 24.9768C14.5618 24.9768 14.2409 24.887 13.4755 23.6426C12.9703 22.821 12.3976 21.8899 11.2027 21.8899C10.0079 21.8899 9.43524 22.821 8.92998 23.6426C8.41946 24.4727 8.06215 24.9768 7.40596 24.9768C6.96821 24.9768 6.64717 24.887 5.88188 23.6426C5.44852 22.938 4.96518 22.1532 4.08264 21.944C4.25696 20.9948 5.08987 20.2731 6.08872 20.2731ZM8.98723 12.4323H21.013C22.0412 12.4323 22.8937 13.197 23.0329 14.1874C22.3717 14.3787 22.0003 14.982 21.6915 15.4839C21.3332 16.0664 21.0914 16.4235 20.6527 16.4235C20.2139 16.4235 19.972 16.0664 19.6137 15.4838C19.2415 14.8788 18.7784 14.1257 17.8261 14.1257C16.8739 14.1257 16.4108 14.8788 16.0386 15.4839C15.6803 16.0664 15.4385 16.4235 14.9998 16.4235C14.5611 16.4235 14.3193 16.0664 13.961 15.4839C13.5889 14.8788 13.1258 14.1257 12.1736 14.1257C11.7744 14.1257 11.4145 14.2648 11.1036 14.539C10.6775 14.915 11.259 15.574 11.6851 15.1981C11.8368 15.0643 11.9874 15.0046 12.1736 15.0046C12.6122 15.0046 12.8541 15.3617 13.2123 15.9442C13.5844 16.5493 14.0476 17.3024 14.9998 17.3024C15.952 17.3024 16.4151 16.5493 16.7873 15.9442C17.1456 15.3617 17.3874 15.0046 17.8261 15.0046C18.2648 15.0046 18.5067 15.3617 18.865 15.9442C19.2372 16.5493 19.7004 17.3024 20.6527 17.3024C21.6049 17.3024 22.0681 16.5493 22.4402 15.9442C22.6645 15.5796 22.8432 15.3033 23.0531 15.1477V19.3942H6.94706V15.1477C7.15694 15.3033 7.33565 15.5796 7.55989 15.9442C7.93202 16.5493 8.39514 17.3024 9.34735 17.3024C9.81358 17.3024 10.2105 17.1216 10.5607 16.7497C10.9504 16.3361 10.3104 15.7335 9.92086 16.1471C9.73846 16.3409 9.5669 16.4235 9.34735 16.4235C8.90872 16.4235 8.66684 16.0664 8.3086 15.4839C7.99993 14.982 7.62838 14.3787 6.96739 14.1874C7.10649 13.197 7.95903 12.4323 8.98723 12.4323ZM13.8345 10.6267H16.1657V11.5533H13.8345V10.6267ZM16.1657 7.99289H13.8345V7.06629H16.1657V7.99289ZM13.8345 8.8718H16.1657V9.74783H13.8345V8.8718ZM14.2447 3.05051C14.2447 2.48736 14.7425 1.77779 15.0009 1.31174C15.2501 1.75986 15.8523 2.62359 15.7263 3.18281C15.5391 4.01461 14.2447 4.00981 14.2447 3.05051ZM29.5607 27.1311H26.8306V22.3132C26.8306 20.7105 25.5322 19.4058 23.932 19.3947V14.4724C23.932 12.9229 22.7182 11.652 21.1915 11.5593V6.331C21.1915 6.08824 20.9948 5.89154 20.752 5.89154C20.5093 5.89154 20.3126 6.08824 20.3126 6.331V11.5534H17.0446V6.62683C17.0446 6.38408 16.8479 6.18738 16.6051 6.18738H15.4325V4.62445C17.182 4.14434 16.5612 2.39068 15.9868 1.29399C15.6848 0.717188 15.3874 0.230507 15.3749 0.210058C15.125 -0.0700207 14.8752 -0.0700207 14.6253 0.210058C14.6128 0.230507 14.3154 0.717188 14.0134 1.29399C13.4403 2.38828 12.8112 4.12518 14.5536 4.62041V6.18738H13.3951C13.1524 6.18738 12.9556 6.38408 12.9556 6.62683V11.5534H9.68766V3.23402C9.68766 2.66584 8.80875 2.66584 8.80875 3.23402V11.5593C7.28204 11.652 6.06815 12.9229 6.06815 14.4724V19.3947C4.46801 19.4058 3.16963 20.7105 3.16963 22.3132V27.1311H0.439575C0.196821 27.1311 0.00012207 27.3279 0.00012207 27.5706C0.00012207 28.9102 1.08997 30 2.42954 30H27.5707C28.9103 30 30.0001 28.9102 30.0001 27.5706C30.0001 27.3279 29.8034 27.1311 29.5607 27.1311Z" fill="#060606"/>
    </g>
</svg>
