<svg width="17" height="16" viewBox="0 0 17 16" fill="none" xmlns="http://www.w3.org/2000/svg">
    <path d="M12.75 10C14.2228 10 15.4167 11.1939 15.4167 12.6667V14H14.0833M10.75 7.24931C11.9002 6.95329 12.75 5.90922 12.75 4.66666C12.75 3.4241 11.9002 2.38003 10.75 2.084M8.75 4.66667C8.75 6.13943 7.55609 7.33333 6.08333 7.33333C4.61057 7.33333 3.41667 6.13943 3.41667 4.66667C3.41667 3.19391 4.61057 2 6.08333 2C7.55609 2 8.75 3.19391 8.75 4.66667ZM3.41667 10H8.75C10.2228 10 11.4167 11.1939 11.4167 12.6667V14H0.75V12.6667C0.75 11.1939 1.94391 10 3.41667 10Z" stroke="white" stroke-width="1.5" stroke-linecap="round" stroke-linejoin="round"/>
</svg>
