<svg width="24" height="24" viewBox="0 0 24 24" fill="none" xmlns="http://www.w3.org/2000/svg">
    <path fill-rule="evenodd" clip-rule="evenodd" d="M16.2365 17.9177C15.971 17.5997 16.0145 17.1264 16.3325 16.8617C17.5663 15.8289 20.4312 13.2902 21.413 12.0002C20.4147 10.6884 17.588 8.18643 16.3325 7.13868C16.0145 6.87393 15.971 6.40068 16.2365 6.08268C16.5013 5.76393 16.9745 5.72118 17.2933 5.98668C18.6725 7.13568 21.6425 9.73143 22.6932 11.2097C22.8575 11.4437 23 11.7077 23 12.0002C23 12.2927 22.8575 12.5567 22.6932 12.7899C21.6635 14.2389 18.644 16.8864 17.2933 18.0129L17.2925 18.0137C16.9745 18.2792 16.5013 18.2357 16.2365 17.9177Z" fill="#A9ADA5" stroke="#A9ADA5" stroke-width="0.4"/>
</svg>
