<svg width="30" height="27" viewBox="0 0 30 27" fill="none" xmlns="http://www.w3.org/2000/svg">
    <path fill-rule="evenodd" clip-rule="evenodd" d="M26.4883 20.3932L26.5741 17.3025L29.0322 15.9272V18.9241L26.4882 20.3932H26.4883ZM24.4336 23.0159H19.8115V22.7509C19.8101 21.6511 19.3726 20.5968 18.5948 19.8192C17.8171 19.0415 16.7627 18.6042 15.6629 18.603H12.7156C11.6157 18.6042 10.5613 19.0416 9.7836 19.8192C9.00586 20.5969 8.56831 21.6512 8.56691 22.751V23.0159H4.39293V11.5638C5.00612 11.4867 5.59234 11.2656 6.10367 10.9185C6.61499 10.5714 7.03689 10.1081 7.33486 9.56671C7.67152 10.181 8.1672 10.6935 8.76997 11.0504C9.37273 11.4073 10.0604 11.5955 10.7609 11.5953C11.4614 11.5951 12.149 11.4065 12.7515 11.0493C13.3541 10.6921 13.8495 10.1794 14.1859 9.56489C14.522 10.1794 15.0172 10.6921 15.6197 11.0494C16.2222 11.4066 16.9097 11.5952 17.6101 11.5953C18.3105 11.5954 18.9981 11.4071 19.6006 11.0501C20.2032 10.6931 20.6987 10.1805 21.035 9.5661C21.3705 10.1754 21.8622 10.6844 22.4594 11.0409C23.0567 11.3974 23.7381 11.5886 24.4336 11.5947V13.3765L22.364 14.5711C22.2413 14.6415 22.1377 14.7408 22.062 14.8602C22.0597 14.8638 22.0572 14.8687 22.0542 14.8729C22.0481 14.8826 22.0427 14.8923 22.0372 14.902C22.0363 14.9033 22.0355 14.9047 22.0348 14.9062C22.0342 14.9068 22.0342 14.908 22.0336 14.9086C21.9644 15.0366 21.9282 15.1799 21.9284 15.3254V18.9797C21.9274 19.1328 21.9672 19.2834 22.0437 19.416C22.1203 19.5486 22.2308 19.6583 22.3639 19.734L24.4336 20.9292V23.0159ZM18.8438 23.0159V22.751C18.8427 21.9077 18.5073 21.0994 17.911 20.5031C17.3147 19.9069 16.5063 19.5716 15.663 19.5707H12.7155C11.8723 19.5715 11.0638 19.9068 10.4675 20.503C9.87117 21.0992 9.5357 21.9076 9.53465 22.7508V23.0159H10.8225V22.8211C10.8225 22.6928 10.8735 22.5697 10.9642 22.479C11.0549 22.3882 11.178 22.3372 11.3063 22.3372C11.4347 22.3372 11.5577 22.3882 11.6485 22.479C11.7392 22.5697 11.7902 22.6928 11.7902 22.8211V23.0159H16.5884V22.8211C16.5884 22.6928 16.6394 22.5697 16.7302 22.479C16.8209 22.3882 16.944 22.3372 17.0723 22.3372C17.2006 22.3372 17.3237 22.3882 17.4145 22.479C17.5052 22.5697 17.5562 22.6928 17.5562 22.8211V23.0159H18.8438ZM26.9516 24.9852C26.9514 25.2509 26.8458 25.5056 26.658 25.6935C26.4702 25.8813 26.2155 25.9871 25.9499 25.9874H2.42854C2.16282 25.9874 1.90798 25.8819 1.72008 25.694C1.53219 25.5061 1.42663 25.2512 1.42663 24.9855C1.42663 24.7198 1.53219 24.465 1.72008 24.2771C1.90798 24.0892 2.16282 23.9836 2.42854 23.9836H25.9501C26.2156 23.984 26.4701 24.0896 26.6579 24.2774C26.8457 24.4651 26.9513 24.7197 26.9517 24.9852H26.9516ZM0.9678 7.68627C0.971327 8.46406 1.28277 9.20878 1.834 9.75751C2.38523 10.3062 3.13136 10.6143 3.90915 10.6143C4.68695 10.6143 5.43308 10.3062 5.9843 9.75751C6.53553 9.20878 6.84698 8.46406 6.85051 7.68627V7.11222H0.9678V7.68627ZM5.84642 1.06693L9.36052 1.04691C8.90272 3.14449 8.1454 4.85563 7.10448 6.14454H1.5303L5.84642 1.06693ZM26.931 6.14454H21.1627C20.1127 4.84475 19.3506 3.11431 18.8946 0.991933L22.8164 0.968949L26.9312 6.14454H26.931ZM14.6679 7.68627C14.6679 7.69534 14.6674 7.70381 14.6673 7.71228C14.6673 7.71712 14.6679 7.72129 14.6679 7.72619C14.6779 8.50312 14.9948 9.24454 15.5496 9.78855C16.1044 10.3326 16.8519 10.6349 17.6288 10.6297C18.4058 10.6244 19.1491 10.3119 19.6965 9.76041C20.2438 9.20892 20.5507 8.46326 20.5501 7.68627V7.11222H14.6679V7.68627ZM7.81819 7.68627C7.81819 7.69292 7.81764 7.70012 7.81752 7.70684C7.81752 7.71046 7.81819 7.71409 7.81813 7.71833C7.825 8.4966 8.14008 9.24041 8.69434 9.78681C9.24859 10.3332 9.99683 10.6376 10.7751 10.6334C11.5534 10.6292 12.2983 10.3166 12.8466 9.76418C13.3948 9.21177 13.7018 8.46457 13.7002 7.68627V7.11222H7.81819V7.68627ZM17.9075 0.997377L10.3512 1.04092C9.93143 3.06955 9.24681 4.78003 8.30986 6.14454H19.9572C19.0137 4.77035 18.326 3.04529 17.9075 0.997377ZM24.4591 10.6275C26.0806 10.6275 27.4505 9.28056 27.4505 7.68627V7.11222H21.5178V7.68627C21.5178 7.69232 21.5172 7.69837 21.5172 7.70442C21.5172 7.70805 21.5179 7.71101 21.5178 7.71409C21.5275 8.48862 21.8414 9.22827 22.3917 9.77336C22.942 10.3185 23.6846 10.6253 24.4592 10.6275H24.4591ZM22.8962 18.9241L25.5187 20.438L25.6058 17.3038L22.8962 15.8981V18.9241H22.8962ZM25.9644 13.61L23.4194 15.0792L26.0897 16.4643L28.5369 15.0956L25.9644 13.61V13.61ZM29.8904 14.8996C29.8892 14.8977 29.8886 14.8959 29.8874 14.8941C29.8869 14.8933 29.8865 14.8925 29.8862 14.8917C29.8093 14.7582 29.6982 14.6476 29.5644 14.5711L26.3999 12.7439C26.2678 12.6667 26.1175 12.626 25.9644 12.626C25.8114 12.626 25.6611 12.6667 25.529 12.7439L25.4015 12.8176V11.481C26.0964 11.3093 26.7321 10.9535 27.2419 10.451C27.6133 10.0925 27.9088 9.66301 28.1108 9.18807C28.3129 8.71313 28.4175 8.20242 28.4183 7.68627V6.62835C28.4182 6.61099 28.4172 6.59364 28.4152 6.57639C28.4146 6.57391 28.4146 6.57216 28.414 6.57035C28.4118 6.55203 28.4086 6.53385 28.4043 6.51591C28.4031 6.51107 28.4019 6.50684 28.4007 6.5026C28.3959 6.48414 28.39 6.46597 28.3831 6.44817C28.3826 6.4469 28.3819 6.44575 28.3813 6.44454C28.3737 6.42534 28.3646 6.40673 28.3541 6.3889C28.3518 6.38527 28.3499 6.38164 28.3474 6.37801C28.3379 6.36257 28.3276 6.34763 28.3166 6.33325C28.3155 6.33144 28.3142 6.32962 28.313 6.32781L23.4272 0.1826C23.3819 0.12564 23.3243 0.0796389 23.2587 0.0480233C23.1932 0.0164077 23.1213 -7.61408e-06 23.0485 2.64941e-09H23.0455L9.94606 0.0756046H9.94358L5.619 0.100947C5.54935 0.101242 5.48058 0.116587 5.41741 0.145933C5.35424 0.175278 5.29816 0.21793 5.25301 0.270967L0.115584 6.3151C0.11504 6.31565 0.114314 6.31692 0.113709 6.31752C0.100405 6.3335 0.0880844 6.35026 0.0768143 6.36773C0.0748052 6.37148 0.0725839 6.37511 0.0701611 6.37861C0.0611491 6.39428 0.052016 6.41067 0.0441531 6.4276C0.0436088 6.42996 0.0417338 6.43244 0.0411289 6.43486C0.0324738 6.4538 0.0253934 6.47343 0.0199597 6.49353C0.0188105 6.4971 0.0181451 6.50019 0.0169355 6.50381C0.012638 6.52056 0.00920605 6.53752 0.00665322 6.55462C0.00560454 6.55921 0.00479699 6.56386 0.00423387 6.56853C0.00167815 6.58839 0.000264529 6.60839 0 6.62841V7.68627C0.00124576 8.63871 0.349806 9.55801 0.980348 10.2719C1.61089 10.9857 2.48013 11.4451 3.42513 11.5639V23.0159H2.42854C1.90616 23.0159 1.40517 23.2234 1.03579 23.5928C0.666406 23.9621 0.45889 24.4631 0.45889 24.9855C0.45889 25.5079 0.666406 26.0089 1.03579 26.3783C1.40517 26.7477 1.90616 26.9552 2.42854 26.9552H25.9501C26.4705 26.9523 26.9687 26.7435 27.3357 26.3744C27.7028 26.0054 27.9088 25.506 27.9088 24.9856C27.9088 24.4651 27.7028 23.9657 27.3357 23.5967C26.9687 23.2276 26.4705 23.0188 25.9501 23.0159H25.4016V21.4874L25.5291 21.5612C25.6611 21.6388 25.8114 21.6798 25.9646 21.6798C26.1177 21.6798 26.2681 21.6388 26.4001 21.5612L29.5645 19.734C29.6976 19.6583 29.8081 19.5485 29.8846 19.416C29.9611 19.2834 30.001 19.1329 30 18.9798V15.3253C30.0003 15.1764 29.9626 15.0298 29.8904 14.8996H29.8904ZM14.1889 17.291C14.6739 17.2911 15.1481 17.1473 15.5514 16.8778C15.9547 16.6083 16.2691 16.2253 16.4547 15.7772C16.6403 15.3291 16.6889 14.836 16.5942 14.3603C16.4996 13.8845 16.266 13.4476 15.923 13.1046C15.58 12.7616 15.1431 12.5281 14.6673 12.4335C14.1916 12.3389 13.6985 12.3875 13.2504 12.5732C12.8023 12.7588 12.4193 13.0732 12.1499 13.4765C11.8804 13.8799 11.7367 14.354 11.7367 14.8391C11.7376 15.4892 11.9962 16.1124 12.4559 16.572C12.9156 17.0317 13.5388 17.2903 14.1889 17.291ZM14.1889 11.4187C13.5125 11.4187 12.8512 11.6193 12.2888 11.9951C11.7264 12.3709 11.2881 12.905 11.0292 13.53C10.7704 14.1549 10.7026 14.8425 10.8346 15.506C10.9665 16.1694 11.2923 16.7788 11.7705 17.2571C12.2488 17.7354 12.8582 18.0612 13.5216 18.1931C14.185 18.3251 14.8727 18.2574 15.4976 17.9986C16.1226 17.7398 16.6567 17.3015 17.0326 16.7391C17.4084 16.1767 17.609 15.5155 17.6091 14.8391C17.6081 13.9323 17.2474 13.063 16.6063 12.4217C15.9651 11.7805 15.0958 11.4198 14.189 11.4187H14.1889Z" fill="#242222"/>
    <path fill-rule="evenodd" clip-rule="evenodd" d="M10.3512 1.04062C9.93144 3.06924 9.24683 4.77972 8.30988 6.14423H19.9572C19.0137 4.77004 18.326 3.04499 17.9075 0.99707L10.3512 1.04062Z" fill="#D1D1D6"/>
    <path fill-rule="evenodd" clip-rule="evenodd" d="M7.10439 6.1445C8.14532 4.85559 8.90263 3.14451 9.36043 1.04688L5.84633 1.0669L1.53027 6.1445H7.10439Z" fill="#CF312D"/>
    <path fill-rule="evenodd" clip-rule="evenodd" d="M13.7002 7.1123H7.81817V7.68636L7.8175 7.70692C7.8175 7.71055 7.81817 7.71418 7.81811 7.71841C7.82498 8.49668 8.14006 9.2405 8.69432 9.78689C9.24858 10.3333 9.99682 10.6377 10.7751 10.6335C11.5534 10.6292 12.2983 10.3167 12.8465 9.76427C13.3948 9.21186 13.7018 8.46465 13.7002 7.68636V7.1123Z" fill="#D1D1D6"/>
    <path fill-rule="evenodd" clip-rule="evenodd" d="M14.6679 7.72627C14.6779 8.5032 14.9948 9.24463 15.5496 9.78863C16.1044 10.3326 16.8519 10.635 17.6288 10.6298C18.4058 10.6245 19.1491 10.312 19.6964 9.76049C20.2438 9.209 20.5507 8.46334 20.5501 7.68636V7.1123H14.6679V7.68636L14.6673 7.71236L14.6679 7.72627Z" fill="#FF3C38"/>
    <path fill-rule="evenodd" clip-rule="evenodd" d="M3.9091 10.6277C4.68889 10.6267 5.43647 10.3165 5.98787 9.76511C6.53927 9.21372 6.84949 8.46615 6.85048 7.68636V7.1123H0.967834V7.68636C0.968827 8.46613 1.27903 9.21368 1.8304 9.76507C2.38178 10.3165 3.12932 10.6267 3.9091 10.6277Z" fill="#FF3C38"/>
    <path fill-rule="evenodd" clip-rule="evenodd" d="M18.8945 0.99271C19.3506 3.11508 20.1127 4.84552 21.1627 6.14532H26.9311L22.8164 0.969727L18.8945 0.99271Z" fill="#D1D1D6"/>
    <path fill-rule="evenodd" clip-rule="evenodd" d="M27.4505 7.1123H21.5178V7.68636L21.5172 7.7045C21.5172 7.70813 21.5179 7.71109 21.5178 7.71418C21.5275 8.4887 21.8414 9.22835 22.3917 9.77345C22.942 10.3185 23.6846 10.6253 24.4592 10.6276C26.0807 10.6276 27.4507 9.28065 27.4507 7.68636L27.4505 7.1123Z" fill="#D1D1D6"/>
    <path fill-rule="evenodd" clip-rule="evenodd" d="M24.4336 11.5953C23.7381 11.5891 23.0567 11.398 22.4594 11.0415C21.8622 10.685 21.3706 10.1759 21.035 9.56664C20.6987 10.181 20.2033 10.6936 19.6007 11.0506C18.9981 11.4076 18.3105 11.596 17.6101 11.5958C16.9097 11.5957 16.2222 11.4072 15.6197 11.0499C15.0172 10.6927 14.522 10.1799 14.1859 9.56543C13.8495 10.1799 13.3541 10.6926 12.7515 11.0498C12.149 11.4071 11.4614 11.5957 10.7609 11.5958C10.0604 11.596 9.37274 11.4078 8.76998 11.0509C8.16721 10.694 7.67153 10.1815 7.33487 9.56724C7.0369 10.1087 6.615 10.5719 6.10368 10.919C5.59236 11.2661 5.00613 11.4873 4.39294 11.5644V23.0164H8.56693V22.7515C8.56832 21.6517 9.00587 20.5973 9.78361 19.8197C10.5613 19.0421 11.6158 18.6047 12.7156 18.6035H15.6629C16.7627 18.6047 17.8171 19.042 18.5948 19.8196C19.3726 20.5972 19.8101 21.6516 19.8115 22.7514V23.0164H24.4336V20.9297L22.3639 19.7346C22.2308 19.6589 22.1203 19.5491 22.0438 19.4165C21.9672 19.2839 21.9274 19.1334 21.9284 18.9803V15.3259C21.9282 15.1804 21.9644 15.0371 22.0336 14.9092C22.0342 14.9086 22.0342 14.9073 22.0348 14.9067C22.0355 14.9053 22.0363 14.9039 22.0373 14.9025L22.0542 14.8735C22.0572 14.8692 22.0597 14.8643 22.062 14.8608C22.1377 14.7413 22.2413 14.6421 22.364 14.5717L24.4336 13.3771V11.5953ZM17.6092 14.8396C17.6092 15.516 17.4085 16.1772 17.0327 16.7396C16.6569 17.3019 16.1227 17.7402 15.4978 17.9991C14.8728 18.2579 14.1852 18.3255 13.5218 18.1936C12.8584 18.0616 12.2491 17.7358 11.7708 17.2575C11.2925 16.7792 10.9668 16.1698 10.8348 15.5064C10.7029 14.843 10.7706 14.1554 11.0295 13.5305C11.2883 12.9056 11.7266 12.3714 12.289 11.9956C12.8514 11.6198 13.5126 11.4192 14.189 11.4192C15.0958 11.4202 15.9653 11.7808 16.6065 12.4221C17.2477 13.0633 17.6083 13.9328 17.6092 14.8396Z" fill="#ECEFF1"/>
    <path fill-rule="evenodd" clip-rule="evenodd" d="M25.9645 13.6094L23.4194 15.0786L26.0897 16.4636L28.537 15.0949L25.9645 13.6094Z" fill="#F2D3BA"/>
    <path fill-rule="evenodd" clip-rule="evenodd" d="M25.6059 17.3032L22.8962 15.8975V18.9235L25.5188 20.4374L25.6059 17.3032Z" fill="#A67E4F"/>
    <path fill-rule="evenodd" clip-rule="evenodd" d="M26.5741 17.3021L26.4883 20.3928L29.0323 18.9237V15.9268L26.5741 17.3021Z" fill="#D9AC80"/>
    <path fill-rule="evenodd" clip-rule="evenodd" d="M18.8437 22.7506C18.8427 21.9074 18.5072 21.099 17.9109 20.5028C17.3146 19.9066 16.5062 19.5712 15.663 19.5703H12.7155C11.8723 19.5712 11.0638 19.9065 10.4675 20.5027C9.87119 21.0989 9.53571 21.9073 9.53467 22.7505V23.0155H10.8225V22.8208C10.8225 22.6924 10.8735 22.5694 10.9642 22.4786C11.055 22.3879 11.178 22.3369 11.3064 22.3369C11.4347 22.3369 11.5578 22.3879 11.6485 22.4786C11.7392 22.5694 11.7902 22.6924 11.7902 22.8208V23.0155H16.5885V22.8208C16.5885 22.6924 16.6394 22.5694 16.7302 22.4786C16.8209 22.3879 16.944 22.3369 17.0723 22.3369C17.2007 22.3369 17.3237 22.3879 17.4145 22.4786C17.5052 22.5694 17.5562 22.6924 17.5562 22.8208V23.0155H18.8438L18.8437 22.7506Z" fill="#3ABEFF"/>
    <path fill-rule="evenodd" clip-rule="evenodd" d="M14.189 17.2904C14.6741 17.2904 15.1482 17.1466 15.5515 16.8771C15.9548 16.6077 16.2692 16.2247 16.4548 15.7766C16.6404 15.3284 16.689 14.8353 16.5944 14.3596C16.4997 13.8839 16.2662 13.4469 15.9232 13.1039C15.5802 12.761 15.1432 12.5274 14.6675 12.4328C14.1917 12.3382 13.6986 12.3868 13.2505 12.5725C12.8024 12.7582 12.4194 13.0725 12.15 13.4759C11.8806 13.8792 11.7368 14.3534 11.7369 14.8384C11.7377 15.4885 11.9963 16.1117 12.456 16.5714C12.9157 17.031 13.5389 17.2896 14.189 17.2904Z" fill="#FEB69E"/>
    <path fill-rule="evenodd" clip-rule="evenodd" d="M25.9501 23.9834H2.42843C2.1627 23.9834 1.90786 24.089 1.71997 24.2769C1.53207 24.4647 1.42651 24.7196 1.42651 24.9853C1.42651 25.251 1.53207 25.5059 1.71997 25.6938C1.90786 25.8817 2.1627 25.9872 2.42843 25.9872H25.9499C26.2157 25.9872 26.4705 25.8817 26.6584 25.6938C26.8463 25.5059 26.9519 25.251 26.9519 24.9853C26.9519 24.7196 26.8463 24.4647 26.6584 24.2769C26.4705 24.089 26.2157 23.9834 25.9499 23.9834H25.9501Z" fill="#A67E4F"/>
    <path fill-rule="evenodd" clip-rule="evenodd" d="M16.1576 14.8391C16.1568 15.4474 15.9303 16.0337 15.5219 16.4845C15.1135 16.9353 14.5524 17.2185 13.9471 17.2792C14.0267 17.2871 14.1074 17.2911 14.1891 17.2913C14.5121 17.2929 14.8323 17.2307 15.1313 17.1082C15.4302 16.9856 15.702 16.8053 15.931 16.5774C16.16 16.3495 16.3417 16.0786 16.4657 15.7803C16.5897 15.482 16.6536 15.1621 16.6536 14.839C16.6536 14.516 16.5897 14.1961 16.4657 13.8978C16.3417 13.5994 16.16 13.3286 15.931 13.1007C15.702 12.8728 15.4302 12.6924 15.1313 12.5699C14.8323 12.4474 14.5121 12.3851 14.1891 12.3867C14.1075 12.3867 14.0269 12.3908 13.9471 12.3988C14.5524 12.4596 15.1136 12.7428 15.522 13.1936C15.9304 13.6445 16.1569 14.2308 16.1576 14.8391Z" fill="#E28C73"/>
</svg>
