<svg width="24" height="24" viewBox="0 0 24 24" fill="none" xmlns="http://www.w3.org/2000/svg">
    <g clip-path="url(#clip0_530_2886)">
        <path fill-rule="evenodd" clip-rule="evenodd" d="M20.2409 20.5835H16.4707L20.5952 16.459V20.2513C20.5952 20.4285 20.4347 20.5835 20.2409 20.5835ZM7.52394 20.5835H3.75923C3.56546 20.5835 3.40491 20.4285 3.40491 20.2347V16.4756L7.52394 20.5835ZM3.40491 7.53439V3.76969C3.40491 3.57592 3.56546 3.4209 3.75923 3.4209H7.5184L3.40491 7.53439ZM16.4873 3.4209H20.2409C20.4347 3.4209 20.5952 3.57592 20.5952 3.76969V7.52332L16.4873 3.4209Z" fill="white"/>
        <path fill-rule="evenodd" clip-rule="evenodd" d="M12.0083 23.9996C11.9142 23.9996 11.8367 23.9608 11.7758 23.8999L0.110764 12.257C-0.0276441 12.1186 -0.0276441 11.9027 0.110764 11.7698L11.7537 0.104783C11.8921 -0.0336255 12.108 -0.0336255 12.2464 0.104783L23.8893 11.7477C24.0277 11.8861 24.0277 12.102 23.8893 12.2349L12.2464 23.8833C12.1855 23.9608 12.0859 23.9996 12.0083 23.9996ZM12.0083 17.7159C8.86924 17.7159 6.31146 15.1636 6.31146 12.019C6.31146 8.87987 8.86924 6.32762 12.0083 6.32762C15.153 6.32762 17.7052 8.87987 17.7052 12.019C17.6886 15.1636 15.1308 17.7159 12.0083 17.7159ZM12.0083 6.98644C9.24018 6.98644 6.99796 9.23419 6.99796 12.0024C6.99796 14.7705 9.25679 17.0127 12.0083 17.0127C14.782 17.0127 17.0243 14.7539 17.0243 12.0024C17.0021 9.2508 14.7599 6.98644 12.0083 6.98644ZM11.7426 12.3511H10.1537L9.49485 14.2833C9.45609 14.4217 9.31769 14.5159 9.17928 14.5159C9.14052 14.5159 9.10177 14.5159 9.06301 14.4992C8.88585 14.4383 8.79173 14.2446 8.8471 14.0674L9.57789 11.9304C9.58343 11.9027 9.5945 11.8695 9.60557 11.8473L10.6243 8.86326C10.6409 8.8079 10.6686 8.76914 10.7073 8.73039V8.72485C10.7461 8.69163 10.7903 8.66395 10.8402 8.64734C10.8734 8.63627 10.9121 8.63073 10.9454 8.63073C10.9841 8.63073 11.0173 8.63627 11.0561 8.64734C11.1059 8.66395 11.1502 8.69163 11.1834 8.72485L11.189 8.73039C11.2222 8.76361 11.2499 8.8079 11.2665 8.86326L12.2519 11.7477C12.3184 11.8086 12.3627 11.9027 12.3627 12.0024C12.3627 12.019 12.3571 12.0356 12.3571 12.0522L13.0436 14.0674C13.1045 14.2446 13.0049 14.4383 12.8277 14.4992C12.8111 14.4992 12.7724 14.5159 12.7336 14.5159C12.5952 14.5159 12.4568 14.4217 12.4014 14.2833L11.7426 12.3511ZM10.9454 10.0204L10.3917 11.648H11.5045L10.9454 10.0204ZM15.153 9.3117H14.782V13.8183H15.153C15.3468 13.8183 15.5018 13.9733 15.5018 14.1671C15.4796 14.3608 15.3246 14.5159 15.153 14.5159H14.4277H13.7246C13.5308 14.5159 13.3758 14.3608 13.3758 14.1671C13.3758 13.9733 13.5308 13.8183 13.7246 13.8183H14.0789V9.3117H13.7246C13.5308 9.3117 13.3758 9.15115 13.3758 8.95738C13.3758 8.76361 13.5308 8.60859 13.7246 8.60859H14.4277H15.153C15.3468 8.60859 15.5018 8.76361 15.5018 8.95738C15.5018 9.15115 15.3246 9.3117 15.153 9.3117Z" fill="white"/>
    </g>
    <defs>
        <clipPath id="clip0_530_2886">
            <rect width="24" height="24" fill="white"/>
        </clipPath>
    </defs>
</svg>
