<svg width="27" height="26" viewBox="0 0 27 26" fill="none" xmlns="http://www.w3.org/2000/svg">
    <path d="M8.3168 4.08117C7.75896 4.06995 7.20808 3.95494 6.69235 3.74203C6.40366 3.63243 6.1264 3.49482 5.86454 3.33117C5.53952 3.41698 5.2007 3.43734 4.86776 3.39107C4.53481 3.3448 4.21438 3.23282 3.92508 3.06164C2.27602 2.07258 2.54883 0.119533 2.55118 0.0998457C2.55578 0.0691075 2.5724 0.0414555 2.59739 0.0229729C2.62237 0.0044903 2.65368 -0.00330882 2.68442 0.00129103C2.71516 0.00589087 2.74281 0.022513 2.76129 0.0475008C2.77977 0.0724885 2.78757 0.103795 2.78297 0.134533C2.78016 0.152814 2.53313 1.95328 4.04555 2.86078C4.51475 3.14017 5.06847 3.24235 5.60649 3.14883C5.01258 2.68242 4.87993 2.20242 4.86422 1.90524C4.85639 1.64135 4.92362 1.38066 5.05808 1.15346C5.19255 0.926271 5.38873 0.741906 5.62383 0.621799C5.7577 0.542931 5.90713 0.494144 6.06174 0.478827C6.21636 0.463509 6.37245 0.482028 6.51919 0.533096C6.66593 0.584165 6.7998 0.66656 6.91149 0.774561C7.02319 0.882562 7.11004 1.01358 7.16602 1.15852C7.30126 1.44843 7.33537 1.77532 7.26288 2.0869C7.19039 2.39848 7.0155 2.67675 6.76618 2.87719C6.58579 3.02989 6.38097 3.15111 6.16032 3.23578C6.35919 3.34617 6.56556 3.4425 6.77789 3.52406C7.83118 3.93469 8.74664 3.95367 9.49946 3.58008C10.6448 3.01219 11.0259 1.71797 11.0297 1.70508C11.0339 1.69028 11.041 1.67645 11.0506 1.66439C11.0602 1.65233 11.072 1.64228 11.0855 1.6348C11.099 1.62733 11.1138 1.62258 11.1291 1.62082C11.1444 1.61907 11.1598 1.62034 11.1747 1.62457C11.1895 1.6288 11.2033 1.63591 11.2153 1.64549C11.2274 1.65506 11.2375 1.66692 11.2449 1.68038C11.2524 1.69384 11.2572 1.70864 11.2589 1.72394C11.2607 1.73924 11.2594 1.75473 11.2552 1.76953C11.2388 1.82672 10.8408 3.17578 9.60352 3.79008C9.20319 3.98615 8.76254 4.08584 8.3168 4.08117ZM6.18164 0.714611C6.02481 0.716782 5.87077 0.756398 5.73235 0.830158C5.53712 0.929318 5.37404 1.08182 5.26202 1.26997C5.15001 1.45811 5.09367 1.67417 5.09953 1.89305C5.11383 2.17008 5.25282 2.63227 5.90696 3.07828C6.16619 3.00209 6.40691 2.87323 6.61407 2.69977C6.82586 2.53157 6.97446 2.29661 7.03566 2.03317C7.09686 1.76973 7.06705 1.49332 6.9511 1.24899C6.89785 1.11263 6.81131 0.991767 6.69938 0.897424C6.55292 0.778825 6.3701 0.714269 6.18164 0.714611Z" fill="#E6A147"/>
    <path d="M18.0153 4.08119C17.5695 4.08579 17.1289 3.98602 16.7285 3.78986C15.4913 3.17627 15.0933 1.8265 15.0769 1.76931C15.0684 1.73942 15.072 1.70735 15.0871 1.68016C15.1022 1.65298 15.1275 1.6329 15.1574 1.62435C15.1873 1.61581 15.2194 1.61949 15.2466 1.63459C15.2738 1.64968 15.2938 1.67496 15.3024 1.70486C15.3061 1.71775 15.6905 3.01478 16.8345 3.57986C17.5868 3.95182 18.5021 3.93283 19.5532 3.52267C19.7656 3.44116 19.972 3.34483 20.1708 3.23439C19.9502 3.14972 19.7453 3.0285 19.565 2.8758C19.3161 2.67532 19.1416 2.39724 19.0693 2.08597C18.997 1.7747 19.0311 1.44818 19.166 1.15853C19.222 1.0136 19.3089 0.882578 19.4206 0.774577C19.5323 0.666576 19.6661 0.584181 19.8129 0.533113C19.9596 0.482044 20.1157 0.463525 20.2703 0.478843C20.4249 0.49416 20.5744 0.542947 20.7082 0.621815C20.9433 0.741922 21.1395 0.926287 21.274 1.15348C21.4084 1.38067 21.4757 1.64137 21.4678 1.90525C21.4526 2.20244 21.3195 2.68244 20.7256 3.14885C21.2636 3.2422 21.8173 3.14003 22.2865 2.8608C23.8025 1.95096 23.5521 0.152831 23.5491 0.134784C23.5445 0.104014 23.5522 0.0726657 23.5707 0.047634C23.5892 0.0226023 23.6169 0.00593805 23.6476 0.00130712C23.6784 -0.00332381 23.7098 0.00445789 23.7348 0.0229405C23.7598 0.0414231 23.7765 0.0690925 23.7811 0.0998618C23.7839 0.119549 24.056 2.07236 22.407 3.06166C22.1177 3.23276 21.7972 3.3447 21.4643 3.39097C21.1314 3.43724 20.7925 3.41692 20.4675 3.33119C20.2057 3.49483 19.9284 3.63244 19.6397 3.74205C19.124 3.955 18.5731 4.07001 18.0153 4.08119ZM20.1516 0.714627C19.9631 0.714538 19.7804 0.779342 19.6341 0.898143C19.5222 0.992487 19.4356 1.11335 19.3824 1.24971C19.2664 1.49404 19.2366 1.77045 19.2978 2.03389C19.359 2.29733 19.5076 2.53229 19.7194 2.70049C19.9266 2.87395 20.1673 3.00281 20.4265 3.079C21.0807 2.63369 21.2196 2.1708 21.2339 1.89377C21.2398 1.67488 21.1835 1.45883 21.0714 1.27068C20.9594 1.08254 20.7963 0.930037 20.6011 0.830877C20.4627 0.756768 20.3086 0.716905 20.1516 0.714627Z" fill="#FCC071"/>
    <path d="M13.2422 7.56813C13.2375 7.57048 13.2352 7.57516 13.2305 7.57751C11.3133 6.05173 8.50317 5.11657 9.35161 2.41657C9.85317 1.02907 11.5266 0.909539 12.5485 1.85641C12.8671 2.15295 13.1023 2.52795 13.2305 2.94391C13.8657 0.947039 16.4649 0.625945 17.1094 2.41657C17.9555 5.11188 15.1594 6.04704 13.2422 7.56813Z" fill="#E6989E"/>
    <path d="M26.5289 25.0326H13.7507L14.421 17.0662C14.4302 16.9294 14.4691 16.7962 14.5351 16.6759C14.6011 16.5557 14.6926 16.4513 14.8031 16.3701C15.1669 16.1395 15.5762 15.99 16.0031 15.9318C16.7625 15.8006 17.8757 15.599 18.7546 15.4396C19.5398 15.2967 20.1398 15.1865 20.1398 15.1865C20.1398 15.1865 22.8398 15.6834 24.2765 15.9318C24.7036 15.9891 25.1131 16.1387 25.4765 16.3701C25.5873 16.4512 25.6791 16.5555 25.7455 16.6757C25.8119 16.796 25.8513 16.9292 25.8609 17.0662L26.5289 25.0326Z" fill="#555057"/>
    <path d="M18.7546 15.4404L18.525 16.1154C15.4523 16.4201 14.9085 21.8717 14.8523 25.0334H13.7507L14.421 17.067C14.4302 16.9301 14.4691 16.797 14.5351 16.6767C14.6011 16.5565 14.6926 16.4521 14.8031 16.3709C15.1669 16.1403 15.5762 15.9908 16.0031 15.9326C16.7625 15.8014 17.8769 15.5998 18.7546 15.4404Z" fill="#3E3B40"/>
    <path d="M20.1407 15.7738L18.8493 15.8617L18.1356 17.0779L20.1374 22.3656L22.3042 17.6446L21.7452 16.0661L21.0452 15.6475L20.1407 15.7738Z" fill="#C2CBD5"/>
    <path d="M18.9609 13.9531H21.3211V16.032H18.9609V13.9531Z" fill="#FFCDBE"/>
    <path d="M21.3222 13.9531V14.9258C20.943 15.0698 20.5387 15.1363 20.1333 15.1214C19.728 15.1065 19.3297 15.0105 18.962 14.8391V13.9531H21.3222Z" fill="#E69A85"/>
    <path d="M22.3804 11.8189C21.2672 11.7463 19.4765 11.5354 18.1758 11.3713C17.2453 11.2541 16.5633 11.1604 16.5633 11.1604C16.1832 10.7607 15.9145 10.2685 15.7837 9.7327C15.653 9.19692 15.6648 8.63625 15.8179 8.10645H15.4828C15.4828 8.10645 16.3969 5.32207 19.9898 5.24941C20.039 5.24707 20.0883 5.24707 20.1375 5.24707C23.9859 5.24707 24.1312 8.72988 24.0937 8.83301C24.0937 8.83301 24.2929 11.9455 22.3804 11.8189Z" fill="#BE694E"/>
    <path d="M18.1758 11.3709C17.2453 11.2537 16.5633 11.16 16.5633 11.16C16.2175 10.7964 15.9634 10.3557 15.8219 9.87431C15.6805 9.39294 15.6558 8.8848 15.75 8.39199C15.7687 8.29824 15.7898 8.20215 15.8179 8.10605H15.4828C15.4828 8.10605 16.3969 5.32168 19.9898 5.24902C18.2179 6.99371 18.0304 9.55918 18.1758 11.3709Z" fill="#9C5640"/>
    <path d="M17.3219 11.0938C17.3219 11.0938 16.7172 10.3774 16.3265 10.8705C15.9358 11.3636 16.3544 12.9264 17.815 12.6102L17.3219 11.0938Z" fill="#E69A85"/>
    <path d="M22.9598 11.0938C22.9598 11.0938 23.5645 10.3774 23.9552 10.8705C24.3459 11.3636 23.9273 12.9264 22.4667 12.6102L22.9598 11.0938Z" fill="#E8AB9A"/>
    <path d="M23.0718 13.1818C22.7039 14.0514 21.3726 14.4311 20.6367 14.5787C20.4723 14.6113 20.3051 14.6278 20.1375 14.6279C19.9722 14.6279 19.8073 14.6114 19.6453 14.5787C18.9093 14.4311 17.5781 14.0514 17.2101 13.1818C16.8187 12.1248 16.9242 10.2709 16.9242 10.2709C17.331 10.2606 17.7363 10.2167 18.1359 10.1396C19.7554 9.83496 20.9976 9.01934 21.6867 7.95996C21.7596 8.45089 21.9495 8.91709 22.2403 9.31927C22.5312 9.72146 22.9144 10.0478 23.3578 10.2709C23.3578 10.2709 23.4609 12.1239 23.0718 13.1818Z" fill="#FFCDBE"/>
    <path d="M20.1386 13.2701C19.8713 13.2805 19.6088 13.1967 19.3968 13.0335C19.1848 12.8702 19.0368 12.6378 18.9785 12.3767C18.9697 12.3469 18.9732 12.3148 18.9881 12.2875C19.0031 12.2602 19.0282 12.24 19.058 12.2313C19.0879 12.2225 19.12 12.226 19.1472 12.2409C19.1745 12.2559 19.1947 12.281 19.2035 12.3109C19.2566 12.5183 19.3772 12.7021 19.5463 12.8334C19.7155 12.9647 19.9235 13.036 20.1376 13.036C20.3517 13.036 20.5597 12.9647 20.7288 12.8334C20.898 12.7021 21.0186 12.5183 21.0717 12.3109C21.0804 12.281 21.1006 12.2559 21.1279 12.2409C21.1414 12.2336 21.1562 12.2289 21.1715 12.2272C21.1869 12.2256 21.2023 12.227 21.2171 12.2313C21.2319 12.2356 21.2457 12.2428 21.2577 12.2524C21.2696 12.2621 21.2796 12.274 21.287 12.2875C21.2944 12.301 21.2991 12.3159 21.3007 12.3312C21.3024 12.3465 21.301 12.3619 21.2967 12.3767C21.2385 12.6375 21.0908 12.8696 20.8792 13.0328C20.6677 13.1961 20.4056 13.28 20.1386 13.2701Z" fill="#D97355"/>
    <path d="M18.8494 11.1029C18.9933 11.1029 19.11 10.9214 19.11 10.6975C19.11 10.4735 18.9933 10.292 18.8494 10.292C18.7054 10.292 18.5887 10.4735 18.5887 10.6975C18.5887 10.9214 18.7054 11.1029 18.8494 11.1029Z" fill="#9C5640"/>
    <path d="M21.4277 11.1029C21.5717 11.1029 21.6884 10.9214 21.6884 10.6975C21.6884 10.4735 21.5717 10.292 21.4277 10.292C21.2838 10.292 21.1671 10.4735 21.1671 10.6975C21.1671 10.9214 21.2838 11.1029 21.4277 11.1029Z" fill="#9C5640"/>
    <path d="M20.1387 12.0391C20.0268 12.0391 19.9195 11.9946 19.8404 11.9155C19.7612 11.8364 19.7168 11.7291 19.7168 11.6172C19.7168 11.5861 19.7291 11.5563 19.7511 11.5343C19.7731 11.5123 19.8029 11.5 19.834 11.5C19.8651 11.5 19.8949 11.5123 19.9168 11.5343C19.9388 11.5563 19.9512 11.5861 19.9512 11.6172C19.9512 11.6669 19.9709 11.7146 20.0061 11.7498C20.0413 11.7849 20.0889 11.8047 20.1387 11.8047C20.1884 11.8047 20.2361 11.7849 20.2713 11.7498C20.3064 11.7146 20.3262 11.6669 20.3262 11.6172C20.3262 11.5861 20.3385 11.5563 20.3605 11.5343C20.3825 11.5123 20.4123 11.5 20.4434 11.5C20.4744 11.5 20.5042 11.5123 20.5262 11.5343C20.5482 11.5563 20.5605 11.5861 20.5605 11.6172C20.5605 11.7291 20.5161 11.8364 20.437 11.9155C20.3579 11.9946 20.2506 12.0391 20.1387 12.0391Z" fill="#D97355"/>
    <path d="M16.2492 8.18907L15.7898 8.38125C15.7773 8.38729 15.7638 8.39125 15.75 8.39297C15.7687 8.29922 15.7898 8.20313 15.818 8.10704L16.118 7.98282C16.1521 7.96747 16.1903 7.96374 16.2267 7.97221C16.2631 7.98068 16.2957 8.00087 16.3195 8.02969C16.3273 8.04452 16.3316 8.06091 16.3322 8.07764C16.3328 8.09437 16.3295 8.11101 16.3228 8.12633C16.316 8.14164 16.3059 8.15524 16.2932 8.1661C16.2804 8.17696 16.2654 8.18481 16.2492 8.18907Z" fill="#6B3B2C"/>
    <path d="M16.679 10.5282C16.6044 10.5297 16.5299 10.5227 16.4568 10.5074C16.4273 10.4994 16.402 10.4802 16.3864 10.4538C16.3708 10.4275 16.3662 10.3961 16.3735 10.3663C16.3808 10.3366 16.3994 10.3109 16.4254 10.2947C16.4514 10.2785 16.4827 10.2732 16.5126 10.2798C16.6504 10.3024 16.7913 10.2992 16.9279 10.2704C16.9433 10.267 16.9593 10.2667 16.9748 10.2695C16.9903 10.2724 17.0051 10.2783 17.0183 10.2871C17.0315 10.2958 17.0427 10.3071 17.0514 10.3202C17.0601 10.3334 17.0661 10.3482 17.0689 10.3638C17.0717 10.3793 17.0714 10.3953 17.0679 10.4107C17.0644 10.4261 17.0578 10.4406 17.0486 10.4534C17.0393 10.4662 17.0276 10.477 17.0141 10.4851C17.0006 10.4933 16.9855 10.4986 16.9699 10.5008C16.8739 10.5187 16.7766 10.5278 16.679 10.5282Z" fill="#6B3B2C"/>
    <path d="M21.313 18.4183L20.1374 22.0825L18.9615 18.4183L19.7814 16.5566L20.1374 16.7338L20.4934 16.5566L21.313 18.4183Z" fill="#819ECC"/>
    <path d="M18.3926 15.6475L18.8848 17.0771L20.1406 21.8078V22.659C20.1046 22.7339 20.0484 22.7972 19.9782 22.8416C19.9081 22.886 19.8268 22.9098 19.7438 22.9103C18.6539 21.9201 17.7688 20.7256 17.1389 19.3946C16.9033 18.8948 16.8674 18.324 17.0384 17.7986C17.4195 16.644 17.9025 15.9814 18.3926 15.6475Z" fill="#766D78"/>
    <path d="M21.8897 15.6475L21.3975 17.0771L20.1415 21.8078V22.659C20.1775 22.7339 20.2338 22.7972 20.304 22.8416C20.3742 22.886 20.4554 22.9098 20.5385 22.9103C21.6284 21.9201 22.5134 20.7256 23.1434 19.3946C23.3788 18.8948 23.4148 18.324 23.2439 17.7986C22.8621 16.644 22.3791 15.9814 21.8897 15.6475Z" fill="#766D78"/>
    <path d="M19.2051 15.196C19.5475 15.3056 19.8653 15.4807 20.1407 15.7117C19.7909 16.226 19.3678 16.6864 18.8847 17.0783C18.5257 16.6208 18.3311 16.0558 18.3321 15.4742C18.2908 15.3695 18.7975 15.0282 19.2051 15.196Z" fill="#E9EDF1"/>
    <path d="M21.0766 15.196C20.7342 15.3057 20.4164 15.4808 20.1407 15.7116C20.4906 16.2262 20.9137 16.687 21.3968 17.0792C21.7187 16.6024 21.9093 16.0491 21.9494 15.4752C21.6993 15.2845 21.391 15.1859 21.0766 15.196Z" fill="#E9EDF1"/>
    <path d="M20.6566 16.659C20.3176 16.7588 19.9571 16.7588 19.6181 16.659C19.5594 16.3313 19.6244 15.9935 19.8004 15.7109H20.4759C20.6507 15.994 20.715 16.3315 20.6566 16.659Z" fill="#8BAADC"/>
    <path d="M16.3066 19.5342V25.0326H16.0723V19.5342C16.0723 19.5031 16.0846 19.4733 16.1066 19.4513C16.1286 19.4293 16.1584 19.417 16.1895 19.417C16.2205 19.417 16.2503 19.4293 16.2723 19.4513C16.2943 19.4733 16.3066 19.5031 16.3066 19.5342Z" fill="#3C383D"/>
    <path d="M24.2109 19.5342V25.0326H23.9766V19.5342C23.9766 19.5031 23.9889 19.4733 24.0109 19.4513C24.0329 19.4293 24.0627 19.417 24.0938 19.417C24.1248 19.417 24.1546 19.4293 24.1766 19.4513C24.1986 19.4733 24.2109 19.5031 24.2109 19.5342Z" fill="#3C383D"/>
    <path d="M20.1375 14.627C19.9722 14.6269 19.8073 14.6105 19.6453 14.5777C18.9093 14.4301 17.5781 14.0504 17.2101 13.1809C16.8187 12.1238 16.9242 10.2699 16.9242 10.2699C17.331 10.2597 17.7363 10.2158 18.1359 10.1387V10.141C17.9883 13.8559 20.1375 14.627 20.1375 14.627Z" fill="#E8AB9A"/>
    <path d="M15.8883 25.0332H0L1.21172 14.2004C1.35703 13.3145 2.09297 7.5957 7.94297 7.37305C8.95217 7.39421 9.94498 7.63242 10.8539 8.07148C14.0648 9.67227 14.5594 13.4902 14.6766 14.2004L15.8883 25.0332Z" fill="#E9EDF1"/>
    <path d="M3.33047 25.0332H0L1.21172 14.2004C1.35703 13.3145 2.09297 7.5957 7.94297 7.37305C8.95216 7.39421 9.94497 7.63242 10.8539 8.07148C3.51094 11.4395 3.16875 21.2246 3.33047 25.0332Z" fill="#C8D2DC"/>
    <path d="M13.7883 25.0326H2.10352C2.10352 25.0326 2.25117 24.5428 2.43867 23.7342C2.71402 22.5479 2.91519 21.3455 3.04102 20.1342C3.2918 17.6756 4.24102 17.3732 5.15742 17.2865C5.2582 17.2771 5.35898 17.2701 5.45977 17.2631C6.2168 17.2092 6.85195 17.0568 7.03008 16.0631C7.09319 15.6566 7.10107 15.2435 7.05351 14.835H8.83945C8.79122 15.249 8.79989 15.6678 8.86523 16.0795C9.04805 17.0568 9.68086 17.2092 10.4332 17.2631C11.4316 17.3334 12.5707 17.4037 12.852 20.1342C13.0218 21.791 13.3351 23.43 13.7883 25.0326Z" fill="#FFCDBE"/>
    <path d="M5.1563 17.2871C4.26966 17.5123 3.57778 23.0335 3.44536 23.4127C3.09933 23.484 2.76188 23.592 2.43872 23.7348C2.71407 22.5484 2.91524 21.3461 3.04106 20.1348C3.29067 17.6762 4.23989 17.3738 5.1563 17.2871Z" fill="#EBAE9D"/>
    <path d="M11.1035 24.1121L13.2581 22.8311L13.7876 25.0316H11.3255L11.1035 24.1121Z" fill="#C8D2DC"/>
    <path d="M4.78589 24.1117L4.56323 25.0328H2.10229L2.60151 22.9727L3.29761 23.3359L4.78589 24.1117Z" fill="#C8D2DC"/>
    <path d="M8.86335 16.0785C8.2626 16.2483 7.62582 16.2426 7.0282 16.0621C7.09131 15.6557 7.09919 15.2425 7.05164 14.834H8.83757C8.78934 15.2481 8.79802 15.6668 8.86335 16.0785Z" fill="#E69A85"/>
    <path d="M10.732 7.64707L10.1344 8.65957L8.04141 8.01973L7.94297 7.98926L5.75391 8.65957L5.15625 7.64707L6.04219 7.49004L6.30469 6.77988L7.03828 7.17598L7.94297 6.48926L8.85 7.17598L9.58125 6.77988L9.58828 6.79863L9.84609 7.49004L10.732 7.64707Z" fill="#FFE07D"/>
    <path d="M9.58828 6.79863C9.01899 7.13264 8.49847 7.54354 8.04141 8.01973L7.94297 7.98926L5.75391 8.65957L5.15625 7.64707L6.04219 7.49004L6.30469 6.77988L7.03828 7.17598L7.94297 6.48926L8.85 7.17598L9.58125 6.77988L9.58828 6.79863Z" fill="#E3C258"/>
    <path d="M11.011 13.0414L7.943 10.7633L6.27894 11.9984L4.87738 13.0414C4.87738 13.0414 2.73519 8.48516 7.59847 7.67656C7.82742 7.63906 8.06094 7.63906 8.28988 7.67656C8.32035 7.68125 8.35082 7.68594 8.38129 7.69297C13.125 8.54281 11.011 13.0414 11.011 13.0414Z" fill="#BE694E"/>
    <path d="M8.38128 7.69203C7.76431 8.23564 7.26093 8.8959 6.90013 9.63481C6.53932 10.3737 6.32821 11.1767 6.27894 11.9975L4.87738 13.0414C4.87738 13.0414 2.73519 8.48516 7.59847 7.67656C7.82742 7.63906 8.06094 7.63906 8.28988 7.67656C8.32035 7.68031 8.35082 7.685 8.38128 7.69203Z" fill="#9C5640"/>
    <path d="M5.29108 12.1031C5.29108 12.1031 4.72155 11.4286 4.35358 11.8922C3.98561 12.3558 4.37983 13.8279 5.7549 13.5302L5.29108 12.1031Z" fill="#E69A85"/>
    <path d="M10.5982 12.1031C10.5982 12.1031 11.1675 11.4286 11.5357 11.8922C11.9039 12.3558 11.5095 13.8279 10.1342 13.5302L10.5982 12.1031Z" fill="#E8AB9A"/>
    <path d="M5.4551 22.6791C5.45541 22.6791 5.45572 22.679 5.456 22.6789C5.45628 22.6788 5.45654 22.6786 5.45676 22.6784C5.45698 22.6782 5.45715 22.6779 5.45727 22.6777C5.45739 22.6774 5.45745 22.6771 5.45745 22.6768C4.99807 21.8822 4.86917 20.8369 4.86213 19.7002C4.85979 19.4119 4.86682 19.119 4.87854 18.8213C5.98479 18.5213 7.02307 18.5354 7.94416 19.0861C8.86526 18.5354 9.90354 18.5213 11.0098 18.8213C11.0215 19.119 11.0285 19.4119 11.0262 19.7002C11.0192 20.8346 10.8879 21.8775 10.4332 22.6721C10.4332 22.6744 10.4309 22.6744 10.4309 22.6768C10.4774 22.7408 10.5204 22.8073 10.5598 22.876C10.9443 23.5421 11.2041 24.2728 11.3262 25.0322H4.56213C4.68203 24.2744 4.94023 23.5451 5.32385 22.8807C5.36403 22.8112 5.40784 22.7439 5.4551 22.6791Z" fill="#E9EDF1"/>
    <path d="M11.0264 19.7002C10.2119 19.4058 8.69127 19.0836 7.94409 20.3799C7.1969 19.0831 5.67627 19.4054 4.86182 19.7002C4.86018 19.4124 4.86674 19.118 4.87823 18.8204C5.98518 18.5213 7.02346 18.5358 7.94409 19.0868C8.86471 18.5358 9.90299 18.5213 11.0099 18.8204C11.0214 19.118 11.0278 19.4124 11.0264 19.7002Z" fill="#C8D2DC"/>
    <path d="M10.5598 22.8758C9.73797 23.2503 8.84547 23.4445 7.94233 23.4453C7.03919 23.4461 6.14635 23.2535 5.32385 22.8805C5.36403 22.811 5.40784 22.7437 5.4551 22.6789C6.23813 23.03 7.08677 23.211 7.94492 23.2098C8.80307 23.2086 9.6512 23.0252 10.4332 22.6719C10.4332 22.6742 10.4309 22.6742 10.4309 22.6766C10.4774 22.7406 10.5204 22.8071 10.5598 22.8758Z" fill="#C8D2DC"/>
    <path d="M10.8093 11.5941C10.7648 13.6754 10.1085 15.2738 7.94292 15.309C7.84448 15.3066 7.74839 15.302 7.65698 15.2949C5.72104 15.1262 5.12104 13.5793 5.07886 11.5941C5.53456 11.5165 5.97127 11.3526 6.36558 11.1113C7.09183 10.6289 7.64458 9.92667 7.94292 9.10742C8.57573 10.6426 9.57651 11.3715 10.8093 11.5941Z" fill="#FFCDBE"/>
    <path d="M6.77481 12.0895C6.90542 12.0895 7.0113 11.9247 7.0113 11.7215C7.0113 11.5183 6.90542 11.3535 6.77481 11.3535C6.64421 11.3535 6.53833 11.5183 6.53833 11.7215C6.53833 11.9247 6.64421 12.0895 6.77481 12.0895Z" fill="#9C5640"/>
    <path d="M9.11344 12.0895C9.24404 12.0895 9.34992 11.9247 9.34992 11.7215C9.34992 11.5183 9.24404 11.3535 9.11344 11.3535C8.98283 11.3535 8.87695 11.5183 8.87695 11.7215C8.87695 11.9247 8.98283 12.0895 9.11344 12.0895Z" fill="#9C5640"/>
    <path d="M7.94203 12.9993C7.83496 12.9992 7.73229 12.9567 7.65655 12.881C7.5808 12.8054 7.53815 12.7028 7.53796 12.5957C7.53796 12.5646 7.55031 12.5348 7.57229 12.5128C7.59426 12.4909 7.62407 12.4785 7.65515 12.4785C7.68623 12.4785 7.71604 12.4909 7.73802 12.5128C7.75999 12.5348 7.77234 12.5646 7.77234 12.5957C7.77149 12.6185 7.77525 12.6412 7.78339 12.6626C7.79153 12.6839 7.80388 12.7033 7.81971 12.7197C7.83554 12.7362 7.85452 12.7492 7.87552 12.7582C7.89651 12.7671 7.91909 12.7717 7.94191 12.7717C7.96472 12.7717 7.9873 12.7671 8.0083 12.7582C8.0293 12.7492 8.04828 12.7362 8.06411 12.7197C8.07993 12.7033 8.09229 12.6839 8.10043 12.6626C8.10857 12.6412 8.11233 12.6185 8.11148 12.5957C8.11148 12.5646 8.12383 12.5348 8.1458 12.5128C8.16778 12.4909 8.19759 12.4785 8.22867 12.4785C8.25975 12.4785 8.28955 12.4909 8.31153 12.5128C8.33351 12.5348 8.34585 12.5646 8.34585 12.5957C8.34567 12.7027 8.30305 12.8053 8.22736 12.881C8.15166 12.9566 8.04905 12.9992 7.94203 12.9993Z" fill="#D97355"/>
    <path d="M7.942 14.1584C7.68891 14.168 7.44043 14.0887 7.2398 13.9341C7.03917 13.7795 6.8991 13.5595 6.84395 13.3123C6.83522 13.2824 6.8387 13.2503 6.85362 13.2231C6.86854 13.1958 6.89369 13.1756 6.92352 13.1668C6.95336 13.1581 6.98545 13.1616 7.01272 13.1765C7.03999 13.1914 7.06022 13.2166 7.06895 13.2464C7.11864 13.4402 7.23139 13.6119 7.38944 13.7345C7.54748 13.8572 7.74184 13.9237 7.94188 13.9237C8.14193 13.9237 8.33628 13.8572 8.49433 13.7345C8.65237 13.6119 8.76512 13.4402 8.81481 13.2464C8.82355 13.2166 8.84378 13.1914 8.87105 13.1765C8.89832 13.1616 8.93041 13.1581 8.96024 13.1668C8.99008 13.1756 9.01523 13.1958 9.03015 13.2231C9.04507 13.2503 9.04855 13.2824 9.03981 13.3123C8.98468 13.5594 8.84464 13.7794 8.64406 13.934C8.44348 14.0886 8.19506 14.168 7.942 14.1584Z" fill="#D97355"/>
    <path d="M7.6582 15.2949C5.72227 15.1262 5.12227 13.5793 5.08008 11.5941C5.53578 11.5165 5.97249 11.3526 6.3668 11.1113C6.04102 12.4123 6.18773 14.135 7.6582 15.2949Z" fill="#EBAE9D"/>
    <path d="M5.34701 16.2871C5.32546 16.2871 5.30432 16.2812 5.28592 16.27C5.26752 16.2587 5.25257 16.2427 5.24271 16.2235C5.23285 16.2044 5.22846 16.1828 5.23003 16.1614C5.23161 16.1399 5.23907 16.1192 5.25161 16.1017C5.27505 16.0691 5.81107 15.2903 5.10255 14.1386C4.31646 12.8605 4.94622 11.4794 4.97318 11.4212C4.98632 11.393 5.01013 11.3712 5.03936 11.3606C5.06859 11.3499 5.10085 11.3514 5.12904 11.3645C5.15723 11.3777 5.17904 11.4015 5.18968 11.4307C5.20031 11.4599 5.1989 11.4922 5.18576 11.5204C5.17966 11.5335 4.58341 12.8472 5.30294 14.0158C6.09677 15.3062 5.46958 16.2013 5.44357 16.2386C5.43255 16.2538 5.41802 16.2662 5.40121 16.2746C5.38441 16.2831 5.36581 16.2873 5.34701 16.2871Z" fill="#9C5640"/>
    <path d="M10.5176 16.3499C10.4993 16.3497 10.4812 16.3452 10.465 16.3368C10.4487 16.3284 10.4346 16.3163 10.4239 16.3014C10.3969 16.2641 9.76948 15.3691 10.5645 14.0783C11.2831 12.91 10.6871 11.5963 10.6817 11.5832C10.6732 11.5691 10.6677 11.5535 10.6656 11.5372C10.6636 11.5209 10.665 11.5043 10.6697 11.4886C10.6745 11.4728 10.6825 11.4583 10.6932 11.4459C10.7039 11.4334 10.7172 11.4234 10.732 11.4164C10.7469 11.4094 10.7631 11.4056 10.7795 11.4053C10.7959 11.405 10.8122 11.4081 10.8274 11.4145C10.8425 11.4208 10.8562 11.4303 10.8674 11.4423C10.8786 11.4543 10.8872 11.4685 10.8926 11.484C10.9198 11.5422 11.5489 12.9233 10.7632 14.2012C10.0549 15.3531 10.5912 16.1319 10.6142 16.1645C10.6267 16.182 10.6342 16.2026 10.6357 16.2241C10.6373 16.2456 10.633 16.2671 10.6231 16.2862C10.6133 16.3054 10.5984 16.3215 10.58 16.3327C10.5616 16.3439 10.5405 16.3499 10.519 16.3499H10.5176Z" fill="#BE694E"/>
    <path d="M3.44414 23.4123C3.38333 23.9567 3.29438 24.4976 3.17766 25.0328H2.10352L2.60273 22.9727L3.44414 23.4123Z" fill="#B5BEC7"/>
    <path d="M13.2422 7.56785C13.2375 7.57019 13.2352 7.57488 13.2305 7.57722C11.3133 6.05144 8.50317 5.11629 9.35161 2.41629C9.85317 1.02879 11.5266 0.909257 12.5485 1.85613C10.1621 3.4241 11.2193 5.24754 13.2422 7.56785Z" fill="#D67A81"/>
</svg>
